G04 FreePCB MFC Application*
G04 Version: ѕлат‘орм 2.427*
G04 Author: niconson.com *
G04 WebSite: https://niconson.com/freepcb2 *
G04 Repositories: https://github.com/niconson *
G04 D:\Works\ѕлат‘орм на русском\Projects\Led\version-01\(wERRORS)CAM(Driver-01)(9-18-2025)\Driver-01.TSL.gbr*

G04 Objects of panelization *
G04 шЄлк верх layer *
G04 Scale: 100 percent, Rotated: No, Reflected: No *
%FSLAX26Y26*%
%MOIN*%
G04 шЄлк верх *
G04 Rounded Rectangle Macro, params: W/2, H/2, R *
%AMRNDREC*
21,1,$1+$1,$2+$2-$3-$3,0,0,0*
21,1,$1+$1-$3-$3,$2+$2,0,0,0*
1,1,$3+$3,$1-$3,$2-$3*
1,1,$3+$3,$3-$1,$2-$3*
1,1,$3+$3,$1-$3,$3-$2*
1,1,$3+$3,$3-$1,$3-$2*%
G04 Rectangular Thermal Macro, params: W/4, H/4, TW/4, TC/4 *
%AMRECTHERM*
21,1,$1+$1-$3-$3-$4-$4,$2+$2-$3-$3-$4-$4-$4-$4,0-$1-$3-$4,0-$2-$3,0*
21,1,$1+$1-$3-$3-$4-$4-$4-$4,$2+$2-$3-$3-$4-$4,0-$1-$3,0-$2-$3-$4,0*
1,1,$4+$4+$4+$4,0-$1-$1+$4+$4,0-$2-$2+$4+$4*
1,1,$4+$4+$4+$4,0-$1-$1+$4+$4,0-$3-$3-$4-$4*
1,1,$4+$4+$4+$4,0-$3-$3-$4-$4,0-$2-$2+$4+$4*
21,1,$1+$1-$3-$3-$4-$4,$2+$2-$3-$3-$4-$4-$4-$4,0-$1-$3-$4,$2+$3,0*
21,1,$1+$1-$3-$3-$4-$4-$4-$4,$2+$2-$3-$3-$4-$4,0-$1-$3,$2+$3+$4,0*
1,1,$4+$4+$4+$4,0-$1-$1+$4+$4,$2+$2-$4-$4*
1,1,$4+$4+$4+$4,0-$1-$1+$4+$4,$3+$3+$4+$4*
1,1,$4+$4+$4+$4,0-$3-$3-$4-$4,$2+$2-$4-$4*
21,1,$1+$1-$3-$3-$4-$4,$2+$2-$3-$3-$4-$4-$4-$4,$1+$3+$4,0-$2-$3,0*
21,1,$1+$1-$3-$3-$4-$4-$4-$4,$2+$2-$3-$3-$4-$4,$1+$3,0-$2-$3-$4,0*
1,1,$4+$4+$4+$4,$1+$1-$4-$4,0-$2-$2+$4+$4*
1,1,$4+$4+$4+$4,$1+$1-$4-$4,0-$3-$3-$4-$4*
1,1,$4+$4+$4+$4,$3+$3+$4+$4,0-$2-$2+$4+$4*
21,1,$1+$1-$3-$3-$4-$4,$2+$2-$3-$3-$4-$4-$4-$4,$1+$3+$4,$2+$3,0*
21,1,$1+$1-$3-$3-$4-$4-$4-$4,$2+$2-$3-$3-$4-$4,$1+$3,$2+$3+$4,0*
1,1,$4+$4+$4+$4,$1+$1-$4-$4,$2+$2-$4-$4*
1,1,$4+$4+$4+$4,$1+$1-$4-$4,$3+$3+$4+$4*
1,1,$4+$4+$4+$4,$3+$3+$4+$4,$2+$2-$4-$4*%
%AMRECTHERM_45*
21,1,$1+$1+$1+$1,$2+$2+$2+$2-$4-$4-$4-$4-$4-$4-$4-$4-$4-$4-$3-$3,0,0,0*
21,1,$1+$1+$1+$1-$4-$4-$4-$4-$4-$4-$4-$4-$4-$4-$3-$3,$2+$2+$2+$2,0,0,0*
1,1,$4+$4+$4+$4,$1+$1-$4-$4,$2+$2-$4-$4-$4-$4-$4-$3*
1,1,$4+$4+$4+$4,$1+$1-$4-$4,0-$2-$2+$4+$4+$4+$4+$4+$3*
1,1,$4+$4+$4+$4,$1+$1-$4-$4-$4-$4-$4-$3,$2+$2-$4-$4*
1,1,$4+$4+$4+$4,0-$1-$1+$4+$4+$4+$4+$4+$3,$2+$2-$4-$4*
1,1,$4+$4+$4+$4,0-$1-$1+$4+$4,$2+$2-$4-$4-$4-$4-$4-$3*
1,1,$4+$4+$4+$4,0-$1-$1+$4+$4,0-$2-$2+$4+$4+$4+$4+$4+$3*
1,1,$4+$4+$4+$4,$1+$1-$4-$4-$4-$4-$4-$3,0-$2-$2+$4+$4*
1,1,$4+$4+$4+$4,0-$1-$1+$4+$4+$4+$4+$4+$3,0-$2-$2+$4+$4*%
%ADD10C,0.028121*%
%ADD11C,0.010000*%
%ADD12C,0.007000*%
%ADD13C,0.005906*%
G01*
G04 begin color: clBlack*
%LPD*%

G04 Objects of panelization *
D10*
X-196850Y5801800D02*
X-192550Y5788950D01*
X-192550Y5788950D02*
X-184000Y5780400D01*
X-184000Y5780400D02*
X-171150Y5776150D01*
X-171150Y5776150D02*
X-132650Y5776150D01*
X-132650Y5776150D02*
X-119800Y5780400D01*
X-119800Y5780400D02*
X-111250Y5788950D01*
X-111250Y5788950D02*
X-106950Y5801800D01*
X-106950Y5801800D02*
X-106950Y5943000D01*
X-106950Y5943000D02*
X-111250Y5955850D01*
X-111250Y5955850D02*
X-119800Y5964400D01*
X-119800Y5964400D02*
X-132650Y5968700D01*
X-132650Y5968700D02*
X-171150Y5968700D01*
X-171150Y5968700D02*
X-184000Y5964400D01*
X-184000Y5964400D02*
X-192550Y5955850D01*
X-192550Y5955850D02*
X-196850Y5943000D01*
X-196850Y5943000D02*
X-196850Y5801800D01*
X-50650Y5776150D02*
X-50650Y5904500D01*
X-50650Y5904500D02*
X650Y5904500D01*
X650Y5904500D02*
X13500Y5900250D01*
X13500Y5900250D02*
X22050Y5891650D01*
X22050Y5891650D02*
X26350Y5878850D01*
X26350Y5878850D02*
X26350Y5776150D01*
X125450Y5776150D02*
X125450Y5968700D01*
X82650Y5968700D02*
X168200Y5968700D01*
X224550Y5801800D02*
X228800Y5788950D01*
X228800Y5788950D02*
X237350Y5780400D01*
X237350Y5780400D02*
X250200Y5776150D01*
X250200Y5776150D02*
X275900Y5776150D01*
X275900Y5776150D02*
X288700Y5780400D01*
X288700Y5780400D02*
X297300Y5788950D01*
X297300Y5788950D02*
X301550Y5801800D01*
X301550Y5801800D02*
X301550Y5878850D01*
X301550Y5878850D02*
X297300Y5891650D01*
X297300Y5891650D02*
X288700Y5900250D01*
X288700Y5900250D02*
X275900Y5904500D01*
X275900Y5904500D02*
X250200Y5904500D01*
X250200Y5904500D02*
X237350Y5900250D01*
X237350Y5900250D02*
X228800Y5891650D01*
X228800Y5891650D02*
X224550Y5878850D01*
X224550Y5878850D02*
X224550Y5801800D01*
X357850Y5729050D02*
X357850Y5904500D01*
X357850Y5904500D02*
X409200Y5904500D01*
X409200Y5904500D02*
X422050Y5900250D01*
X422050Y5900250D02*
X430600Y5891650D01*
X430600Y5891650D02*
X434900Y5878850D01*
X434900Y5878850D02*
X434900Y5801800D01*
X434900Y5801800D02*
X430600Y5788950D01*
X430600Y5788950D02*
X422050Y5780400D01*
X422050Y5780400D02*
X409200Y5776150D01*
X409200Y5776150D02*
X357850Y5776150D01*
X576800Y5955850D02*
X568250Y5964400D01*
X568250Y5964400D02*
X551100Y5968700D01*
X551100Y5968700D02*
X516850Y5968700D01*
X516850Y5968700D02*
X504050Y5964400D01*
X504050Y5964400D02*
X495500Y5955850D01*
X495500Y5955850D02*
X491200Y5943000D01*
X491200Y5943000D02*
X491200Y5930200D01*
X491200Y5930200D02*
X495500Y5917350D01*
X495500Y5917350D02*
X572500Y5831750D01*
X572500Y5831750D02*
X576800Y5818900D01*
X576800Y5818900D02*
X576800Y5801800D01*
X576800Y5801800D02*
X572500Y5788950D01*
X572500Y5788950D02*
X563950Y5780400D01*
X563950Y5780400D02*
X551100Y5776150D01*
X551100Y5776150D02*
X516850Y5776150D01*
X516850Y5776150D02*
X499750Y5780400D01*
X499750Y5780400D02*
X491200Y5788950D01*
X637350Y5904500D02*
X637350Y5776150D01*
X637350Y5960150D02*
X633100Y5955850D01*
X633100Y5955850D02*
X637350Y5951600D01*
X637350Y5951600D02*
X641650Y5955850D01*
X641650Y5955850D02*
X637350Y5960150D01*
X697950Y5968700D02*
X697950Y5801800D01*
X697950Y5801800D02*
X702250Y5788950D01*
X702250Y5788950D02*
X710800Y5780400D01*
X710800Y5780400D02*
X723650Y5776150D01*
X723650Y5776150D02*
X736450Y5776150D01*
X792800Y5968700D02*
X792800Y5776150D01*
X792800Y5831750D02*
X869800Y5904500D01*
X814200Y5848900D02*
X869800Y5776150D01*
D11*

G04 Step and Repeat for panelization *
%SRX6Y10I1.141732J0.610236*%

G04 ----------------------- Draw board outline (positive)*

G04 -------------- Draw Parts, Pads, Traces, Vias and Text (positive)*
D12*
X-305100Y-313750D02*
X-194850Y-313750D01*
X-194850Y-368900D01*
X-305100Y-368900D01*
X-305100Y-313750D01*
D13*
X-181350Y-336750D02*
X-181350Y-309800D01*
X-181350Y-309800D02*
X-172950Y-309800D01*
X-172950Y-309800D02*
X-171150Y-310400D01*
X-171150Y-310400D02*
X-169950Y-311600D01*
X-169950Y-311600D02*
X-169350Y-313400D01*
X-169350Y-313400D02*
X-169350Y-320000D01*
X-169350Y-320000D02*
X-169950Y-321800D01*
X-169950Y-321800D02*
X-171150Y-323000D01*
X-171150Y-323000D02*
X-172950Y-323600D01*
X-172950Y-323600D02*
X-181350Y-323600D01*
X-175950Y-323600D02*
X-169350Y-336750D01*
X-161450Y-315800D02*
X-155500Y-309800D01*
X-155500Y-309800D02*
X-155500Y-336750D01*
X-940900Y-370050D02*
X-940900Y-343100D01*
X-940900Y-359250D02*
X-927750Y-343100D01*
X-936150Y-353900D02*
X-927750Y-370050D01*
X-913850Y-370050D02*
X-913850Y-343100D01*
X-919850Y-343100D02*
X-907850Y-343100D01*
X-900000Y-349100D02*
X-894000Y-343100D01*
X-894000Y-343100D02*
X-894000Y-370050D01*
X-45250Y-429100D02*
X-72200Y-429100D01*
X-56050Y-429100D02*
X-72200Y-415950D01*
X-61450Y-424300D02*
X-45250Y-415950D01*
X-45250Y-402050D02*
X-72200Y-402050D01*
X-72200Y-408050D02*
X-72200Y-396050D01*
X-72200Y-388200D02*
X-72200Y-381600D01*
X-72200Y-381600D02*
X-71600Y-379800D01*
X-71600Y-379800D02*
X-69800Y-378000D01*
X-69800Y-378000D02*
X-68000Y-377400D01*
X-68000Y-377400D02*
X-64400Y-377400D01*
X-64400Y-377400D02*
X-62600Y-378000D01*
X-62600Y-378000D02*
X-60850Y-379800D01*
X-60850Y-379800D02*
X-60250Y-381600D01*
X-60250Y-384600D02*
X-60250Y-382200D01*
X-60250Y-382200D02*
X-59650Y-379800D01*
X-59650Y-379800D02*
X-57850Y-378000D01*
X-57850Y-378000D02*
X-56050Y-377400D01*
X-56050Y-377400D02*
X-49450Y-377400D01*
X-49450Y-377400D02*
X-47650Y-378000D01*
X-47650Y-378000D02*
X-45850Y-379800D01*
X-45850Y-379800D02*
X-45250Y-381600D01*
X-45250Y-381600D02*
X-45250Y-388200D01*
X-45650Y-290150D02*
X-72600Y-290150D01*
X-56450Y-290150D02*
X-72600Y-276950D01*
X-61800Y-285350D02*
X-45650Y-276950D01*
X-45650Y-263100D02*
X-72600Y-263100D01*
X-72600Y-269050D02*
X-72600Y-257100D01*
X-72600Y-244400D02*
X-51650Y-249200D01*
X-51650Y-249200D02*
X-51650Y-236600D01*
X-57650Y-240200D02*
X-45650Y-240200D01*
D12*
X-456650Y-66900D02*
X-728300Y-66900D01*
X-728300Y-248000D01*
X-456650Y-248000D01*
X-456650Y-66900D01*
D13*
X-773200Y-102350D02*
X-773200Y-129300D01*
X-773200Y-129300D02*
X-762400Y-129300D01*
X-754500Y-108350D02*
X-748500Y-102350D01*
X-748500Y-102350D02*
X-748500Y-129300D01*
D12*
X-594800Y-287800D02*
X-594800Y-280050D01*
X-474750Y-280050D01*
X-474750Y-287800D01*
X-594800Y-402300D02*
X-594800Y-410100D01*
X-474750Y-410100D01*
X-474750Y-402300D01*
D11*
X-619800Y-277800D02*
X-619800Y-277250D01*
X-619700Y-276700D01*
X-619550Y-276150D01*
X-619300Y-275650D01*
X-619050Y-275150D01*
X-618700Y-274700D01*
X-618350Y-274300D01*
X-617950Y-273900D01*
X-617450Y-273600D01*
X-617000Y-273300D01*
X-616450Y-273100D01*
X-615900Y-272950D01*
X-615350Y-272850D01*
X-614800Y-272800D01*
X-614250Y-272850D01*
X-613700Y-272950D01*
X-613150Y-273100D01*
X-612650Y-273300D01*
X-612150Y-273600D01*
X-611700Y-273900D01*
X-611300Y-274300D01*
X-610900Y-274700D01*
X-610600Y-275150D01*
X-610300Y-275650D01*
X-610100Y-276150D01*
X-609950Y-276700D01*
X-609850Y-277250D01*
X-609800Y-277800D01*
X-609850Y-278400D01*
X-609950Y-278950D01*
X-610100Y-279450D01*
X-610300Y-280000D01*
X-610600Y-280500D01*
X-610900Y-280950D01*
X-611300Y-281350D01*
X-611700Y-281750D01*
X-612150Y-282050D01*
X-612650Y-282350D01*
X-613150Y-282550D01*
X-613700Y-282700D01*
X-614250Y-282800D01*
X-614800Y-282800D01*
X-615350Y-282800D01*
X-615900Y-282700D01*
X-616450Y-282550D01*
X-617000Y-282350D01*
X-617450Y-282050D01*
X-617950Y-281750D01*
X-618350Y-281350D01*
X-618700Y-280950D01*
X-619050Y-280500D01*
X-619300Y-280000D01*
X-619550Y-279450D01*
X-619700Y-278950D01*
X-619800Y-278400D01*
X-619800Y-277800D01*
D13*
X-638150Y-401050D02*
X-645000Y-431000D01*
X-645000Y-431000D02*
X-627050Y-431000D01*
X-632150Y-422450D02*
X-632150Y-439550D01*
X-437450Y-400150D02*
X-453700Y-400150D01*
X-453700Y-400150D02*
X-453700Y-417300D01*
X-453700Y-417300D02*
X-443450Y-417300D01*
X-443450Y-417300D02*
X-440900Y-418150D01*
X-440900Y-418150D02*
X-438300Y-420700D01*
X-438300Y-420700D02*
X-437450Y-423300D01*
X-437450Y-423300D02*
X-437450Y-432700D01*
X-437450Y-432700D02*
X-438300Y-435250D01*
X-438300Y-435250D02*
X-440900Y-437850D01*
X-440900Y-437850D02*
X-443450Y-438700D01*
X-443450Y-438700D02*
X-453700Y-438700D01*
X-428500Y-250550D02*
X-431050Y-250550D01*
X-431050Y-250550D02*
X-433600Y-251400D01*
X-433600Y-251400D02*
X-435300Y-253150D01*
X-435300Y-253150D02*
X-436200Y-255700D01*
X-436200Y-255700D02*
X-436200Y-262550D01*
X-436200Y-262550D02*
X-435300Y-265100D01*
X-435300Y-265100D02*
X-433600Y-266850D01*
X-433600Y-266850D02*
X-431050Y-267700D01*
X-431050Y-267700D02*
X-425900Y-267700D01*
X-425900Y-267700D02*
X-423350Y-266850D01*
X-423350Y-266850D02*
X-421650Y-265100D01*
X-421650Y-265100D02*
X-420750Y-262550D01*
X-420750Y-262550D02*
X-420750Y-255700D01*
X-420750Y-255700D02*
X-421650Y-253150D01*
X-421650Y-253150D02*
X-423350Y-251400D01*
X-423350Y-251400D02*
X-425900Y-250550D01*
X-425900Y-250550D02*
X-428500Y-250550D01*
X-431050Y-267700D02*
X-433600Y-268550D01*
X-433600Y-268550D02*
X-436200Y-271100D01*
X-436200Y-271100D02*
X-437050Y-273650D01*
X-437050Y-273650D02*
X-437050Y-283100D01*
X-437050Y-283100D02*
X-436200Y-285650D01*
X-436200Y-285650D02*
X-433600Y-288200D01*
X-433600Y-288200D02*
X-431050Y-289100D01*
X-431050Y-289100D02*
X-425900Y-289100D01*
X-425900Y-289100D02*
X-423350Y-288200D01*
X-423350Y-288200D02*
X-420750Y-285650D01*
X-420750Y-285650D02*
X-419900Y-283100D01*
X-419900Y-283100D02*
X-419900Y-273650D01*
X-419900Y-273650D02*
X-420750Y-271100D01*
X-420750Y-271100D02*
X-423350Y-268550D01*
X-423350Y-268550D02*
X-425900Y-267700D01*
X-382350Y-393200D02*
X-409300Y-393200D01*
X-409300Y-393200D02*
X-409300Y-384800D01*
X-409300Y-384800D02*
X-408700Y-383000D01*
X-408700Y-383000D02*
X-407500Y-381800D01*
X-407500Y-381800D02*
X-405700Y-381200D01*
X-405700Y-381200D02*
X-385900Y-381200D01*
X-385900Y-381200D02*
X-384100Y-381800D01*
X-384100Y-381800D02*
X-382950Y-383000D01*
X-382950Y-383000D02*
X-382350Y-384800D01*
X-382350Y-384800D02*
X-382350Y-393200D01*
X-382350Y-362550D02*
X-382350Y-369700D01*
X-382350Y-369700D02*
X-382950Y-371500D01*
X-382950Y-371500D02*
X-384100Y-372700D01*
X-384100Y-372700D02*
X-385900Y-373300D01*
X-385900Y-373300D02*
X-405700Y-373300D01*
X-405700Y-373300D02*
X-407500Y-372700D01*
X-407500Y-372700D02*
X-408700Y-371500D01*
X-408700Y-371500D02*
X-409300Y-369700D01*
X-409300Y-369700D02*
X-409300Y-362550D01*
X-403300Y-354650D02*
X-409300Y-348650D01*
X-409300Y-348650D02*
X-382350Y-348650D01*
X-409300Y-336000D02*
X-388300Y-340750D01*
X-388300Y-340750D02*
X-388300Y-328200D01*
X-394300Y-331800D02*
X-382350Y-331800D01*
D12*
X-314550Y-251550D02*
X-314550Y-361800D01*
X-369650Y-361800D01*
X-369650Y-251550D01*
X-314550Y-251550D01*
D13*
X-361000Y-238050D02*
X-361000Y-211100D01*
X-361000Y-211100D02*
X-352600Y-211100D01*
X-352600Y-211100D02*
X-350800Y-211700D01*
X-350800Y-211700D02*
X-349600Y-212900D01*
X-349600Y-212900D02*
X-349000Y-214650D01*
X-349000Y-214650D02*
X-349000Y-221250D01*
X-349000Y-221250D02*
X-349600Y-223050D01*
X-349600Y-223050D02*
X-350800Y-224250D01*
X-350800Y-224250D02*
X-352600Y-224850D01*
X-352600Y-224850D02*
X-361000Y-224850D01*
X-355600Y-224850D02*
X-349000Y-238050D01*
X-341150Y-215850D02*
X-340550Y-213450D01*
X-340550Y-213450D02*
X-338750Y-211700D01*
X-338750Y-211700D02*
X-336350Y-211100D01*
X-336350Y-211100D02*
X-333950Y-211100D01*
X-333950Y-211100D02*
X-331550Y-211700D01*
X-331550Y-211700D02*
X-329750Y-213450D01*
X-329750Y-213450D02*
X-329150Y-215850D01*
X-329150Y-215850D02*
X-329150Y-217650D01*
X-329150Y-217650D02*
X-329750Y-219450D01*
X-329750Y-219450D02*
X-341150Y-238050D01*
X-341150Y-238050D02*
X-329150Y-238050D01*
X-943850Y-193850D02*
X-943850Y-166900D01*
X-943850Y-183050D02*
X-930650Y-166900D01*
X-939050Y-177650D02*
X-930650Y-193850D01*
X-916750Y-193850D02*
X-916750Y-166900D01*
X-922750Y-166900D02*
X-910800Y-166900D01*
X-902900Y-171650D02*
X-902300Y-169250D01*
X-902300Y-169250D02*
X-900500Y-167500D01*
X-900500Y-167500D02*
X-898100Y-166900D01*
X-898100Y-166900D02*
X-895700Y-166900D01*
X-895700Y-166900D02*
X-893300Y-167500D01*
X-893300Y-167500D02*
X-891500Y-169250D01*
X-891500Y-169250D02*
X-890900Y-171650D01*
X-890900Y-171650D02*
X-890900Y-173450D01*
X-890900Y-173450D02*
X-891500Y-175250D01*
X-891500Y-175250D02*
X-902900Y-193850D01*
X-902900Y-193850D02*
X-890900Y-193850D01*
D12*
X-431000Y-78750D02*
X-109000Y-78750D01*
X-109000Y-78750D02*
X-109000Y-196750D01*
X-109000Y-196750D02*
X-431000Y-196750D01*
X-431000Y-196750D02*
X-431000Y-78750D01*
X-324000Y-87750D02*
X-324000Y-187750D01*
X-424000Y-87750D02*
X-424000Y-187750D01*
X-314000Y-87750D02*
X-314000Y-187750D01*
X-314000Y-87750D02*
X-314000Y-82750D01*
X-324000Y-87750D02*
X-324000Y-82750D01*
X-324000Y-187750D02*
X-324000Y-192750D01*
X-314000Y-187750D02*
X-314000Y-192750D01*
X-424000Y-87750D02*
X-424000Y-82750D01*
X-424000Y-187750D02*
X-424000Y-192750D01*
D13*
X-96150Y-177300D02*
X-69150Y-170100D01*
X-69150Y-170100D02*
X-96150Y-162950D01*
X-69150Y-155050D02*
X-96150Y-155050D01*
X-96150Y-155050D02*
X-96150Y-146650D01*
X-96150Y-146650D02*
X-95550Y-144850D01*
X-95550Y-144850D02*
X-94350Y-143650D01*
X-94350Y-143650D02*
X-92550Y-143050D01*
X-92550Y-143050D02*
X-72750Y-143050D01*
X-72750Y-143050D02*
X-70950Y-143650D01*
X-70950Y-143650D02*
X-69750Y-144850D01*
X-69750Y-144850D02*
X-69150Y-146650D01*
X-69150Y-146650D02*
X-69150Y-155050D01*
X-96150Y-135200D02*
X-96150Y-128600D01*
X-96150Y-128600D02*
X-95550Y-126800D01*
X-95550Y-126800D02*
X-93750Y-125000D01*
X-93750Y-125000D02*
X-91950Y-124400D01*
X-91950Y-124400D02*
X-88350Y-124400D01*
X-88350Y-124400D02*
X-86550Y-125000D01*
X-86550Y-125000D02*
X-84750Y-126800D01*
X-84750Y-126800D02*
X-84150Y-128600D01*
X-84150Y-131600D02*
X-84150Y-129200D01*
X-84150Y-129200D02*
X-83550Y-126800D01*
X-83550Y-126800D02*
X-81750Y-125000D01*
X-81750Y-125000D02*
X-79950Y-124400D01*
X-79950Y-124400D02*
X-73350Y-124400D01*
X-73350Y-124400D02*
X-71550Y-125000D01*
X-71550Y-125000D02*
X-69750Y-126800D01*
X-69750Y-126800D02*
X-69150Y-128600D01*
X-69150Y-128600D02*
X-69150Y-135200D01*
D12*
X-364150Y-385800D02*
X-253900Y-385800D01*
X-253900Y-440900D01*
X-364150Y-440900D01*
X-364150Y-385800D01*
D13*
X-246300Y-428500D02*
X-246300Y-401500D01*
X-246300Y-401500D02*
X-237900Y-401500D01*
X-237900Y-401500D02*
X-236100Y-402100D01*
X-236100Y-402100D02*
X-234900Y-403300D01*
X-234900Y-403300D02*
X-234300Y-405100D01*
X-234300Y-405100D02*
X-234300Y-411700D01*
X-234300Y-411700D02*
X-234900Y-413500D01*
X-234900Y-413500D02*
X-236100Y-414700D01*
X-236100Y-414700D02*
X-237900Y-415300D01*
X-237900Y-415300D02*
X-246300Y-415300D01*
X-240900Y-415300D02*
X-234300Y-428500D01*
X-226400Y-401500D02*
X-219850Y-401500D01*
X-219850Y-401500D02*
X-218050Y-402100D01*
X-218050Y-402100D02*
X-216250Y-403900D01*
X-216250Y-403900D02*
X-215650Y-405700D01*
X-215650Y-405700D02*
X-215650Y-409300D01*
X-215650Y-409300D02*
X-216250Y-411100D01*
X-216250Y-411100D02*
X-218050Y-412900D01*
X-218050Y-412900D02*
X-219850Y-413500D01*
X-222850Y-413500D02*
X-220450Y-413500D01*
X-220450Y-413500D02*
X-218050Y-414100D01*
X-218050Y-414100D02*
X-216250Y-415900D01*
X-216250Y-415900D02*
X-215650Y-417700D01*
X-215650Y-417700D02*
X-215650Y-424300D01*
X-215650Y-424300D02*
X-216250Y-426100D01*
X-216250Y-426100D02*
X-218050Y-427900D01*
X-218050Y-427900D02*
X-219850Y-428500D01*
X-219850Y-428500D02*
X-226400Y-428500D01*
D12*
X-816900Y-375600D02*
X-706650Y-375600D01*
X-706650Y-430700D01*
X-816900Y-430700D01*
X-816900Y-375600D01*
D13*
X-666850Y-418150D02*
X-666850Y-425350D01*
X-666850Y-425350D02*
X-667450Y-427150D01*
X-667450Y-427150D02*
X-668650Y-428350D01*
X-668650Y-428350D02*
X-670450Y-428950D01*
X-670450Y-428950D02*
X-690250Y-428950D01*
X-690250Y-428950D02*
X-692050Y-428350D01*
X-692050Y-428350D02*
X-693250Y-427150D01*
X-693250Y-427150D02*
X-693850Y-425350D01*
X-693850Y-425350D02*
X-693850Y-418150D01*
X-693850Y-405450D02*
X-672850Y-410250D01*
X-672850Y-410250D02*
X-672850Y-397700D01*
X-678850Y-401300D02*
X-666850Y-401300D01*
D12*
X-816900Y-285050D02*
X-706650Y-285050D01*
X-706650Y-340150D01*
X-816900Y-340150D01*
X-816900Y-285050D01*
D13*
X-666850Y-321300D02*
X-666850Y-328500D01*
X-666850Y-328500D02*
X-667450Y-330300D01*
X-667450Y-330300D02*
X-668650Y-331500D01*
X-668650Y-331500D02*
X-670450Y-332100D01*
X-670450Y-332100D02*
X-690250Y-332100D01*
X-690250Y-332100D02*
X-692050Y-331500D01*
X-692050Y-331500D02*
X-693250Y-330300D01*
X-693250Y-330300D02*
X-693850Y-328500D01*
X-693850Y-328500D02*
X-693850Y-321300D01*
X-687850Y-313450D02*
X-693850Y-307450D01*
X-693850Y-307450D02*
X-666850Y-307450D01*
X-825350Y-135450D02*
X-832550Y-135450D01*
X-832550Y-135450D02*
X-834350Y-134850D01*
X-834350Y-134850D02*
X-835550Y-133650D01*
X-835550Y-133650D02*
X-836150Y-131850D01*
X-836150Y-131850D02*
X-836150Y-112050D01*
X-836150Y-112050D02*
X-835550Y-110300D01*
X-835550Y-110300D02*
X-834350Y-109100D01*
X-834350Y-109100D02*
X-832550Y-108500D01*
X-832550Y-108500D02*
X-825350Y-108500D01*
X-817500Y-108500D02*
X-810900Y-108500D01*
X-810900Y-108500D02*
X-809100Y-109100D01*
X-809100Y-109100D02*
X-807300Y-110850D01*
X-807300Y-110850D02*
X-806700Y-112650D01*
X-806700Y-112650D02*
X-806700Y-116250D01*
X-806700Y-116250D02*
X-807300Y-118050D01*
X-807300Y-118050D02*
X-809100Y-119850D01*
X-809100Y-119850D02*
X-810900Y-120450D01*
X-813900Y-120450D02*
X-811500Y-120450D01*
X-811500Y-120450D02*
X-809100Y-121050D01*
X-809100Y-121050D02*
X-807300Y-122850D01*
X-807300Y-122850D02*
X-806700Y-124650D01*
X-806700Y-124650D02*
X-806700Y-131250D01*
X-806700Y-131250D02*
X-807300Y-133050D01*
X-807300Y-133050D02*
X-809100Y-134850D01*
X-809100Y-134850D02*
X-810900Y-135450D01*
X-810900Y-135450D02*
X-817500Y-135450D01*
D12*
X-303100Y-310600D02*
X-303100Y-200400D01*
X-248000Y-200400D01*
X-248000Y-310600D01*
X-303100Y-310600D01*
D13*
X-223700Y-270650D02*
X-230900Y-270650D01*
X-230900Y-270650D02*
X-232700Y-270050D01*
X-232700Y-270050D02*
X-233900Y-268850D01*
X-233900Y-268850D02*
X-234500Y-267050D01*
X-234500Y-267050D02*
X-234500Y-247300D01*
X-234500Y-247300D02*
X-233900Y-245500D01*
X-233900Y-245500D02*
X-232700Y-244300D01*
X-232700Y-244300D02*
X-230900Y-243700D01*
X-230900Y-243700D02*
X-223700Y-243700D01*
X-215800Y-248500D02*
X-215200Y-246100D01*
X-215200Y-246100D02*
X-213400Y-244300D01*
X-213400Y-244300D02*
X-211000Y-243700D01*
X-211000Y-243700D02*
X-208650Y-243700D01*
X-208650Y-243700D02*
X-206250Y-244300D01*
X-206250Y-244300D02*
X-204450Y-246100D01*
X-204450Y-246100D02*
X-203850Y-248500D01*
X-203850Y-248500D02*
X-203850Y-250300D01*
X-203850Y-250300D02*
X-204450Y-252100D01*
X-204450Y-252100D02*
X-215800Y-270650D01*
X-215800Y-270650D02*
X-203850Y-270650D01*
D12*
X39350Y9800D02*
X39100Y14250D01*
X38350Y18600D01*
X37150Y22800D01*
X35450Y26900D01*
X33300Y30750D01*
X30750Y34350D01*
X27800Y37650D01*
X24500Y40600D01*
X20900Y43150D01*
X17050Y45300D01*
X13000Y47000D01*
X8750Y48200D01*
X4400Y48950D01*
X0Y49200D01*
X-1023600Y49200D01*
X-1028000Y48950D01*
X-1032350Y48200D01*
X-1036600Y47000D01*
X-1040700Y45300D01*
X-1044550Y43150D01*
X-1048150Y40600D01*
X-1051450Y37650D01*
X-1054400Y34350D01*
X-1056950Y30750D01*
X-1059050Y26900D01*
X-1060750Y22800D01*
X-1062000Y18600D01*
X-1062700Y14250D01*
X-1062950Y9800D01*
X-1062950Y-501950D01*
X-1062700Y-506350D01*
X-1062000Y-510700D01*
X-1060750Y-514950D01*
X-1059050Y-519050D01*
X-1056950Y-522900D01*
X-1054400Y-526500D01*
X-1051450Y-529800D01*
X-1048150Y-532700D01*
X-1044550Y-535300D01*
X-1040700Y-537400D01*
X-1036600Y-539100D01*
X-1032350Y-540350D01*
X-1028000Y-541050D01*
X-1023600Y-541300D01*
X0Y-541300D01*
X4400Y-541050D01*
X8750Y-540350D01*
X13000Y-539100D01*
X17050Y-537400D01*
X20900Y-535300D01*
X24500Y-532700D01*
X27800Y-529800D01*
X30750Y-526500D01*
X33300Y-522900D01*
X35450Y-519050D01*
X37150Y-514950D01*
X38350Y-510700D01*
X39100Y-506350D01*
X39350Y-501950D01*
X39350Y9800D01*

G04 Draw traces*

G04 Draw Text*
D11*

G04 EOF Step and Repeat for panelization *
%SR*%
M02*
