G04 FreePCB MFC Application*
G04 Version: ѕлат‘орм 2.427*
G04 Author: niconson.com *
G04 WebSite: https://niconson.com/freepcb2 *
G04 Repositories: https://github.com/niconson *
G04 D:\Works\ѕлат‘орм на русском\Projects\Led\version-01\(wERRORS)CAM(Driver-01)(9-18-2025)\Driver-01.TOP.gbr*

G04 Objects of panelization *
G04 медь верх layer *
G04 Scale: 100 percent, Rotated: No, Reflected: No *
%FSLAX26Y26*%
%MOIN*%
G04 медь верх *
G04 Rounded Rectangle Macro, params: W/2, H/2, R *
%AMRNDREC*
21,1,$1+$1,$2+$2-$3-$3,0,0,0*
21,1,$1+$1-$3-$3,$2+$2,0,0,0*
1,1,$3+$3,$1-$3,$2-$3*
1,1,$3+$3,$3-$1,$2-$3*
1,1,$3+$3,$1-$3,$3-$2*
1,1,$3+$3,$3-$1,$3-$2*%
G04 Rectangular Thermal Macro, params: W/4, H/4, TW/4, TC/4 *
%AMRECTHERM*
21,1,$1+$1-$3-$3-$4-$4,$2+$2-$3-$3-$4-$4-$4-$4,0-$1-$3-$4,0-$2-$3,0*
21,1,$1+$1-$3-$3-$4-$4-$4-$4,$2+$2-$3-$3-$4-$4,0-$1-$3,0-$2-$3-$4,0*
1,1,$4+$4+$4+$4,0-$1-$1+$4+$4,0-$2-$2+$4+$4*
1,1,$4+$4+$4+$4,0-$1-$1+$4+$4,0-$3-$3-$4-$4*
1,1,$4+$4+$4+$4,0-$3-$3-$4-$4,0-$2-$2+$4+$4*
21,1,$1+$1-$3-$3-$4-$4,$2+$2-$3-$3-$4-$4-$4-$4,0-$1-$3-$4,$2+$3,0*
21,1,$1+$1-$3-$3-$4-$4-$4-$4,$2+$2-$3-$3-$4-$4,0-$1-$3,$2+$3+$4,0*
1,1,$4+$4+$4+$4,0-$1-$1+$4+$4,$2+$2-$4-$4*
1,1,$4+$4+$4+$4,0-$1-$1+$4+$4,$3+$3+$4+$4*
1,1,$4+$4+$4+$4,0-$3-$3-$4-$4,$2+$2-$4-$4*
21,1,$1+$1-$3-$3-$4-$4,$2+$2-$3-$3-$4-$4-$4-$4,$1+$3+$4,0-$2-$3,0*
21,1,$1+$1-$3-$3-$4-$4-$4-$4,$2+$2-$3-$3-$4-$4,$1+$3,0-$2-$3-$4,0*
1,1,$4+$4+$4+$4,$1+$1-$4-$4,0-$2-$2+$4+$4*
1,1,$4+$4+$4+$4,$1+$1-$4-$4,0-$3-$3-$4-$4*
1,1,$4+$4+$4+$4,$3+$3+$4+$4,0-$2-$2+$4+$4*
21,1,$1+$1-$3-$3-$4-$4,$2+$2-$3-$3-$4-$4-$4-$4,$1+$3+$4,$2+$3,0*
21,1,$1+$1-$3-$3-$4-$4-$4-$4,$2+$2-$3-$3-$4-$4,$1+$3,$2+$3+$4,0*
1,1,$4+$4+$4+$4,$1+$1-$4-$4,$2+$2-$4-$4*
1,1,$4+$4+$4+$4,$1+$1-$4-$4,$3+$3+$4+$4*
1,1,$4+$4+$4+$4,$3+$3+$4+$4,$2+$2-$4-$4*%
%AMRECTHERM_45*
21,1,$1+$1+$1+$1,$2+$2+$2+$2-$4-$4-$4-$4-$4-$4-$4-$4-$4-$4-$3-$3,0,0,0*
21,1,$1+$1+$1+$1-$4-$4-$4-$4-$4-$4-$4-$4-$4-$4-$3-$3,$2+$2+$2+$2,0,0,0*
1,1,$4+$4+$4+$4,$1+$1-$4-$4,$2+$2-$4-$4-$4-$4-$4-$3*
1,1,$4+$4+$4+$4,$1+$1-$4-$4,0-$2-$2+$4+$4+$4+$4+$4+$3*
1,1,$4+$4+$4+$4,$1+$1-$4-$4-$4-$4-$4-$3,$2+$2-$4-$4*
1,1,$4+$4+$4+$4,0-$1-$1+$4+$4+$4+$4+$4+$3,$2+$2-$4-$4*
1,1,$4+$4+$4+$4,0-$1-$1+$4+$4,$2+$2-$4-$4-$4-$4-$4-$3*
1,1,$4+$4+$4+$4,0-$1-$1+$4+$4,0-$2-$2+$4+$4+$4+$4+$4+$3*
1,1,$4+$4+$4+$4,$1+$1-$4-$4-$4-$4-$4-$3,0-$2-$2+$4+$4*
1,1,$4+$4+$4+$4,0-$1-$1+$4+$4+$4+$4+$4+$3,0-$2-$2+$4+$4*%
%ADD10R,0.039370X0.039370*%
%ADD11C,0.028121*%
%ADD12C,0.010000*%
%ADD13C,0.011811*%
%ADD14C,0.010630*%
%ADD15R,0.035433X0.031496*%
%ADD16O,0.118110X0.078740*%
%ADD17R,0.098425X0.157480*%
%ADD18R,0.062992X0.017717*%
%ADD19R,0.072835X0.098425*%
%ADD20R,0.031496X0.035433*%
%ADD21RNDREC,0.039000X0.047500X0.012000*%
%ADD22RNDREC,0.025591X0.019685X0.000000*%
%ADD23C,0.015748*%
%ADD24C,0.039370*%
%ADD25C,0.031500*%
G01*
G04 begin color: clBlack*
%LPD*%

G04 Objects of panelization *
D10*
X-590551Y-846456D03*
X5275590Y5846456D03*
X-590551Y5846456D03*
X5275590Y-846456D03*
D11*
X-196850Y-947300D02*
X-192550Y-960150D01*
X-192550Y-960150D02*
X-184000Y-968700D01*
X-184000Y-968700D02*
X-171150Y-973000D01*
X-171150Y-973000D02*
X-132650Y-973000D01*
X-132650Y-973000D02*
X-119800Y-968700D01*
X-119800Y-968700D02*
X-111250Y-960150D01*
X-111250Y-960150D02*
X-106950Y-947300D01*
X-106950Y-947300D02*
X-106950Y-806100D01*
X-106950Y-806100D02*
X-111250Y-793250D01*
X-111250Y-793250D02*
X-119800Y-784700D01*
X-119800Y-784700D02*
X-132650Y-780400D01*
X-132650Y-780400D02*
X-171150Y-780400D01*
X-171150Y-780400D02*
X-184000Y-784700D01*
X-184000Y-784700D02*
X-192550Y-793250D01*
X-192550Y-793250D02*
X-196850Y-806100D01*
X-196850Y-806100D02*
X-196850Y-947300D01*
X-50650Y-973000D02*
X-50650Y-844600D01*
X-50650Y-844600D02*
X650Y-844600D01*
X650Y-844600D02*
X13500Y-848900D01*
X13500Y-848900D02*
X22050Y-857450D01*
X22050Y-857450D02*
X26350Y-870250D01*
X26350Y-870250D02*
X26350Y-973000D01*
X125450Y-973000D02*
X125450Y-780400D01*
X82650Y-780400D02*
X168200Y-780400D01*
X224550Y-947300D02*
X228800Y-960150D01*
X228800Y-960150D02*
X237350Y-968700D01*
X237350Y-968700D02*
X250200Y-973000D01*
X250200Y-973000D02*
X275900Y-973000D01*
X275900Y-973000D02*
X288700Y-968700D01*
X288700Y-968700D02*
X297300Y-960150D01*
X297300Y-960150D02*
X301550Y-947300D01*
X301550Y-947300D02*
X301550Y-870250D01*
X301550Y-870250D02*
X297300Y-857450D01*
X297300Y-857450D02*
X288700Y-848900D01*
X288700Y-848900D02*
X275900Y-844600D01*
X275900Y-844600D02*
X250200Y-844600D01*
X250200Y-844600D02*
X237350Y-848900D01*
X237350Y-848900D02*
X228800Y-857450D01*
X228800Y-857450D02*
X224550Y-870250D01*
X224550Y-870250D02*
X224550Y-947300D01*
X357850Y-1020050D02*
X357850Y-844600D01*
X357850Y-844600D02*
X409200Y-844600D01*
X409200Y-844600D02*
X422050Y-848900D01*
X422050Y-848900D02*
X430600Y-857450D01*
X430600Y-857450D02*
X434900Y-870250D01*
X434900Y-870250D02*
X434900Y-947300D01*
X434900Y-947300D02*
X430600Y-960150D01*
X430600Y-960150D02*
X422050Y-968700D01*
X422050Y-968700D02*
X409200Y-973000D01*
X409200Y-973000D02*
X357850Y-973000D01*
X568250Y-973000D02*
X516850Y-973000D01*
X516850Y-973000D02*
X504050Y-968700D01*
X504050Y-968700D02*
X495500Y-960150D01*
X495500Y-960150D02*
X491200Y-947300D01*
X491200Y-947300D02*
X491200Y-806100D01*
X491200Y-806100D02*
X495500Y-793250D01*
X495500Y-793250D02*
X504050Y-784700D01*
X504050Y-784700D02*
X516850Y-780400D01*
X516850Y-780400D02*
X568250Y-780400D01*
X624550Y-947300D02*
X628800Y-960150D01*
X628800Y-960150D02*
X637350Y-968700D01*
X637350Y-968700D02*
X650200Y-973000D01*
X650200Y-973000D02*
X675900Y-973000D01*
X675900Y-973000D02*
X688700Y-968700D01*
X688700Y-968700D02*
X697300Y-960150D01*
X697300Y-960150D02*
X701550Y-947300D01*
X701550Y-947300D02*
X701550Y-870250D01*
X701550Y-870250D02*
X697300Y-857450D01*
X697300Y-857450D02*
X688700Y-848900D01*
X688700Y-848900D02*
X675900Y-844600D01*
X675900Y-844600D02*
X650200Y-844600D01*
X650200Y-844600D02*
X637350Y-848900D01*
X637350Y-848900D02*
X628800Y-857450D01*
X628800Y-857450D02*
X624550Y-870250D01*
X624550Y-870250D02*
X624550Y-947300D01*
X757850Y-1020050D02*
X757850Y-844600D01*
X757850Y-844600D02*
X809200Y-844600D01*
X809200Y-844600D02*
X822050Y-848900D01*
X822050Y-848900D02*
X830600Y-857450D01*
X830600Y-857450D02*
X834900Y-870250D01*
X834900Y-870250D02*
X834900Y-947300D01*
X834900Y-947300D02*
X830600Y-960150D01*
X830600Y-960150D02*
X822050Y-968700D01*
X822050Y-968700D02*
X809200Y-973000D01*
X809200Y-973000D02*
X757850Y-973000D01*
X891200Y-1020050D02*
X891200Y-844600D01*
X891200Y-844600D02*
X942550Y-844600D01*
X942550Y-844600D02*
X955400Y-848900D01*
X955400Y-848900D02*
X963950Y-857450D01*
X963950Y-857450D02*
X968250Y-870250D01*
X968250Y-870250D02*
X968250Y-947300D01*
X968250Y-947300D02*
X963950Y-960150D01*
X963950Y-960150D02*
X955400Y-968700D01*
X955400Y-968700D02*
X942550Y-973000D01*
X942550Y-973000D02*
X891200Y-973000D01*
X1024550Y-908800D02*
X1101550Y-908800D01*
X1101550Y-908800D02*
X1101550Y-870250D01*
X1101550Y-870250D02*
X1097300Y-857450D01*
X1097300Y-857450D02*
X1088750Y-848900D01*
X1088750Y-848900D02*
X1075900Y-844600D01*
X1075900Y-844600D02*
X1050200Y-844600D01*
X1050200Y-844600D02*
X1037400Y-848900D01*
X1037400Y-848900D02*
X1028800Y-857450D01*
X1028800Y-857450D02*
X1024550Y-870250D01*
X1024550Y-870250D02*
X1024550Y-947300D01*
X1024550Y-947300D02*
X1028800Y-960150D01*
X1028800Y-960150D02*
X1037400Y-968700D01*
X1037400Y-968700D02*
X1050200Y-973000D01*
X1050200Y-973000D02*
X1097300Y-973000D01*
X1157850Y-973000D02*
X1157850Y-844600D01*
X1157850Y-844600D02*
X1204950Y-844600D01*
X1204950Y-844600D02*
X1217800Y-848900D01*
X1217800Y-848900D02*
X1226350Y-857450D01*
X1226350Y-857450D02*
X1230600Y-866000D01*
X1230600Y-866000D02*
X1230600Y-874550D01*
D12*

G04 Step and Repeat for panelization *
%SRX6Y10I1.141732J0.610236*%

G04 ----------------------- Draw board outline (positive)*
D14*
G04 driwing hatch*
X-601700Y-226800D02*
X-743900Y-226800D01*
X-830850Y-226850D02*
X-961050Y-226850D01*
X-601700Y-217350D02*
X-747500Y-217350D01*
X-827300Y-217350D02*
X-961050Y-217400D01*
X-961050Y-207950D02*
X-601700Y-207900D01*
X-961050Y-198450D02*
X-601700Y-198450D01*
X-961050Y-189000D02*
X-601700Y-188950D01*
X-961050Y-179550D02*
X-601700Y-179500D01*
X-961050Y-170100D02*
X-601700Y-170050D01*
X-961050Y-160650D02*
X-601700Y-160600D01*
X-961050Y-151150D02*
X-601700Y-151150D01*
X-961050Y-141700D02*
X-601700Y-141700D01*
X-961050Y-132250D02*
X-601700Y-132200D01*
X-961050Y-122800D02*
X-601700Y-122750D01*
X-961050Y-113350D02*
X-601700Y-113300D01*
X-961050Y-103900D02*
X-601700Y-103850D01*
X-961050Y-94400D02*
X-601700Y-94400D01*
X-961050Y-84950D02*
X-601700Y-84900D01*
D13*
X-601737Y-235694D02*
X-743917Y-235694D01*
X-743917Y-220974D01*
X-752864Y-212027D01*
X-821938Y-212027D01*
X-830885Y-220974D01*
X-830885Y-235694D01*
X-961081Y-235694D01*
X-961081Y-78755D01*
X-601737Y-78755D01*
X-601737Y-235694D01*
D14*
G04 driwing hatch*
X-413750Y-302400D02*
X-480450Y-302400D01*
X-413750Y-292900D02*
X-480450Y-292950D01*
X-413750Y-283450D02*
X-483900Y-283450D01*
X-413750Y-274000D02*
X-540900Y-274000D01*
X-413750Y-264550D02*
X-550350Y-264550D01*
X-413750Y-255100D02*
X-559800Y-255100D01*
X-409750Y-245650D02*
X-565000Y-245650D01*
X-400300Y-236150D02*
X-565000Y-236200D01*
X-390850Y-226700D02*
X-565000Y-226700D01*
X-381350Y-217250D02*
X-565000Y-217250D01*
X-371900Y-207800D02*
X-565000Y-207800D01*
X-362450Y-198350D02*
X-565000Y-198350D01*
X-353000Y-188850D02*
X-565000Y-188900D01*
X-343550Y-179400D02*
X-565000Y-179450D01*
X-565000Y-169950D02*
X-339500Y-169950D01*
X-565000Y-160500D02*
X-339500Y-160500D01*
X-565000Y-151050D02*
X-339500Y-151050D01*
X-565000Y-141600D02*
X-339500Y-141550D01*
X-565000Y-132150D02*
X-339500Y-132100D01*
X-565000Y-122700D02*
X-339500Y-122650D01*
X-565000Y-113200D02*
X-339500Y-113200D01*
X-565000Y-103750D02*
X-339500Y-103750D01*
X-565000Y-94300D02*
X-339500Y-94300D01*
X-565000Y-84850D02*
X-339500Y-84800D01*
D13*
X-339502Y-175379D02*
X-413792Y-249669D01*
X-413792Y-305544D01*
X-480486Y-305544D01*
X-480486Y-286932D01*
X-489433Y-277985D01*
X-536977Y-277985D01*
X-565002Y-249960D01*
X-565001Y-78755D01*
X-339502Y-78755D01*
X-339502Y-175379D01*
D14*
G04 driwing hatch*
X-291350Y-236200D02*
X-62550Y-236200D01*
X-291350Y-226750D02*
X-62550Y-226750D01*
X-291350Y-217300D02*
X-62550Y-217300D01*
X-291350Y-207850D02*
X-62550Y-207850D01*
X-291350Y-198400D02*
X-62550Y-198350D01*
X-291350Y-188950D02*
X-62550Y-188900D01*
X-291350Y-179450D02*
X-62550Y-179450D01*
X-291350Y-170000D02*
X-62550Y-170000D01*
X-291350Y-160550D02*
X-62550Y-160550D01*
X-291350Y-151100D02*
X-62550Y-151050D01*
X-291350Y-141650D02*
X-62550Y-141600D01*
X-291350Y-132200D02*
X-62550Y-132150D01*
X-291350Y-122700D02*
X-62550Y-122700D01*
X-291350Y-113250D02*
X-62550Y-113250D01*
X-291350Y-103800D02*
X-62550Y-103800D01*
X-291350Y-94350D02*
X-62550Y-94300D01*
X-291350Y-84900D02*
X-62550Y-84850D01*
D13*
X-62572Y-244906D02*
X-291351Y-244906D01*
X-291351Y-78755D01*
X-62572Y-78755D01*
X-62572Y-244906D01*

G04 -------------- Draw Parts, Pads, Traces, Vias and Text (positive)*
D15*
X-275590Y-341351D03*
X-224409Y-341351D03*
D16*
X-905511Y-290958D03*
X-118110Y-393700D03*
X-118110Y-255905D03*
D17*
X-515748Y-157480D03*
X-669291Y-157480D03*
D18*
X-625348Y-306705D03*
X-625348Y-332296D03*
X-625348Y-357887D03*
X-625348Y-383477D03*
X-444246Y-383477D03*
X-444246Y-357887D03*
X-444246Y-332296D03*
X-444246Y-306705D03*
D19*
X-534797Y-345091D03*
D20*
X-342125Y-281115D03*
X-342125Y-332296D03*
D16*
X-905511Y-118110D03*
D21*
X-374015Y-137795D03*
X-166015Y-137795D03*
D15*
X-334645Y-413385D03*
X-283464Y-413385D03*
X-787401Y-403162D03*
X-736220Y-403162D03*
X-787401Y-312611D03*
X-736220Y-312611D03*
D22*
X-787401Y-249606D03*
X-787401Y-177165D03*
D20*
X-275590Y-281115D03*
X-275590Y-229934D03*

G04 Draw traces*
D23*
X-283464Y-413385D02*
X-283501Y-389705D01*
X-283501Y-389705D02*
X-298951Y-374205D01*
X-298951Y-374205D02*
X-373055Y-374198D01*
X-373055Y-374198D02*
X-389367Y-357887D01*
X-389367Y-357887D02*
X-444246Y-357887D01*
X-283464Y-413385D02*
X-227751Y-413405D01*
X-227751Y-413405D02*
X-208051Y-393705D01*
X-208051Y-393705D02*
X-118110Y-393700D01*
X-625348Y-332296D02*
X-676245Y-332296D01*
X-676245Y-332296D02*
X-695930Y-312611D01*
X-695930Y-312611D02*
X-736220Y-312611D01*
X-736220Y-312611D02*
X-736220Y-224765D01*
X-625348Y-357887D02*
X-825210Y-357886D01*
X-825210Y-357886D02*
X-838587Y-344514D01*
X-838587Y-344514D02*
X-838601Y-304355D01*
X-838601Y-304355D02*
X-852001Y-291005D01*
X-852001Y-291005D02*
X-905511Y-290958D01*
X-787401Y-403162D02*
X-822508Y-403162D01*
D24*
X-822508Y-403162D03*
D25*
X-275590Y-281115D02*
X-309325Y-281115D01*
D24*
X-309325Y-281115D03*
D25*
X-309325Y-281115D02*
X-342125Y-281115D01*
D23*
X-334645Y-413385D02*
X-372984Y-413385D01*
X-372984Y-413385D02*
X-402892Y-383477D01*
X-402892Y-383477D02*
X-444246Y-383477D01*
X-625348Y-306705D02*
X-643031Y-306706D01*
X-643031Y-306706D02*
X-643031Y-278951D01*
D24*
X-643031Y-278951D03*
D23*
X-625348Y-306705D02*
X-607632Y-306705D01*
X-607632Y-306705D02*
X-607632Y-278951D01*
D24*
X-607632Y-278951D03*
D23*
X-787401Y-249606D02*
X-787401Y-282228D01*
D24*
X-787401Y-282228D03*
D23*
X-787401Y-282228D02*
X-787401Y-312611D01*
X-534797Y-345091D02*
X-534797Y-383477D01*
X-534797Y-383477D02*
X-444246Y-383477D01*
X-342125Y-332296D02*
X-444246Y-332296D01*
X-342125Y-332296D02*
X-333070Y-341351D01*
X-333070Y-341351D02*
X-275590Y-341351D01*
X-736220Y-403162D02*
X-704617Y-403162D01*
X-704617Y-403162D02*
X-684932Y-383477D01*
X-684932Y-383477D02*
X-625348Y-383477D01*
X-118110Y-255905D02*
X-118110Y-205584D01*
X-224409Y-341351D02*
X-224409Y-242708D01*
X-444246Y-306705D02*
X-448183Y-280077D01*

G04 Draw Text*
D12*

G04 EOF Step and Repeat for panelization *
%SR*%
M02*
