G04 FreePCB MFC Application*
G04 Version: ѕлат‘орм 2.427*
G04 Author: niconson.com *
G04 WebSite: https://niconson.com/freepcb2 *
G04 Repositories: https://github.com/niconson *
G04 D:\Works\ѕлат‘орм на русском\Projects\Led\version-01\(wERRORS)CAM(Driver-01)(9-18-2025)\Driver-01.TML.gbr*

G04 Objects of panelization *
G04 вид верх layer *
G04 Scale: 100 percent, Rotated: No, Reflected: No *
%FSLAX26Y26*%
%MOIN*%
G04 вид верх *
G04 Rounded Rectangle Macro, params: W/2, H/2, R *
%AMRNDREC*
21,1,$1+$1,$2+$2-$3-$3,0,0,0*
21,1,$1+$1-$3-$3,$2+$2,0,0,0*
1,1,$3+$3,$1-$3,$2-$3*
1,1,$3+$3,$3-$1,$2-$3*
1,1,$3+$3,$1-$3,$3-$2*
1,1,$3+$3,$3-$1,$3-$2*%
G04 Rectangular Thermal Macro, params: W/4, H/4, TW/4, TC/4 *
%AMRECTHERM*
21,1,$1+$1-$3-$3-$4-$4,$2+$2-$3-$3-$4-$4-$4-$4,0-$1-$3-$4,0-$2-$3,0*
21,1,$1+$1-$3-$3-$4-$4-$4-$4,$2+$2-$3-$3-$4-$4,0-$1-$3,0-$2-$3-$4,0*
1,1,$4+$4+$4+$4,0-$1-$1+$4+$4,0-$2-$2+$4+$4*
1,1,$4+$4+$4+$4,0-$1-$1+$4+$4,0-$3-$3-$4-$4*
1,1,$4+$4+$4+$4,0-$3-$3-$4-$4,0-$2-$2+$4+$4*
21,1,$1+$1-$3-$3-$4-$4,$2+$2-$3-$3-$4-$4-$4-$4,0-$1-$3-$4,$2+$3,0*
21,1,$1+$1-$3-$3-$4-$4-$4-$4,$2+$2-$3-$3-$4-$4,0-$1-$3,$2+$3+$4,0*
1,1,$4+$4+$4+$4,0-$1-$1+$4+$4,$2+$2-$4-$4*
1,1,$4+$4+$4+$4,0-$1-$1+$4+$4,$3+$3+$4+$4*
1,1,$4+$4+$4+$4,0-$3-$3-$4-$4,$2+$2-$4-$4*
21,1,$1+$1-$3-$3-$4-$4,$2+$2-$3-$3-$4-$4-$4-$4,$1+$3+$4,0-$2-$3,0*
21,1,$1+$1-$3-$3-$4-$4-$4-$4,$2+$2-$3-$3-$4-$4,$1+$3,0-$2-$3-$4,0*
1,1,$4+$4+$4+$4,$1+$1-$4-$4,0-$2-$2+$4+$4*
1,1,$4+$4+$4+$4,$1+$1-$4-$4,0-$3-$3-$4-$4*
1,1,$4+$4+$4+$4,$3+$3+$4+$4,0-$2-$2+$4+$4*
21,1,$1+$1-$3-$3-$4-$4,$2+$2-$3-$3-$4-$4-$4-$4,$1+$3+$4,$2+$3,0*
21,1,$1+$1-$3-$3-$4-$4-$4-$4,$2+$2-$3-$3-$4-$4,$1+$3,$2+$3+$4,0*
1,1,$4+$4+$4+$4,$1+$1-$4-$4,$2+$2-$4-$4*
1,1,$4+$4+$4+$4,$1+$1-$4-$4,$3+$3+$4+$4*
1,1,$4+$4+$4+$4,$3+$3+$4+$4,$2+$2-$4-$4*%
%AMRECTHERM_45*
21,1,$1+$1+$1+$1,$2+$2+$2+$2-$4-$4-$4-$4-$4-$4-$4-$4-$4-$4-$3-$3,0,0,0*
21,1,$1+$1+$1+$1-$4-$4-$4-$4-$4-$4-$4-$4-$4-$4-$3-$3,$2+$2+$2+$2,0,0,0*
1,1,$4+$4+$4+$4,$1+$1-$4-$4,$2+$2-$4-$4-$4-$4-$4-$3*
1,1,$4+$4+$4+$4,$1+$1-$4-$4,0-$2-$2+$4+$4+$4+$4+$4+$3*
1,1,$4+$4+$4+$4,$1+$1-$4-$4-$4-$4-$4-$3,$2+$2-$4-$4*
1,1,$4+$4+$4+$4,0-$1-$1+$4+$4+$4+$4+$4+$3,$2+$2-$4-$4*
1,1,$4+$4+$4+$4,0-$1-$1+$4+$4,$2+$2-$4-$4-$4-$4-$4-$3*
1,1,$4+$4+$4+$4,0-$1-$1+$4+$4,0-$2-$2+$4+$4+$4+$4+$4+$3*
1,1,$4+$4+$4+$4,$1+$1-$4-$4-$4-$4-$4-$3,0-$2-$2+$4+$4*
1,1,$4+$4+$4+$4,0-$1-$1+$4+$4+$4+$4+$4+$3,0-$2-$2+$4+$4*%
%ADD10R,0.118110X0.118110*%
%ADD11C,0.056243*%
%ADD12C,0.010000*%
%ADD13R,0.035433X0.031496*%
%ADD14RNDREC,0.039370X0.039370X0.015748*%
%ADD15R,0.098425X0.157480*%
%ADD16R,0.062992X0.017717*%
%ADD17R,0.072835X0.098425*%
%ADD18C,0.019685*%
%ADD19R,0.031496X0.035433*%
%ADD20RNDREC,0.039000X0.047500X0.012000*%
%ADD21RNDREC,0.025591X0.019685X0.000000*%
%ADD22C,0.009000*%
G01*
G04 begin color: clBlack*
%LPD*%

G04 Objects of panelization *
D10*
X-590551Y-846456D03*
X5275590Y5846456D03*
X-590551Y5846456D03*
X5275590Y-846456D03*
D11*
X-196850Y-947300D02*
X-192550Y-960150D01*
X-192550Y-960150D02*
X-184000Y-968700D01*
X-184000Y-968700D02*
X-171150Y-973000D01*
X-171150Y-973000D02*
X-132650Y-973000D01*
X-132650Y-973000D02*
X-119800Y-968700D01*
X-119800Y-968700D02*
X-111250Y-960150D01*
X-111250Y-960150D02*
X-106950Y-947300D01*
X-106950Y-947300D02*
X-106950Y-806100D01*
X-106950Y-806100D02*
X-111250Y-793250D01*
X-111250Y-793250D02*
X-119800Y-784700D01*
X-119800Y-784700D02*
X-132650Y-780400D01*
X-132650Y-780400D02*
X-171150Y-780400D01*
X-171150Y-780400D02*
X-184000Y-784700D01*
X-184000Y-784700D02*
X-192550Y-793250D01*
X-192550Y-793250D02*
X-196850Y-806100D01*
X-196850Y-806100D02*
X-196850Y-947300D01*
X-50650Y-973000D02*
X-50650Y-844600D01*
X-50650Y-844600D02*
X650Y-844600D01*
X650Y-844600D02*
X13500Y-848900D01*
X13500Y-848900D02*
X22050Y-857450D01*
X22050Y-857450D02*
X26350Y-870250D01*
X26350Y-870250D02*
X26350Y-973000D01*
X125450Y-973000D02*
X125450Y-780400D01*
X82650Y-780400D02*
X168200Y-780400D01*
X224550Y-947300D02*
X228800Y-960150D01*
X228800Y-960150D02*
X237350Y-968700D01*
X237350Y-968700D02*
X250200Y-973000D01*
X250200Y-973000D02*
X275900Y-973000D01*
X275900Y-973000D02*
X288700Y-968700D01*
X288700Y-968700D02*
X297300Y-960150D01*
X297300Y-960150D02*
X301550Y-947300D01*
X301550Y-947300D02*
X301550Y-870250D01*
X301550Y-870250D02*
X297300Y-857450D01*
X297300Y-857450D02*
X288700Y-848900D01*
X288700Y-848900D02*
X275900Y-844600D01*
X275900Y-844600D02*
X250200Y-844600D01*
X250200Y-844600D02*
X237350Y-848900D01*
X237350Y-848900D02*
X228800Y-857450D01*
X228800Y-857450D02*
X224550Y-870250D01*
X224550Y-870250D02*
X224550Y-947300D01*
X357850Y-1020050D02*
X357850Y-844600D01*
X357850Y-844600D02*
X409200Y-844600D01*
X409200Y-844600D02*
X422050Y-848900D01*
X422050Y-848900D02*
X430600Y-857450D01*
X430600Y-857450D02*
X434900Y-870250D01*
X434900Y-870250D02*
X434900Y-947300D01*
X434900Y-947300D02*
X430600Y-960150D01*
X430600Y-960150D02*
X422050Y-968700D01*
X422050Y-968700D02*
X409200Y-973000D01*
X409200Y-973000D02*
X357850Y-973000D01*
X568250Y-973000D02*
X516850Y-973000D01*
X516850Y-973000D02*
X504050Y-968700D01*
X504050Y-968700D02*
X495500Y-960150D01*
X495500Y-960150D02*
X491200Y-947300D01*
X491200Y-947300D02*
X491200Y-806100D01*
X491200Y-806100D02*
X495500Y-793250D01*
X495500Y-793250D02*
X504050Y-784700D01*
X504050Y-784700D02*
X516850Y-780400D01*
X516850Y-780400D02*
X568250Y-780400D01*
X624550Y-947300D02*
X628800Y-960150D01*
X628800Y-960150D02*
X637350Y-968700D01*
X637350Y-968700D02*
X650200Y-973000D01*
X650200Y-973000D02*
X675900Y-973000D01*
X675900Y-973000D02*
X688700Y-968700D01*
X688700Y-968700D02*
X697300Y-960150D01*
X697300Y-960150D02*
X701550Y-947300D01*
X701550Y-947300D02*
X701550Y-870250D01*
X701550Y-870250D02*
X697300Y-857450D01*
X697300Y-857450D02*
X688700Y-848900D01*
X688700Y-848900D02*
X675900Y-844600D01*
X675900Y-844600D02*
X650200Y-844600D01*
X650200Y-844600D02*
X637350Y-848900D01*
X637350Y-848900D02*
X628800Y-857450D01*
X628800Y-857450D02*
X624550Y-870250D01*
X624550Y-870250D02*
X624550Y-947300D01*
X757850Y-1020050D02*
X757850Y-844600D01*
X757850Y-844600D02*
X809200Y-844600D01*
X809200Y-844600D02*
X822050Y-848900D01*
X822050Y-848900D02*
X830600Y-857450D01*
X830600Y-857450D02*
X834900Y-870250D01*
X834900Y-870250D02*
X834900Y-947300D01*
X834900Y-947300D02*
X830600Y-960150D01*
X830600Y-960150D02*
X822050Y-968700D01*
X822050Y-968700D02*
X809200Y-973000D01*
X809200Y-973000D02*
X757850Y-973000D01*
X891200Y-1020050D02*
X891200Y-844600D01*
X891200Y-844600D02*
X942550Y-844600D01*
X942550Y-844600D02*
X955400Y-848900D01*
X955400Y-848900D02*
X963950Y-857450D01*
X963950Y-857450D02*
X968250Y-870250D01*
X968250Y-870250D02*
X968250Y-947300D01*
X968250Y-947300D02*
X963950Y-960150D01*
X963950Y-960150D02*
X955400Y-968700D01*
X955400Y-968700D02*
X942550Y-973000D01*
X942550Y-973000D02*
X891200Y-973000D01*
X1024550Y-908800D02*
X1101550Y-908800D01*
X1101550Y-908800D02*
X1101550Y-870250D01*
X1101550Y-870250D02*
X1097300Y-857450D01*
X1097300Y-857450D02*
X1088750Y-848900D01*
X1088750Y-848900D02*
X1075900Y-844600D01*
X1075900Y-844600D02*
X1050200Y-844600D01*
X1050200Y-844600D02*
X1037400Y-848900D01*
X1037400Y-848900D02*
X1028800Y-857450D01*
X1028800Y-857450D02*
X1024550Y-870250D01*
X1024550Y-870250D02*
X1024550Y-947300D01*
X1024550Y-947300D02*
X1028800Y-960150D01*
X1028800Y-960150D02*
X1037400Y-968700D01*
X1037400Y-968700D02*
X1050200Y-973000D01*
X1050200Y-973000D02*
X1097300Y-973000D01*
X1157850Y-973000D02*
X1157850Y-844600D01*
X1157850Y-844600D02*
X1204950Y-844600D01*
X1204950Y-844600D02*
X1217800Y-848900D01*
X1217800Y-848900D02*
X1226350Y-857450D01*
X1226350Y-857450D02*
X1230600Y-866000D01*
X1230600Y-866000D02*
X1230600Y-874550D01*
D12*

G04 Step and Repeat for panelization *
%SRX6Y10I1.141732J0.610236*%

G04 ----------------------- Draw board outline (positive)*

G04 -------------- Draw Parts, Pads, Traces, Vias and Text (positive)*
D13*
X-275590Y-341351D03*
X-224409Y-341351D03*
D14*
X-905511Y-290958D03*
X-118110Y-393700D03*
X-118110Y-255905D03*
D15*
X-515748Y-157480D03*
X-669291Y-157480D03*
D16*
X-625348Y-306705D03*
X-625348Y-332296D03*
X-625348Y-357887D03*
X-625348Y-383477D03*
X-444246Y-383477D03*
X-444246Y-357887D03*
X-444246Y-332296D03*
X-444246Y-306705D03*
D17*
X-534797Y-345091D03*
D18*
X-515112Y-376587D03*
X-554482Y-376587D03*
D19*
X-342125Y-281115D03*
X-342125Y-332296D03*
D14*
X-905511Y-118110D03*
D20*
X-374015Y-137795D03*
X-166015Y-137795D03*
D13*
X-334645Y-413385D03*
X-283464Y-413385D03*
X-787401Y-403162D03*
X-736220Y-403162D03*
X-787401Y-312611D03*
X-736220Y-312611D03*
D21*
X-787401Y-249606D03*
X-787401Y-177165D03*
D19*
X-275590Y-281115D03*
X-275590Y-229934D03*

G04 Draw traces*

G04 Draw Text*
D22*

G04 Draw polyline*
X-940900Y-232050D02*
X-870050Y-232050D01*
X-940900Y-224050D02*
X-870050Y-224050D01*
D12*
X-940944Y-216535D02*
X-940944Y-236220D01*
X-870078Y-236220D01*
X-870078Y-216535D01*
X-940944Y-216535D01*

G04 EOF Step and Repeat for panelization *
%SR*%
M02*
