G04 FreePCB MFC Application*
G04 Version: ѕлат‘орм 2.427*
G04 Author: niconson.com *
G04 WebSite: https://niconson.com/freepcb2 *
G04 Repositories: https://github.com/niconson *
G04 D:\Works\ѕлат‘орм на русском\Projects\Led\version-01\CAM(Driver-01)(11-20-2025)\Driver-01.TOP.gbr*

G04 Objects of panelization *
G04 медь верх layer *
G04 Scale: 100 percent, Rotated: No, Reflected: No *
%FSLAX26Y26*%
%MOIN*%
G04 медь верх *
G04 Rounded Rectangle Macro, params: W/2, H/2, R *
%AMRNDREC*
21,1,$1+$1,$2+$2-$3-$3,0,0,0*
21,1,$1+$1-$3-$3,$2+$2,0,0,0*
1,1,$3+$3,$1-$3,$2-$3*
1,1,$3+$3,$3-$1,$2-$3*
1,1,$3+$3,$1-$3,$3-$2*
1,1,$3+$3,$3-$1,$3-$2*%
G04 Rectangular Thermal Macro, params: W/4, H/4, TW/4, TC/4 *
%AMRECTHERM*
21,1,$1+$1-$3-$3-$4-$4,$2+$2-$3-$3-$4-$4-$4-$4,0-$1-$3-$4,0-$2-$3,0*
21,1,$1+$1-$3-$3-$4-$4-$4-$4,$2+$2-$3-$3-$4-$4,0-$1-$3,0-$2-$3-$4,0*
1,1,$4+$4+$4+$4,0-$1-$1+$4+$4,0-$2-$2+$4+$4*
1,1,$4+$4+$4+$4,0-$1-$1+$4+$4,0-$3-$3-$4-$4*
1,1,$4+$4+$4+$4,0-$3-$3-$4-$4,0-$2-$2+$4+$4*
21,1,$1+$1-$3-$3-$4-$4,$2+$2-$3-$3-$4-$4-$4-$4,0-$1-$3-$4,$2+$3,0*
21,1,$1+$1-$3-$3-$4-$4-$4-$4,$2+$2-$3-$3-$4-$4,0-$1-$3,$2+$3+$4,0*
1,1,$4+$4+$4+$4,0-$1-$1+$4+$4,$2+$2-$4-$4*
1,1,$4+$4+$4+$4,0-$1-$1+$4+$4,$3+$3+$4+$4*
1,1,$4+$4+$4+$4,0-$3-$3-$4-$4,$2+$2-$4-$4*
21,1,$1+$1-$3-$3-$4-$4,$2+$2-$3-$3-$4-$4-$4-$4,$1+$3+$4,0-$2-$3,0*
21,1,$1+$1-$3-$3-$4-$4-$4-$4,$2+$2-$3-$3-$4-$4,$1+$3,0-$2-$3-$4,0*
1,1,$4+$4+$4+$4,$1+$1-$4-$4,0-$2-$2+$4+$4*
1,1,$4+$4+$4+$4,$1+$1-$4-$4,0-$3-$3-$4-$4*
1,1,$4+$4+$4+$4,$3+$3+$4+$4,0-$2-$2+$4+$4*
21,1,$1+$1-$3-$3-$4-$4,$2+$2-$3-$3-$4-$4-$4-$4,$1+$3+$4,$2+$3,0*
21,1,$1+$1-$3-$3-$4-$4-$4-$4,$2+$2-$3-$3-$4-$4,$1+$3,$2+$3+$4,0*
1,1,$4+$4+$4+$4,$1+$1-$4-$4,$2+$2-$4-$4*
1,1,$4+$4+$4+$4,$1+$1-$4-$4,$3+$3+$4+$4*
1,1,$4+$4+$4+$4,$3+$3+$4+$4,$2+$2-$4-$4*%
%AMRECTHERM_45*
21,1,$1+$1+$1+$1,$2+$2+$2+$2-$4-$4-$4-$4-$4-$4-$4-$4-$4-$4-$3-$3,0,0,0*
21,1,$1+$1+$1+$1-$4-$4-$4-$4-$4-$4-$4-$4-$4-$4-$3-$3,$2+$2+$2+$2,0,0,0*
1,1,$4+$4+$4+$4,$1+$1-$4-$4,$2+$2-$4-$4-$4-$4-$4-$3*
1,1,$4+$4+$4+$4,$1+$1-$4-$4,0-$2-$2+$4+$4+$4+$4+$4+$3*
1,1,$4+$4+$4+$4,$1+$1-$4-$4-$4-$4-$4-$3,$2+$2-$4-$4*
1,1,$4+$4+$4+$4,0-$1-$1+$4+$4+$4+$4+$4+$3,$2+$2-$4-$4*
1,1,$4+$4+$4+$4,0-$1-$1+$4+$4,$2+$2-$4-$4-$4-$4-$4-$3*
1,1,$4+$4+$4+$4,0-$1-$1+$4+$4,0-$2-$2+$4+$4+$4+$4+$4+$3*
1,1,$4+$4+$4+$4,$1+$1-$4-$4-$4-$4-$4-$3,0-$2-$2+$4+$4*
1,1,$4+$4+$4+$4,0-$1-$1+$4+$4+$4+$4+$4+$3,0-$2-$2+$4+$4*%
%ADD10R,0.039370X0.039370*%
%ADD11C,0.011249*%
%ADD12C,0.010000*%
%ADD13C,0.011811*%
%ADD14C,0.010630*%
%ADD15R,0.035433X0.031496*%
%ADD16O,0.118110X0.078740*%
%ADD17R,0.098425X0.157480*%
%ADD18C,0.039370*%
%ADD19R,0.062992X0.017717*%
%ADD20R,0.072835X0.098425*%
%ADD21R,0.031496X0.035433*%
%ADD22RNDREC,0.039000X0.047500X0.012000*%
%ADD23RNDREC,0.025591X0.019685X0.000000*%
%ADD24C,0.015748*%
%ADD25C,0.031500*%
G01*
G04 begin color: clBlack*
%LPD*%

G04 Objects of panelization *
D10*
X-314960Y-364173D03*
X2204724Y2844488D03*
X-314960Y2844488D03*
X2204724Y-364173D03*
D11*
X-157450Y-404500D02*
X-155750Y-409650D01*
X-155750Y-409650D02*
X-152300Y-413050D01*
X-152300Y-413050D02*
X-147200Y-414750D01*
X-147200Y-414750D02*
X-131800Y-414750D01*
X-131800Y-414750D02*
X-126650Y-413050D01*
X-126650Y-413050D02*
X-123200Y-409650D01*
X-123200Y-409650D02*
X-121500Y-404500D01*
X-121500Y-404500D02*
X-121500Y-348000D01*
X-121500Y-348000D02*
X-123200Y-342850D01*
X-123200Y-342850D02*
X-126650Y-339450D01*
X-126650Y-339450D02*
X-131800Y-337750D01*
X-131800Y-337750D02*
X-147200Y-337750D01*
X-147200Y-337750D02*
X-152300Y-339450D01*
X-152300Y-339450D02*
X-155750Y-342850D01*
X-155750Y-342850D02*
X-157450Y-348000D01*
X-157450Y-348000D02*
X-157450Y-404500D01*
X-99000Y-414750D02*
X-99000Y-363400D01*
X-99000Y-363400D02*
X-78450Y-363400D01*
X-78450Y-363400D02*
X-73300Y-365150D01*
X-73300Y-365150D02*
X-69900Y-368550D01*
X-69900Y-368550D02*
X-68150Y-373700D01*
X-68150Y-373700D02*
X-68150Y-414750D01*
X-28550Y-414750D02*
X-28550Y-337750D01*
X-45650Y-337750D02*
X-11400Y-337750D01*
X11050Y-404500D02*
X12750Y-409650D01*
X12750Y-409650D02*
X16200Y-413050D01*
X16200Y-413050D02*
X21350Y-414750D01*
X21350Y-414750D02*
X31600Y-414750D01*
X31600Y-414750D02*
X36750Y-413050D01*
X36750Y-413050D02*
X40150Y-409650D01*
X40150Y-409650D02*
X41850Y-404500D01*
X41850Y-404500D02*
X41850Y-373700D01*
X41850Y-373700D02*
X40150Y-368550D01*
X40150Y-368550D02*
X36750Y-365150D01*
X36750Y-365150D02*
X31600Y-363400D01*
X31600Y-363400D02*
X21350Y-363400D01*
X21350Y-363400D02*
X16200Y-365150D01*
X16200Y-365150D02*
X12750Y-368550D01*
X12750Y-368550D02*
X11050Y-373700D01*
X11050Y-373700D02*
X11050Y-404500D01*
X64400Y-433600D02*
X64400Y-363400D01*
X64400Y-363400D02*
X84950Y-363400D01*
X84950Y-363400D02*
X90050Y-365150D01*
X90050Y-365150D02*
X93500Y-368550D01*
X93500Y-368550D02*
X95200Y-373700D01*
X95200Y-373700D02*
X95200Y-404500D01*
X95200Y-404500D02*
X93500Y-409650D01*
X93500Y-409650D02*
X90050Y-413050D01*
X90050Y-413050D02*
X84950Y-414750D01*
X84950Y-414750D02*
X64400Y-414750D01*
X148550Y-414750D02*
X128000Y-414750D01*
X128000Y-414750D02*
X122850Y-413050D01*
X122850Y-413050D02*
X119450Y-409650D01*
X119450Y-409650D02*
X117700Y-404500D01*
X117700Y-404500D02*
X117700Y-348000D01*
X117700Y-348000D02*
X119450Y-342850D01*
X119450Y-342850D02*
X122850Y-339450D01*
X122850Y-339450D02*
X128000Y-337750D01*
X128000Y-337750D02*
X148550Y-337750D01*
X171050Y-404500D02*
X172750Y-409650D01*
X172750Y-409650D02*
X176200Y-413050D01*
X176200Y-413050D02*
X181350Y-414750D01*
X181350Y-414750D02*
X191600Y-414750D01*
X191600Y-414750D02*
X196750Y-413050D01*
X196750Y-413050D02*
X200150Y-409650D01*
X200150Y-409650D02*
X201850Y-404500D01*
X201850Y-404500D02*
X201850Y-373700D01*
X201850Y-373700D02*
X200150Y-368550D01*
X200150Y-368550D02*
X196750Y-365150D01*
X196750Y-365150D02*
X191600Y-363400D01*
X191600Y-363400D02*
X181350Y-363400D01*
X181350Y-363400D02*
X176200Y-365150D01*
X176200Y-365150D02*
X172750Y-368550D01*
X172750Y-368550D02*
X171050Y-373700D01*
X171050Y-373700D02*
X171050Y-404500D01*
X224400Y-433600D02*
X224400Y-363400D01*
X224400Y-363400D02*
X244950Y-363400D01*
X244950Y-363400D02*
X250050Y-365150D01*
X250050Y-365150D02*
X253500Y-368550D01*
X253500Y-368550D02*
X255200Y-373700D01*
X255200Y-373700D02*
X255200Y-404500D01*
X255200Y-404500D02*
X253500Y-409650D01*
X253500Y-409650D02*
X250050Y-413050D01*
X250050Y-413050D02*
X244950Y-414750D01*
X244950Y-414750D02*
X224400Y-414750D01*
X277750Y-433600D02*
X277750Y-363400D01*
X277750Y-363400D02*
X298250Y-363400D01*
X298250Y-363400D02*
X303400Y-365150D01*
X303400Y-365150D02*
X306850Y-368550D01*
X306850Y-368550D02*
X308550Y-373700D01*
X308550Y-373700D02*
X308550Y-404500D01*
X308550Y-404500D02*
X306850Y-409650D01*
X306850Y-409650D02*
X303400Y-413050D01*
X303400Y-413050D02*
X298250Y-414750D01*
X298250Y-414750D02*
X277750Y-414750D01*
X331050Y-389100D02*
X361850Y-389100D01*
X361850Y-389100D02*
X361850Y-373700D01*
X361850Y-373700D02*
X360150Y-368550D01*
X360150Y-368550D02*
X356750Y-365150D01*
X356750Y-365150D02*
X351600Y-363400D01*
X351600Y-363400D02*
X341350Y-363400D01*
X341350Y-363400D02*
X336200Y-365150D01*
X336200Y-365150D02*
X332750Y-368550D01*
X332750Y-368550D02*
X331050Y-373700D01*
X331050Y-373700D02*
X331050Y-404500D01*
X331050Y-404500D02*
X332750Y-409650D01*
X332750Y-409650D02*
X336200Y-413050D01*
X336200Y-413050D02*
X341350Y-414750D01*
X341350Y-414750D02*
X360150Y-414750D01*
X384400Y-414750D02*
X384400Y-363400D01*
X384400Y-363400D02*
X403200Y-363400D01*
X403200Y-363400D02*
X408350Y-365150D01*
X408350Y-365150D02*
X411800Y-368550D01*
X411800Y-368550D02*
X413500Y-371950D01*
X413500Y-371950D02*
X413500Y-375400D01*
D12*

G04 Step and Repeat for panelization *
%SRX3Y7I0.944882J0.413386*%

G04 ----------------------- Draw board outline (positive)*
D14*
G04 driwing hatch*
X-89900Y18850D02*
X-232100Y18850D01*
X-319050Y18850D02*
X-449250Y18850D01*
X-89900Y28350D02*
X-235350Y28300D01*
X-315800Y28300D02*
X-449250Y28300D01*
X-449250Y37750D02*
X-89900Y37800D01*
X-449250Y47200D02*
X-89900Y47250D01*
X-449250Y56650D02*
X-89900Y56700D01*
X-449250Y66150D02*
X-89900Y66150D01*
X-449250Y75600D02*
X-89900Y75650D01*
X-449250Y85050D02*
X-89900Y85100D01*
X-449250Y94500D02*
X-89900Y94550D01*
X-449250Y103950D02*
X-89900Y104000D01*
X-449250Y113450D02*
X-89900Y113450D01*
X-449250Y122900D02*
X-89900Y122900D01*
X-449250Y132350D02*
X-89900Y132400D01*
X-449250Y141800D02*
X-89900Y141850D01*
X-449250Y151250D02*
X-89900Y151300D01*
X-449250Y160700D02*
X-89900Y160750D01*
D13*
X-89925Y10368D02*
X-232106Y10368D01*
X-232106Y25088D01*
X-241053Y34035D01*
X-310127Y34035D01*
X-319074Y25088D01*
X-319074Y10368D01*
X-449270Y10368D01*
X-449270Y167307D01*
X-89925Y167307D01*
X-89925Y10368D01*
D14*
G04 driwing hatch*
X98000Y-56650D02*
X31300Y-56650D01*
X98000Y-47200D02*
X31300Y-47200D01*
X98000Y-37750D02*
X28200Y-37750D01*
X98000Y-28300D02*
X-28750Y-28300D01*
X98000Y-18800D02*
X-38200Y-18850D01*
X98000Y-9350D02*
X-47650Y-9400D01*
X101650Y50D02*
X-53150Y50D01*
X111150Y9500D02*
X-53150Y9500D01*
X120600Y18950D02*
X-53150Y18950D01*
X130050Y28400D02*
X-53150Y28400D01*
X139500Y37900D02*
X-53150Y37850D01*
X148950Y47350D02*
X-53150Y47300D01*
X158450Y56800D02*
X-53150Y56800D01*
X167900Y66250D02*
X-53150Y66250D01*
X-53150Y75700D02*
X172300Y75700D01*
X-53150Y85150D02*
X172300Y85200D01*
X-53150Y94600D02*
X172300Y94650D01*
X-53150Y104100D02*
X172300Y104100D01*
X-53150Y113550D02*
X172300Y113550D01*
X-53150Y123000D02*
X172300Y123000D01*
X-53150Y132450D02*
X172300Y132500D01*
X-53150Y141900D02*
X172300Y141950D01*
X-53150Y151350D02*
X172300Y151400D01*
X-53150Y160850D02*
X172300Y160850D01*
D13*
X172308Y70683D02*
X98018Y-3606D01*
X98018Y-59481D01*
X31324Y-59481D01*
X31324Y-40869D01*
X22377Y-31922D01*
X-25166Y-31922D01*
X-53190Y-3897D01*
X-53190Y167307D01*
X172308Y167307D01*
X172308Y70683D01*
D14*
G04 driwing hatch*
X220450Y9450D02*
X449200Y9500D01*
X220450Y18900D02*
X449200Y18950D01*
X220450Y28350D02*
X449200Y28400D01*
X220450Y37850D02*
X449200Y37850D01*
X220450Y47300D02*
X449200Y47300D01*
X220450Y56750D02*
X449200Y56750D01*
X220450Y66200D02*
X449200Y66250D01*
X220450Y75650D02*
X449200Y75700D01*
X220450Y85150D02*
X449200Y85150D01*
X220450Y94600D02*
X449200Y94600D01*
X220450Y104050D02*
X449200Y104050D01*
X220450Y113500D02*
X449200Y113550D01*
X220450Y122950D02*
X449200Y123000D01*
X220450Y132400D02*
X449200Y132450D01*
X220450Y141900D02*
X449200Y141900D01*
X220450Y151350D02*
X449200Y151350D01*
X220450Y160800D02*
X449200Y160800D01*
D13*
X449238Y1156D02*
X220459Y1156D01*
X220459Y167307D01*
X449238Y167307D01*
X449238Y1156D01*

G04 -------------- Draw Parts, Pads, Traces, Vias and Text (positive)*
D15*
X236220Y-95288D03*
X287401Y-95288D03*
D16*
X-393700Y-44894D03*
X393700Y-147637D03*
X393700Y-9842D03*
D17*
X-3937Y88582D03*
X-157480Y88582D03*
D18*
X7874Y49212D03*
X7874Y127952D03*
X-169291Y49212D03*
X-169291Y127952D03*
D19*
X-113537Y-60642D03*
X-113537Y-86233D03*
X-113537Y-111824D03*
X-113537Y-137414D03*
X67564Y-137414D03*
X67564Y-111824D03*
X67564Y-86233D03*
X67564Y-60642D03*
D20*
X-22986Y-99028D03*
D21*
X169685Y-35052D03*
X169685Y-86233D03*
D16*
X-393700Y127952D03*
D22*
X137795Y108267D03*
X345795Y108267D03*
D15*
X177165Y-167322D03*
X228346Y-167322D03*
X-275590Y-157099D03*
X-224409Y-157099D03*
X-275590Y-66548D03*
X-224409Y-66548D03*
D23*
X-275590Y-3543D03*
X-275590Y68897D03*
D21*
X236220Y-35052D03*
X236220Y16128D03*

G04 Draw traces*
D24*
X-113537Y-86233D02*
X-164434Y-86233D01*
X-164434Y-86233D02*
X-184119Y-66548D01*
X-184119Y-66548D02*
X-224409Y-66548D01*
X-224409Y-66548D02*
X-224409Y21297D01*
X228346Y-167322D02*
X228309Y-143642D01*
X228309Y-143642D02*
X212859Y-128142D01*
X212859Y-128142D02*
X138755Y-128135D01*
X138755Y-128135D02*
X122443Y-111824D01*
X122443Y-111824D02*
X67564Y-111824D01*
X228346Y-167322D02*
X284059Y-167342D01*
X284059Y-167342D02*
X303759Y-147642D01*
X303759Y-147642D02*
X393700Y-147637D01*
X-113537Y-111824D02*
X-313399Y-111823D01*
X-313399Y-111823D02*
X-326776Y-98451D01*
X-326776Y-98451D02*
X-326790Y-58292D01*
X-326790Y-58292D02*
X-340190Y-44942D01*
X-340190Y-44942D02*
X-393700Y-44894D01*
X393700Y-9842D02*
X393700Y40478D01*
X287401Y-95288D02*
X287401Y3354D01*
X-275590Y-157099D02*
X-310697Y-157099D01*
D18*
X-310697Y-157099D03*
D25*
X236220Y-35052D02*
X202485Y-35052D01*
D18*
X202485Y-35052D03*
D25*
X202485Y-35052D02*
X169685Y-35052D01*
D24*
X177165Y-167322D02*
X138826Y-167322D01*
X138826Y-167322D02*
X108918Y-137414D01*
X108918Y-137414D02*
X67564Y-137414D01*
X-113537Y-60642D02*
X-131220Y-60643D01*
X-131220Y-60643D02*
X-131220Y-32888D01*
D18*
X-131220Y-32888D03*
D24*
X-113537Y-60642D02*
X-95821Y-60642D01*
X-95821Y-60642D02*
X-95821Y-32888D01*
D18*
X-95821Y-32888D03*
D24*
X-275590Y-3543D02*
X-275590Y-36165D01*
D18*
X-275590Y-36165D03*
D24*
X-275590Y-36165D02*
X-275590Y-66548D01*
X-22986Y-99028D02*
X-22986Y-137414D01*
X-22986Y-137414D02*
X67564Y-137414D01*
X169685Y-86233D02*
X67564Y-86233D01*
X169685Y-86233D02*
X178740Y-95288D01*
X178740Y-95288D02*
X236220Y-95288D01*
X-224409Y-157099D02*
X-192806Y-157099D01*
X-192806Y-157099D02*
X-173121Y-137414D01*
X-173121Y-137414D02*
X-113537Y-137414D01*
X67564Y-60642D02*
X63627Y-34014D01*

G04 Draw Text*
D12*

G04 EOF Step and Repeat for panelization *
%SR*%
M02*
