G04 FreePCB MFC Application*
G04 Version: ѕлат‘орм 2.427*
G04 Author: niconson.com *
G04 WebSite: https://niconson.com/freepcb2 *
G04 Repositories: https://github.com/niconson *
G04 D:\Works\ѕлат‘орм на русском\Projects\Led\version-01\CAM(Driver-01)(11-20-2025)\Driver-01.TSL.gbr*

G04 Objects of panelization *
G04 шЄлк верх layer *
G04 Scale: 100 percent, Rotated: No, Reflected: No *
%FSLAX26Y26*%
%MOIN*%
G04 шЄлк верх *
G04 Rounded Rectangle Macro, params: W/2, H/2, R *
%AMRNDREC*
21,1,$1+$1,$2+$2-$3-$3,0,0,0*
21,1,$1+$1-$3-$3,$2+$2,0,0,0*
1,1,$3+$3,$1-$3,$2-$3*
1,1,$3+$3,$3-$1,$2-$3*
1,1,$3+$3,$1-$3,$3-$2*
1,1,$3+$3,$3-$1,$3-$2*%
G04 Rectangular Thermal Macro, params: W/4, H/4, TW/4, TC/4 *
%AMRECTHERM*
21,1,$1+$1-$3-$3-$4-$4,$2+$2-$3-$3-$4-$4-$4-$4,0-$1-$3-$4,0-$2-$3,0*
21,1,$1+$1-$3-$3-$4-$4-$4-$4,$2+$2-$3-$3-$4-$4,0-$1-$3,0-$2-$3-$4,0*
1,1,$4+$4+$4+$4,0-$1-$1+$4+$4,0-$2-$2+$4+$4*
1,1,$4+$4+$4+$4,0-$1-$1+$4+$4,0-$3-$3-$4-$4*
1,1,$4+$4+$4+$4,0-$3-$3-$4-$4,0-$2-$2+$4+$4*
21,1,$1+$1-$3-$3-$4-$4,$2+$2-$3-$3-$4-$4-$4-$4,0-$1-$3-$4,$2+$3,0*
21,1,$1+$1-$3-$3-$4-$4-$4-$4,$2+$2-$3-$3-$4-$4,0-$1-$3,$2+$3+$4,0*
1,1,$4+$4+$4+$4,0-$1-$1+$4+$4,$2+$2-$4-$4*
1,1,$4+$4+$4+$4,0-$1-$1+$4+$4,$3+$3+$4+$4*
1,1,$4+$4+$4+$4,0-$3-$3-$4-$4,$2+$2-$4-$4*
21,1,$1+$1-$3-$3-$4-$4,$2+$2-$3-$3-$4-$4-$4-$4,$1+$3+$4,0-$2-$3,0*
21,1,$1+$1-$3-$3-$4-$4-$4-$4,$2+$2-$3-$3-$4-$4,$1+$3,0-$2-$3-$4,0*
1,1,$4+$4+$4+$4,$1+$1-$4-$4,0-$2-$2+$4+$4*
1,1,$4+$4+$4+$4,$1+$1-$4-$4,0-$3-$3-$4-$4*
1,1,$4+$4+$4+$4,$3+$3+$4+$4,0-$2-$2+$4+$4*
21,1,$1+$1-$3-$3-$4-$4,$2+$2-$3-$3-$4-$4-$4-$4,$1+$3+$4,$2+$3,0*
21,1,$1+$1-$3-$3-$4-$4-$4-$4,$2+$2-$3-$3-$4-$4,$1+$3,$2+$3+$4,0*
1,1,$4+$4+$4+$4,$1+$1-$4-$4,$2+$2-$4-$4*
1,1,$4+$4+$4+$4,$1+$1-$4-$4,$3+$3+$4+$4*
1,1,$4+$4+$4+$4,$3+$3+$4+$4,$2+$2-$4-$4*%
%AMRECTHERM_45*
21,1,$1+$1+$1+$1,$2+$2+$2+$2-$4-$4-$4-$4-$4-$4-$4-$4-$4-$4-$3-$3,0,0,0*
21,1,$1+$1+$1+$1-$4-$4-$4-$4-$4-$4-$4-$4-$4-$4-$3-$3,$2+$2+$2+$2,0,0,0*
1,1,$4+$4+$4+$4,$1+$1-$4-$4,$2+$2-$4-$4-$4-$4-$4-$3*
1,1,$4+$4+$4+$4,$1+$1-$4-$4,0-$2-$2+$4+$4+$4+$4+$4+$3*
1,1,$4+$4+$4+$4,$1+$1-$4-$4-$4-$4-$4-$3,$2+$2-$4-$4*
1,1,$4+$4+$4+$4,0-$1-$1+$4+$4+$4+$4+$4+$3,$2+$2-$4-$4*
1,1,$4+$4+$4+$4,0-$1-$1+$4+$4,$2+$2-$4-$4-$4-$4-$4-$3*
1,1,$4+$4+$4+$4,0-$1-$1+$4+$4,0-$2-$2+$4+$4+$4+$4+$4+$3*
1,1,$4+$4+$4+$4,$1+$1-$4-$4-$4-$4-$4-$3,0-$2-$2+$4+$4*
1,1,$4+$4+$4+$4,0-$1-$1+$4+$4+$4+$4+$4+$3,0-$2-$2+$4+$4*%
%ADD10C,0.011249*%
%ADD11C,0.010000*%
%ADD12C,0.007000*%
%ADD13C,0.005906*%
G01*
G04 begin color: clBlack*
%LPD*%

G04 Objects of panelization *
D10*
X-157450Y2826600D02*
X-155750Y2821500D01*
X-155750Y2821500D02*
X-152300Y2818050D01*
X-152300Y2818050D02*
X-147200Y2816350D01*
X-147200Y2816350D02*
X-131800Y2816350D01*
X-131800Y2816350D02*
X-126650Y2818050D01*
X-126650Y2818050D02*
X-123200Y2821500D01*
X-123200Y2821500D02*
X-121500Y2826600D01*
X-121500Y2826600D02*
X-121500Y2883100D01*
X-121500Y2883100D02*
X-123200Y2888250D01*
X-123200Y2888250D02*
X-126650Y2891650D01*
X-126650Y2891650D02*
X-131800Y2893350D01*
X-131800Y2893350D02*
X-147200Y2893350D01*
X-147200Y2893350D02*
X-152300Y2891650D01*
X-152300Y2891650D02*
X-155750Y2888250D01*
X-155750Y2888250D02*
X-157450Y2883100D01*
X-157450Y2883100D02*
X-157450Y2826600D01*
X-99000Y2816350D02*
X-99000Y2867700D01*
X-99000Y2867700D02*
X-78450Y2867700D01*
X-78450Y2867700D02*
X-73300Y2866000D01*
X-73300Y2866000D02*
X-69900Y2862550D01*
X-69900Y2862550D02*
X-68150Y2857400D01*
X-68150Y2857400D02*
X-68150Y2816350D01*
X-28550Y2816350D02*
X-28550Y2893350D01*
X-45650Y2893350D02*
X-11400Y2893350D01*
X11050Y2826600D02*
X12750Y2821500D01*
X12750Y2821500D02*
X16200Y2818050D01*
X16200Y2818050D02*
X21350Y2816350D01*
X21350Y2816350D02*
X31600Y2816350D01*
X31600Y2816350D02*
X36750Y2818050D01*
X36750Y2818050D02*
X40150Y2821500D01*
X40150Y2821500D02*
X41850Y2826600D01*
X41850Y2826600D02*
X41850Y2857400D01*
X41850Y2857400D02*
X40150Y2862550D01*
X40150Y2862550D02*
X36750Y2866000D01*
X36750Y2866000D02*
X31600Y2867700D01*
X31600Y2867700D02*
X21350Y2867700D01*
X21350Y2867700D02*
X16200Y2866000D01*
X16200Y2866000D02*
X12750Y2862550D01*
X12750Y2862550D02*
X11050Y2857400D01*
X11050Y2857400D02*
X11050Y2826600D01*
X64400Y2797500D02*
X64400Y2867700D01*
X64400Y2867700D02*
X84950Y2867700D01*
X84950Y2867700D02*
X90050Y2866000D01*
X90050Y2866000D02*
X93500Y2862550D01*
X93500Y2862550D02*
X95200Y2857400D01*
X95200Y2857400D02*
X95200Y2826600D01*
X95200Y2826600D02*
X93500Y2821500D01*
X93500Y2821500D02*
X90050Y2818050D01*
X90050Y2818050D02*
X84950Y2816350D01*
X84950Y2816350D02*
X64400Y2816350D01*
X151950Y2888250D02*
X148550Y2891650D01*
X148550Y2891650D02*
X141700Y2893350D01*
X141700Y2893350D02*
X128000Y2893350D01*
X128000Y2893350D02*
X122850Y2891650D01*
X122850Y2891650D02*
X119450Y2888250D01*
X119450Y2888250D02*
X117700Y2883100D01*
X117700Y2883100D02*
X117700Y2877950D01*
X117700Y2877950D02*
X119450Y2872850D01*
X119450Y2872850D02*
X150250Y2838600D01*
X150250Y2838600D02*
X151950Y2833450D01*
X151950Y2833450D02*
X151950Y2826600D01*
X151950Y2826600D02*
X150250Y2821500D01*
X150250Y2821500D02*
X146800Y2818050D01*
X146800Y2818050D02*
X141700Y2816350D01*
X141700Y2816350D02*
X128000Y2816350D01*
X128000Y2816350D02*
X121150Y2818050D01*
X121150Y2818050D02*
X117700Y2821500D01*
X176200Y2867700D02*
X176200Y2816350D01*
X176200Y2889950D02*
X174500Y2888250D01*
X174500Y2888250D02*
X176200Y2886500D01*
X176200Y2886500D02*
X177900Y2888250D01*
X177900Y2888250D02*
X176200Y2889950D01*
X200450Y2893350D02*
X200450Y2826600D01*
X200450Y2826600D02*
X202150Y2821500D01*
X202150Y2821500D02*
X205550Y2818050D01*
X205550Y2818050D02*
X210700Y2816350D01*
X210700Y2816350D02*
X215850Y2816350D01*
X238350Y2893350D02*
X238350Y2816350D01*
X238350Y2838600D02*
X269150Y2867700D01*
X246900Y2845450D02*
X269150Y2816350D01*
D11*

G04 Step and Repeat for panelization *
%SRX3Y7I0.944882J0.413386*%

G04 ----------------------- Draw board outline (positive)*

G04 -------------- Draw Parts, Pads, Traces, Vias and Text (positive)*
D12*
X206650Y-67700D02*
X316900Y-67700D01*
X316900Y-122800D01*
X206650Y-122800D01*
X206650Y-67700D01*
D13*
X330450Y-90700D02*
X330450Y-63750D01*
X330450Y-63750D02*
X338800Y-63750D01*
X338800Y-63750D02*
X340600Y-64350D01*
X340600Y-64350D02*
X341800Y-65550D01*
X341800Y-65550D02*
X342400Y-67350D01*
X342400Y-67350D02*
X342400Y-73950D01*
X342400Y-73950D02*
X341800Y-75750D01*
X341800Y-75750D02*
X340600Y-76950D01*
X340600Y-76950D02*
X338800Y-77550D01*
X338800Y-77550D02*
X330450Y-77550D01*
X335800Y-77550D02*
X342400Y-90700D01*
X350300Y-69750D02*
X356300Y-63750D01*
X356300Y-63750D02*
X356300Y-90700D01*
X-429100Y-124000D02*
X-429100Y-97050D01*
X-429100Y-113200D02*
X-415950Y-97050D01*
X-424300Y-107800D02*
X-415950Y-124000D01*
X-402050Y-124000D02*
X-402050Y-97050D01*
X-408050Y-97050D02*
X-396050Y-97050D01*
X-388200Y-103000D02*
X-382200Y-97050D01*
X-382200Y-97050D02*
X-382200Y-124000D01*
X466500Y-183050D02*
X439550Y-183050D01*
X455750Y-183050D02*
X439550Y-169850D01*
X450350Y-178250D02*
X466500Y-169850D01*
X466500Y-156000D02*
X439550Y-156000D01*
X439550Y-162000D02*
X439550Y-150000D01*
X439550Y-142100D02*
X439550Y-135550D01*
X439550Y-135550D02*
X440150Y-133750D01*
X440150Y-133750D02*
X441950Y-131950D01*
X441950Y-131950D02*
X443750Y-131350D01*
X443750Y-131350D02*
X447350Y-131350D01*
X447350Y-131350D02*
X449150Y-131950D01*
X449150Y-131950D02*
X450950Y-133750D01*
X450950Y-133750D02*
X451550Y-135550D01*
X451550Y-138500D02*
X451550Y-136150D01*
X451550Y-136150D02*
X452150Y-133750D01*
X452150Y-133750D02*
X453950Y-131950D01*
X453950Y-131950D02*
X455750Y-131350D01*
X455750Y-131350D02*
X462300Y-131350D01*
X462300Y-131350D02*
X464100Y-131950D01*
X464100Y-131950D02*
X465900Y-133750D01*
X465900Y-133750D02*
X466500Y-135550D01*
X466500Y-135550D02*
X466500Y-142100D01*
X466100Y-44050D02*
X439150Y-44050D01*
X455350Y-44050D02*
X439150Y-30900D01*
X449950Y-39300D02*
X466100Y-30900D01*
X466100Y-17000D02*
X439150Y-17000D01*
X439150Y-23000D02*
X439150Y-11000D01*
X439150Y1600D02*
X460150Y-3150D01*
X460150Y-3150D02*
X460150Y9400D01*
X454150Y5800D02*
X466100Y5800D01*
D12*
X55100Y179100D02*
X-216500Y179100D01*
X-216500Y-1950D01*
X55100Y-1950D01*
X55100Y179100D01*
D13*
X-261350Y143650D02*
X-261350Y116700D01*
X-261350Y116700D02*
X-250600Y116700D01*
X-242700Y137700D02*
X-236700Y143650D01*
X-236700Y143650D02*
X-236700Y116700D01*
D12*
X-83000Y-41750D02*
X-83000Y-33950D01*
X37050Y-33950D01*
X37050Y-41750D01*
X-83000Y-156250D02*
X-83000Y-164050D01*
X37050Y-164050D01*
X37050Y-156250D01*
D11*
X-108000Y-31750D02*
X-107950Y-31200D01*
X-107900Y-30650D01*
X-107700Y-30100D01*
X-107500Y-29600D01*
X-107250Y-29100D01*
X-106900Y-28650D01*
X-106550Y-28200D01*
X-106100Y-27850D01*
X-105650Y-27550D01*
X-105150Y-27250D01*
X-104650Y-27050D01*
X-104100Y-26900D01*
X-103550Y-26800D01*
X-103000Y-26750D01*
X-102450Y-26800D01*
X-101900Y-26900D01*
X-101350Y-27050D01*
X-100850Y-27250D01*
X-100350Y-27550D01*
X-99900Y-27850D01*
X-99450Y-28200D01*
X-99100Y-28650D01*
X-98750Y-29100D01*
X-98500Y-29600D01*
X-98300Y-30100D01*
X-98150Y-30650D01*
X-98050Y-31200D01*
X-98000Y-31750D01*
X-98050Y-32300D01*
X-98150Y-32850D01*
X-98300Y-33400D01*
X-98500Y-33950D01*
X-98750Y-34400D01*
X-99100Y-34900D01*
X-99450Y-35300D01*
X-99900Y-35650D01*
X-100350Y-36000D01*
X-100850Y-36250D01*
X-101350Y-36500D01*
X-101900Y-36650D01*
X-102450Y-36750D01*
X-103000Y-36750D01*
X-103550Y-36750D01*
X-104100Y-36650D01*
X-104650Y-36500D01*
X-105150Y-36250D01*
X-105650Y-36000D01*
X-106100Y-35650D01*
X-106550Y-35300D01*
X-106900Y-34900D01*
X-107250Y-34400D01*
X-107500Y-33950D01*
X-107700Y-33400D01*
X-107900Y-32850D01*
X-107950Y-32300D01*
X-108000Y-31750D01*
D13*
X-126350Y-155000D02*
X-133200Y-184950D01*
X-133200Y-184950D02*
X-115200Y-184950D01*
X-120350Y-176350D02*
X-120350Y-193500D01*
X74300Y-154100D02*
X58050Y-154100D01*
X58050Y-154100D02*
X58050Y-171200D01*
X58050Y-171200D02*
X68300Y-171200D01*
X68300Y-171200D02*
X70900Y-172100D01*
X70900Y-172100D02*
X73450Y-174650D01*
X73450Y-174650D02*
X74300Y-177200D01*
X74300Y-177200D02*
X74300Y-186650D01*
X74300Y-186650D02*
X73450Y-189200D01*
X73450Y-189200D02*
X70900Y-191750D01*
X70900Y-191750D02*
X68300Y-192600D01*
X68300Y-192600D02*
X58050Y-192600D01*
X83300Y-4500D02*
X80700Y-4500D01*
X80700Y-4500D02*
X78150Y-5350D01*
X78150Y-5350D02*
X76450Y-7050D01*
X76450Y-7050D02*
X75600Y-9650D01*
X75600Y-9650D02*
X75600Y-16500D01*
X75600Y-16500D02*
X76450Y-19050D01*
X76450Y-19050D02*
X78150Y-20750D01*
X78150Y-20750D02*
X80700Y-21600D01*
X80700Y-21600D02*
X85850Y-21600D01*
X85850Y-21600D02*
X88400Y-20750D01*
X88400Y-20750D02*
X90150Y-19050D01*
X90150Y-19050D02*
X91000Y-16500D01*
X91000Y-16500D02*
X91000Y-9650D01*
X91000Y-9650D02*
X90150Y-7050D01*
X90150Y-7050D02*
X88400Y-5350D01*
X88400Y-5350D02*
X85850Y-4500D01*
X85850Y-4500D02*
X83300Y-4500D01*
X80700Y-21600D02*
X78150Y-22500D01*
X78150Y-22500D02*
X75600Y-25050D01*
X75600Y-25050D02*
X74750Y-27600D01*
X74750Y-27600D02*
X74750Y-37050D01*
X74750Y-37050D02*
X75600Y-39600D01*
X75600Y-39600D02*
X78150Y-42150D01*
X78150Y-42150D02*
X80700Y-43000D01*
X80700Y-43000D02*
X85850Y-43000D01*
X85850Y-43000D02*
X88400Y-42150D01*
X88400Y-42150D02*
X91000Y-39600D01*
X91000Y-39600D02*
X91850Y-37050D01*
X91850Y-37050D02*
X91850Y-27600D01*
X91850Y-27600D02*
X91000Y-25050D01*
X91000Y-25050D02*
X88400Y-22500D01*
X88400Y-22500D02*
X85850Y-21600D01*
X129450Y-147100D02*
X102450Y-147100D01*
X102450Y-147100D02*
X102450Y-138750D01*
X102450Y-138750D02*
X103050Y-136950D01*
X103050Y-136950D02*
X104250Y-135750D01*
X104250Y-135750D02*
X106050Y-135150D01*
X106050Y-135150D02*
X125850Y-135150D01*
X125850Y-135150D02*
X127650Y-135750D01*
X127650Y-135750D02*
X128850Y-136950D01*
X128850Y-136950D02*
X129450Y-138750D01*
X129450Y-138750D02*
X129450Y-147100D01*
X129450Y-116450D02*
X129450Y-123650D01*
X129450Y-123650D02*
X128850Y-125450D01*
X128850Y-125450D02*
X127650Y-126650D01*
X127650Y-126650D02*
X125850Y-127250D01*
X125850Y-127250D02*
X106050Y-127250D01*
X106050Y-127250D02*
X104250Y-126650D01*
X104250Y-126650D02*
X103050Y-125450D01*
X103050Y-125450D02*
X102450Y-123650D01*
X102450Y-123650D02*
X102450Y-116450D01*
X108450Y-108600D02*
X102450Y-102600D01*
X102450Y-102600D02*
X129450Y-102600D01*
X102450Y-89900D02*
X123450Y-94700D01*
X123450Y-94700D02*
X123450Y-82150D01*
X117450Y-85750D02*
X129450Y-85750D01*
D12*
X197200Y-5500D02*
X197200Y-115750D01*
X142100Y-115750D01*
X142100Y-5500D01*
X197200Y-5500D01*
D13*
X150750Y7950D02*
X150750Y34950D01*
X150750Y34950D02*
X159150Y34950D01*
X159150Y34950D02*
X160950Y34350D01*
X160950Y34350D02*
X162150Y33150D01*
X162150Y33150D02*
X162750Y31350D01*
X162750Y31350D02*
X162750Y24750D01*
X162750Y24750D02*
X162150Y22950D01*
X162150Y22950D02*
X160950Y21750D01*
X160950Y21750D02*
X159150Y21150D01*
X159150Y21150D02*
X150750Y21150D01*
X156150Y21150D02*
X162750Y7950D01*
X170600Y30150D02*
X171200Y32550D01*
X171200Y32550D02*
X173000Y34350D01*
X173000Y34350D02*
X175400Y34950D01*
X175400Y34950D02*
X177800Y34950D01*
X177800Y34950D02*
X180200Y34350D01*
X180200Y34350D02*
X182000Y32550D01*
X182000Y32550D02*
X182600Y30150D01*
X182600Y30150D02*
X182600Y28350D01*
X182600Y28350D02*
X182000Y26550D01*
X182000Y26550D02*
X170600Y7950D01*
X170600Y7950D02*
X182600Y7950D01*
X-432000Y52200D02*
X-432000Y79150D01*
X-432000Y62950D02*
X-418850Y79150D01*
X-427200Y68350D02*
X-418850Y52200D01*
X-404950Y52200D02*
X-404950Y79150D01*
X-410950Y79150D02*
X-398950Y79150D01*
X-391100Y74350D02*
X-390500Y76750D01*
X-390500Y76750D02*
X-388700Y78550D01*
X-388700Y78550D02*
X-386300Y79150D01*
X-386300Y79150D02*
X-383900Y79150D01*
X-383900Y79150D02*
X-381500Y78550D01*
X-381500Y78550D02*
X-379700Y76750D01*
X-379700Y76750D02*
X-379100Y74350D01*
X-379100Y74350D02*
X-379100Y72550D01*
X-379100Y72550D02*
X-379700Y70750D01*
X-379700Y70750D02*
X-391100Y52200D01*
X-391100Y52200D02*
X-379100Y52200D01*
D12*
X80750Y167250D02*
X402750Y167250D01*
X402750Y167250D02*
X402750Y49250D01*
X402750Y49250D02*
X80750Y49250D01*
X80750Y49250D02*
X80750Y167250D01*
X187750Y158250D02*
X187750Y58250D01*
X87750Y158250D02*
X87750Y58250D01*
X197750Y158250D02*
X197750Y58250D01*
X197750Y158250D02*
X197750Y163250D01*
X187750Y158250D02*
X187750Y163250D01*
X187750Y58250D02*
X187750Y53250D01*
X197750Y58250D02*
X197750Y53250D01*
X87750Y158250D02*
X87750Y163250D01*
X87750Y58250D02*
X87750Y53250D01*
D13*
X415650Y68700D02*
X442600Y75900D01*
X442600Y75900D02*
X415650Y83100D01*
X442600Y90950D02*
X415650Y90950D01*
X415650Y90950D02*
X415650Y99350D01*
X415650Y99350D02*
X416250Y101150D01*
X416250Y101150D02*
X417450Y102350D01*
X417450Y102350D02*
X419200Y102950D01*
X419200Y102950D02*
X439000Y102950D01*
X439000Y102950D02*
X440800Y102350D01*
X440800Y102350D02*
X442000Y101150D01*
X442000Y101150D02*
X442600Y99350D01*
X442600Y99350D02*
X442600Y90950D01*
X415650Y110850D02*
X415650Y117400D01*
X415650Y117400D02*
X416250Y119200D01*
X416250Y119200D02*
X418050Y121000D01*
X418050Y121000D02*
X419800Y121600D01*
X419800Y121600D02*
X423400Y121600D01*
X423400Y121600D02*
X425200Y121000D01*
X425200Y121000D02*
X427000Y119200D01*
X427000Y119200D02*
X427600Y117400D01*
X427600Y114450D02*
X427600Y116800D01*
X427600Y116800D02*
X428200Y119200D01*
X428200Y119200D02*
X430000Y121000D01*
X430000Y121000D02*
X431800Y121600D01*
X431800Y121600D02*
X438400Y121600D01*
X438400Y121600D02*
X440200Y121000D01*
X440200Y121000D02*
X442000Y119200D01*
X442000Y119200D02*
X442600Y117400D01*
X442600Y117400D02*
X442600Y110850D01*
D12*
X147600Y-139750D02*
X257850Y-139750D01*
X257850Y-194850D01*
X147600Y-194850D01*
X147600Y-139750D01*
D13*
X265450Y-182400D02*
X265450Y-155450D01*
X265450Y-155450D02*
X273850Y-155450D01*
X273850Y-155450D02*
X275650Y-156050D01*
X275650Y-156050D02*
X276850Y-157250D01*
X276850Y-157250D02*
X277450Y-159050D01*
X277450Y-159050D02*
X277450Y-165650D01*
X277450Y-165650D02*
X276850Y-167450D01*
X276850Y-167450D02*
X275650Y-168650D01*
X275650Y-168650D02*
X273850Y-169250D01*
X273850Y-169250D02*
X265450Y-169250D01*
X270850Y-169250D02*
X277450Y-182400D01*
X285350Y-155450D02*
X291950Y-155450D01*
X291950Y-155450D02*
X293700Y-156050D01*
X293700Y-156050D02*
X295500Y-157850D01*
X295500Y-157850D02*
X296100Y-159650D01*
X296100Y-159650D02*
X296100Y-163250D01*
X296100Y-163250D02*
X295500Y-165050D01*
X295500Y-165050D02*
X293700Y-166850D01*
X293700Y-166850D02*
X291950Y-167450D01*
X288950Y-167450D02*
X291350Y-167450D01*
X291350Y-167450D02*
X293700Y-168050D01*
X293700Y-168050D02*
X295500Y-169850D01*
X295500Y-169850D02*
X296100Y-171650D01*
X296100Y-171650D02*
X296100Y-178200D01*
X296100Y-178200D02*
X295500Y-180000D01*
X295500Y-180000D02*
X293700Y-181800D01*
X293700Y-181800D02*
X291950Y-182400D01*
X291950Y-182400D02*
X285350Y-182400D01*
D12*
X-305100Y-129500D02*
X-194850Y-129500D01*
X-194850Y-184650D01*
X-305100Y-184650D01*
X-305100Y-129500D01*
D13*
X-155050Y-172100D02*
X-155050Y-179250D01*
X-155050Y-179250D02*
X-155650Y-181050D01*
X-155650Y-181050D02*
X-156850Y-182250D01*
X-156850Y-182250D02*
X-158650Y-182850D01*
X-158650Y-182850D02*
X-178450Y-182850D01*
X-178450Y-182850D02*
X-180200Y-182250D01*
X-180200Y-182250D02*
X-181400Y-181050D01*
X-181400Y-181050D02*
X-182000Y-179250D01*
X-182000Y-179250D02*
X-182000Y-172100D01*
X-182000Y-159400D02*
X-161050Y-164200D01*
X-161050Y-164200D02*
X-161050Y-151600D01*
X-167050Y-155200D02*
X-155050Y-155200D01*
D12*
X-305100Y-38950D02*
X-194850Y-38950D01*
X-194850Y-94100D01*
X-305100Y-94100D01*
X-305100Y-38950D01*
D13*
X-155050Y-75250D02*
X-155050Y-82450D01*
X-155050Y-82450D02*
X-155650Y-84250D01*
X-155650Y-84250D02*
X-156850Y-85450D01*
X-156850Y-85450D02*
X-158650Y-86050D01*
X-158650Y-86050D02*
X-178450Y-86050D01*
X-178450Y-86050D02*
X-180200Y-85450D01*
X-180200Y-85450D02*
X-181400Y-84250D01*
X-181400Y-84250D02*
X-182000Y-82450D01*
X-182000Y-82450D02*
X-182000Y-75250D01*
X-176050Y-67400D02*
X-182000Y-61400D01*
X-182000Y-61400D02*
X-155050Y-61400D01*
X-311000Y97600D02*
X-311000Y-32250D01*
X-240150Y-32250D01*
X-240150Y97600D01*
X-311000Y97600D01*
X-313550Y110550D02*
X-320750Y110550D01*
X-320750Y110550D02*
X-322550Y111150D01*
X-322550Y111150D02*
X-323750Y112350D01*
X-323750Y112350D02*
X-324350Y114150D01*
X-324350Y114150D02*
X-324350Y133950D01*
X-324350Y133950D02*
X-323750Y135750D01*
X-323750Y135750D02*
X-322550Y136950D01*
X-322550Y136950D02*
X-320750Y137550D01*
X-320750Y137550D02*
X-313550Y137550D01*
X-305650Y137550D02*
X-299100Y137550D01*
X-299100Y137550D02*
X-297300Y136950D01*
X-297300Y136950D02*
X-295500Y135150D01*
X-295500Y135150D02*
X-294900Y133350D01*
X-294900Y133350D02*
X-294900Y129750D01*
X-294900Y129750D02*
X-295500Y127950D01*
X-295500Y127950D02*
X-297300Y126150D01*
X-297300Y126150D02*
X-299100Y125550D01*
X-302100Y125550D02*
X-299700Y125550D01*
X-299700Y125550D02*
X-297300Y124950D01*
X-297300Y124950D02*
X-295500Y123150D01*
X-295500Y123150D02*
X-294900Y121350D01*
X-294900Y121350D02*
X-294900Y114750D01*
X-294900Y114750D02*
X-295500Y112950D01*
X-295500Y112950D02*
X-297300Y111150D01*
X-297300Y111150D02*
X-299100Y110550D01*
X-299100Y110550D02*
X-305650Y110550D01*
D12*
X208650Y-64550D02*
X208650Y45650D01*
X263750Y45650D01*
X263750Y-64550D01*
X208650Y-64550D01*
D13*
X288050Y-24600D02*
X280850Y-24600D01*
X280850Y-24600D02*
X279050Y-24000D01*
X279050Y-24000D02*
X277900Y-22800D01*
X277900Y-22800D02*
X277300Y-21000D01*
X277300Y-21000D02*
X277300Y-1250D01*
X277300Y-1250D02*
X277900Y500D01*
X277900Y500D02*
X279050Y1700D01*
X279050Y1700D02*
X280850Y2300D01*
X280850Y2300D02*
X288050Y2300D01*
X295950Y-2450D02*
X296550Y-50D01*
X296550Y-50D02*
X298350Y1700D01*
X298350Y1700D02*
X300750Y2300D01*
X300750Y2300D02*
X303150Y2300D01*
X303150Y2300D02*
X305550Y1700D01*
X305550Y1700D02*
X307350Y-50D01*
X307350Y-50D02*
X307950Y-2450D01*
X307950Y-2450D02*
X307950Y-4200D01*
X307950Y-4200D02*
X307350Y-6000D01*
X307350Y-6000D02*
X295950Y-24600D01*
X295950Y-24600D02*
X307950Y-24600D01*

G04 Draw traces*

G04 Draw Text*
D11*

G04 EOF Step and Repeat for panelization *
%SR*%
M02*
