G04 FreePCB MFC Application*
G04 Version: ѕлат‘орм 2.427*
G04 Author: niconson.com *
G04 WebSite: https://niconson.com/freepcb2 *
G04 Repositories: https://github.com/niconson *
G04 D:\Works\ѕлат‘орм на русском\Projects\Led\version-01\CAM(Driver-01)(11-20-2025)\Driver-01.BML.gbr*

G04 Objects of panelization *
G04 вид низ layer *
G04 Scale: 100 percent, Rotated: No, Reflected: No *
%FSLAX26Y26*%
%MOIN*%
G04 вид низ *
G04 Rounded Rectangle Macro, params: W/2, H/2, R *
%AMRNDREC*
21,1,$1+$1,$2+$2-$3-$3,0,0,0*
21,1,$1+$1-$3-$3,$2+$2,0,0,0*
1,1,$3+$3,$1-$3,$2-$3*
1,1,$3+$3,$3-$1,$2-$3*
1,1,$3+$3,$1-$3,$3-$2*
1,1,$3+$3,$3-$1,$3-$2*%
G04 Rectangular Thermal Macro, params: W/4, H/4, TW/4, TC/4 *
%AMRECTHERM*
21,1,$1+$1-$3-$3-$4-$4,$2+$2-$3-$3-$4-$4-$4-$4,0-$1-$3-$4,0-$2-$3,0*
21,1,$1+$1-$3-$3-$4-$4-$4-$4,$2+$2-$3-$3-$4-$4,0-$1-$3,0-$2-$3-$4,0*
1,1,$4+$4+$4+$4,0-$1-$1+$4+$4,0-$2-$2+$4+$4*
1,1,$4+$4+$4+$4,0-$1-$1+$4+$4,0-$3-$3-$4-$4*
1,1,$4+$4+$4+$4,0-$3-$3-$4-$4,0-$2-$2+$4+$4*
21,1,$1+$1-$3-$3-$4-$4,$2+$2-$3-$3-$4-$4-$4-$4,0-$1-$3-$4,$2+$3,0*
21,1,$1+$1-$3-$3-$4-$4-$4-$4,$2+$2-$3-$3-$4-$4,0-$1-$3,$2+$3+$4,0*
1,1,$4+$4+$4+$4,0-$1-$1+$4+$4,$2+$2-$4-$4*
1,1,$4+$4+$4+$4,0-$1-$1+$4+$4,$3+$3+$4+$4*
1,1,$4+$4+$4+$4,0-$3-$3-$4-$4,$2+$2-$4-$4*
21,1,$1+$1-$3-$3-$4-$4,$2+$2-$3-$3-$4-$4-$4-$4,$1+$3+$4,0-$2-$3,0*
21,1,$1+$1-$3-$3-$4-$4-$4-$4,$2+$2-$3-$3-$4-$4,$1+$3,0-$2-$3-$4,0*
1,1,$4+$4+$4+$4,$1+$1-$4-$4,0-$2-$2+$4+$4*
1,1,$4+$4+$4+$4,$1+$1-$4-$4,0-$3-$3-$4-$4*
1,1,$4+$4+$4+$4,$3+$3+$4+$4,0-$2-$2+$4+$4*
21,1,$1+$1-$3-$3-$4-$4,$2+$2-$3-$3-$4-$4-$4-$4,$1+$3+$4,$2+$3,0*
21,1,$1+$1-$3-$3-$4-$4-$4-$4,$2+$2-$3-$3-$4-$4,$1+$3,$2+$3+$4,0*
1,1,$4+$4+$4+$4,$1+$1-$4-$4,$2+$2-$4-$4*
1,1,$4+$4+$4+$4,$1+$1-$4-$4,$3+$3+$4+$4*
1,1,$4+$4+$4+$4,$3+$3+$4+$4,$2+$2-$4-$4*%
%AMRECTHERM_45*
21,1,$1+$1+$1+$1,$2+$2+$2+$2-$4-$4-$4-$4-$4-$4-$4-$4-$4-$4-$3-$3,0,0,0*
21,1,$1+$1+$1+$1-$4-$4-$4-$4-$4-$4-$4-$4-$4-$4-$3-$3,$2+$2+$2+$2,0,0,0*
1,1,$4+$4+$4+$4,$1+$1-$4-$4,$2+$2-$4-$4-$4-$4-$4-$3*
1,1,$4+$4+$4+$4,$1+$1-$4-$4,0-$2-$2+$4+$4+$4+$4+$4+$3*
1,1,$4+$4+$4+$4,$1+$1-$4-$4-$4-$4-$4-$3,$2+$2-$4-$4*
1,1,$4+$4+$4+$4,0-$1-$1+$4+$4+$4+$4+$4+$3,$2+$2-$4-$4*
1,1,$4+$4+$4+$4,0-$1-$1+$4+$4,$2+$2-$4-$4-$4-$4-$4-$3*
1,1,$4+$4+$4+$4,0-$1-$1+$4+$4,0-$2-$2+$4+$4+$4+$4+$4+$3*
1,1,$4+$4+$4+$4,$1+$1-$4-$4-$4-$4-$4-$3,0-$2-$2+$4+$4*
1,1,$4+$4+$4+$4,0-$1-$1+$4+$4+$4+$4+$4+$3,0-$2-$2+$4+$4*%
%ADD10R,0.118110X0.118110*%
%ADD11C,0.022497*%
%ADD12C,0.010000*%
%ADD13C,0.059055*%
%ADD14C,0.039370*%
G01*
G04 begin color: clBlack*
%LPD*%

G04 Objects of panelization *
D10*
X-314960Y-364173D03*
X2204724Y2844488D03*
X-314960Y2844488D03*
X2204724Y-364173D03*
D11*
X2047200Y-404500D02*
X2045500Y-409650D01*
X2045500Y-409650D02*
X2042100Y-413050D01*
X2042100Y-413050D02*
X2036950Y-414750D01*
X2036950Y-414750D02*
X2021550Y-414750D01*
X2021550Y-414750D02*
X2016400Y-413050D01*
X2016400Y-413050D02*
X2013000Y-409650D01*
X2013000Y-409650D02*
X2011250Y-404500D01*
X2011250Y-404500D02*
X2011250Y-348000D01*
X2011250Y-348000D02*
X2013000Y-342850D01*
X2013000Y-342850D02*
X2016400Y-339450D01*
X2016400Y-339450D02*
X2021550Y-337750D01*
X2021550Y-337750D02*
X2036950Y-337750D01*
X2036950Y-337750D02*
X2042100Y-339450D01*
X2042100Y-339450D02*
X2045500Y-342850D01*
X2045500Y-342850D02*
X2047200Y-348000D01*
X2047200Y-348000D02*
X2047200Y-404500D01*
X1988750Y-414750D02*
X1988750Y-363400D01*
X1988750Y-363400D02*
X1968200Y-363400D01*
X1968200Y-363400D02*
X1963050Y-365150D01*
X1963050Y-365150D02*
X1959650Y-368550D01*
X1959650Y-368550D02*
X1957950Y-373700D01*
X1957950Y-373700D02*
X1957950Y-414750D01*
X1911450Y-337750D02*
X1935400Y-337750D01*
X1935400Y-337750D02*
X1935400Y-414750D01*
X1935400Y-414750D02*
X1908050Y-414750D01*
X1908050Y-414750D02*
X1902900Y-413050D01*
X1902900Y-413050D02*
X1899450Y-409650D01*
X1899450Y-409650D02*
X1897750Y-404500D01*
X1897750Y-404500D02*
X1897750Y-382250D01*
X1897750Y-382250D02*
X1899450Y-377100D01*
X1899450Y-377100D02*
X1902900Y-373700D01*
X1911450Y-337750D02*
X1906300Y-339450D01*
X1906300Y-339450D02*
X1902900Y-342850D01*
X1902900Y-342850D02*
X1901200Y-348000D01*
X1901200Y-348000D02*
X1901200Y-361700D01*
X1901200Y-361700D02*
X1902900Y-366850D01*
X1902900Y-366850D02*
X1906300Y-370250D01*
X1906300Y-370250D02*
X1911450Y-371950D01*
X1902900Y-373700D02*
X1908050Y-371950D01*
X1908050Y-371950D02*
X1935400Y-371950D01*
X1875250Y-404500D02*
X1873500Y-409650D01*
X1873500Y-409650D02*
X1870100Y-413050D01*
X1870100Y-413050D02*
X1864950Y-414750D01*
X1864950Y-414750D02*
X1854700Y-414750D01*
X1854700Y-414750D02*
X1849550Y-413050D01*
X1849550Y-413050D02*
X1846150Y-409650D01*
X1846150Y-409650D02*
X1844400Y-404500D01*
X1844400Y-404500D02*
X1844400Y-373700D01*
X1844400Y-373700D02*
X1846150Y-368550D01*
X1846150Y-368550D02*
X1849550Y-365150D01*
X1849550Y-365150D02*
X1854700Y-363400D01*
X1854700Y-363400D02*
X1864950Y-363400D01*
X1864950Y-363400D02*
X1870100Y-365150D01*
X1870100Y-365150D02*
X1873500Y-368550D01*
X1873500Y-368550D02*
X1875250Y-373700D01*
X1875250Y-373700D02*
X1875250Y-404500D01*
X1816750Y-337750D02*
X1816750Y-414750D01*
X1821900Y-363400D02*
X1803050Y-363400D01*
X1749750Y-414750D02*
X1770300Y-414750D01*
X1770300Y-414750D02*
X1775400Y-413050D01*
X1775400Y-413050D02*
X1778850Y-409650D01*
X1778850Y-409650D02*
X1780550Y-404500D01*
X1780550Y-404500D02*
X1780550Y-348000D01*
X1780550Y-348000D02*
X1778850Y-342850D01*
X1778850Y-342850D02*
X1775400Y-339450D01*
X1775400Y-339450D02*
X1770300Y-337750D01*
X1770300Y-337750D02*
X1749750Y-337750D01*
X1727200Y-404500D02*
X1725500Y-409650D01*
X1725500Y-409650D02*
X1722100Y-413050D01*
X1722100Y-413050D02*
X1716950Y-414750D01*
X1716950Y-414750D02*
X1706650Y-414750D01*
X1706650Y-414750D02*
X1701550Y-413050D01*
X1701550Y-413050D02*
X1698100Y-409650D01*
X1698100Y-409650D02*
X1696400Y-404500D01*
X1696400Y-404500D02*
X1696400Y-373700D01*
X1696400Y-373700D02*
X1698100Y-368550D01*
X1698100Y-368550D02*
X1701550Y-365150D01*
X1701550Y-365150D02*
X1706650Y-363400D01*
X1706650Y-363400D02*
X1716950Y-363400D01*
X1716950Y-363400D02*
X1722100Y-365150D01*
X1722100Y-365150D02*
X1725500Y-368550D01*
X1725500Y-368550D02*
X1727200Y-373700D01*
X1727200Y-373700D02*
X1727200Y-404500D01*
X1673900Y-433600D02*
X1673900Y-363400D01*
X1673900Y-363400D02*
X1653350Y-363400D01*
X1653350Y-363400D02*
X1648200Y-365150D01*
X1648200Y-365150D02*
X1644800Y-368550D01*
X1644800Y-368550D02*
X1643050Y-373700D01*
X1643050Y-373700D02*
X1643050Y-404500D01*
X1643050Y-404500D02*
X1644800Y-409650D01*
X1644800Y-409650D02*
X1648200Y-413050D01*
X1648200Y-413050D02*
X1653350Y-414750D01*
X1653350Y-414750D02*
X1673900Y-414750D01*
X1620550Y-433600D02*
X1620550Y-363400D01*
X1620550Y-363400D02*
X1600000Y-363400D01*
X1600000Y-363400D02*
X1594850Y-365150D01*
X1594850Y-365150D02*
X1591450Y-368550D01*
X1591450Y-368550D02*
X1589750Y-373700D01*
X1589750Y-373700D02*
X1589750Y-404500D01*
X1589750Y-404500D02*
X1591450Y-409650D01*
X1591450Y-409650D02*
X1594850Y-413050D01*
X1594850Y-413050D02*
X1600000Y-414750D01*
X1600000Y-414750D02*
X1620550Y-414750D01*
X1567200Y-389100D02*
X1536400Y-389100D01*
X1536400Y-389100D02*
X1536400Y-373700D01*
X1536400Y-373700D02*
X1538100Y-368550D01*
X1538100Y-368550D02*
X1541550Y-365150D01*
X1541550Y-365150D02*
X1546650Y-363400D01*
X1546650Y-363400D02*
X1556950Y-363400D01*
X1556950Y-363400D02*
X1562100Y-365150D01*
X1562100Y-365150D02*
X1565500Y-368550D01*
X1565500Y-368550D02*
X1567200Y-373700D01*
X1567200Y-373700D02*
X1567200Y-404500D01*
X1567200Y-404500D02*
X1565500Y-409650D01*
X1565500Y-409650D02*
X1562100Y-413050D01*
X1562100Y-413050D02*
X1556950Y-414750D01*
X1556950Y-414750D02*
X1538100Y-414750D01*
X1513900Y-414750D02*
X1513900Y-363400D01*
X1513900Y-363400D02*
X1495050Y-363400D01*
X1495050Y-363400D02*
X1489900Y-365150D01*
X1489900Y-365150D02*
X1486500Y-368550D01*
X1486500Y-368550D02*
X1484800Y-371950D01*
X1484800Y-371950D02*
X1484800Y-375400D01*
D12*

G04 Step and Repeat for panelization *
%SRX3Y7I0.944882J0.413386*%

G04 ----------------------- Draw board outline (positive)*

G04 -------------- Draw Parts, Pads, Traces, Vias and Text (positive)*
D13*
X-393700Y-44894D03*
X393700Y-147637D03*
X393700Y-9842D03*
D14*
X-22986Y-99028D03*
X-42671Y-69501D03*
X-3301Y-69501D03*
X-3301Y-128556D03*
X-42671Y-128556D03*
D13*
X-393700Y127952D03*

G04 Draw traces*

G04 Draw Text*
D12*

G04 EOF Step and Repeat for panelization *
%SR*%
M02*
