G04 FreePCB MFC Application*
G04 Version: ѕлат‘орм 2.427*
G04 Author: niconson.com *
G04 WebSite: https://niconson.com/freepcb2 *
G04 Repositories: https://github.com/niconson *
G04 D:\Works\ѕлат‘орм на русском\Projects\Led\version-01\CAM(Driver-01)(11-20-2025)\Driver-01.BOT.gbr*

G04 Objects of panelization *
G04 медь низ layer *
G04 Scale: 100 percent, Rotated: No, Reflected: No *
%FSLAX26Y26*%
%MOIN*%
G04 медь низ *
G04 Rounded Rectangle Macro, params: W/2, H/2, R *
%AMRNDREC*
21,1,$1+$1,$2+$2-$3-$3,0,0,0*
21,1,$1+$1-$3-$3,$2+$2,0,0,0*
1,1,$3+$3,$1-$3,$2-$3*
1,1,$3+$3,$3-$1,$2-$3*
1,1,$3+$3,$1-$3,$3-$2*
1,1,$3+$3,$3-$1,$3-$2*%
G04 Rectangular Thermal Macro, params: W/4, H/4, TW/4, TC/4 *
%AMRECTHERM*
21,1,$1+$1-$3-$3-$4-$4,$2+$2-$3-$3-$4-$4-$4-$4,0-$1-$3-$4,0-$2-$3,0*
21,1,$1+$1-$3-$3-$4-$4-$4-$4,$2+$2-$3-$3-$4-$4,0-$1-$3,0-$2-$3-$4,0*
1,1,$4+$4+$4+$4,0-$1-$1+$4+$4,0-$2-$2+$4+$4*
1,1,$4+$4+$4+$4,0-$1-$1+$4+$4,0-$3-$3-$4-$4*
1,1,$4+$4+$4+$4,0-$3-$3-$4-$4,0-$2-$2+$4+$4*
21,1,$1+$1-$3-$3-$4-$4,$2+$2-$3-$3-$4-$4-$4-$4,0-$1-$3-$4,$2+$3,0*
21,1,$1+$1-$3-$3-$4-$4-$4-$4,$2+$2-$3-$3-$4-$4,0-$1-$3,$2+$3+$4,0*
1,1,$4+$4+$4+$4,0-$1-$1+$4+$4,$2+$2-$4-$4*
1,1,$4+$4+$4+$4,0-$1-$1+$4+$4,$3+$3+$4+$4*
1,1,$4+$4+$4+$4,0-$3-$3-$4-$4,$2+$2-$4-$4*
21,1,$1+$1-$3-$3-$4-$4,$2+$2-$3-$3-$4-$4-$4-$4,$1+$3+$4,0-$2-$3,0*
21,1,$1+$1-$3-$3-$4-$4-$4-$4,$2+$2-$3-$3-$4-$4,$1+$3,0-$2-$3-$4,0*
1,1,$4+$4+$4+$4,$1+$1-$4-$4,0-$2-$2+$4+$4*
1,1,$4+$4+$4+$4,$1+$1-$4-$4,0-$3-$3-$4-$4*
1,1,$4+$4+$4+$4,$3+$3+$4+$4,0-$2-$2+$4+$4*
21,1,$1+$1-$3-$3-$4-$4,$2+$2-$3-$3-$4-$4-$4-$4,$1+$3+$4,$2+$3,0*
21,1,$1+$1-$3-$3-$4-$4-$4-$4,$2+$2-$3-$3-$4-$4,$1+$3,$2+$3+$4,0*
1,1,$4+$4+$4+$4,$1+$1-$4-$4,$2+$2-$4-$4*
1,1,$4+$4+$4+$4,$1+$1-$4-$4,$3+$3+$4+$4*
1,1,$4+$4+$4+$4,$3+$3+$4+$4,$2+$2-$4-$4*%
%AMRECTHERM_45*
21,1,$1+$1+$1+$1,$2+$2+$2+$2-$4-$4-$4-$4-$4-$4-$4-$4-$4-$4-$3-$3,0,0,0*
21,1,$1+$1+$1+$1-$4-$4-$4-$4-$4-$4-$4-$4-$4-$4-$3-$3,$2+$2+$2+$2,0,0,0*
1,1,$4+$4+$4+$4,$1+$1-$4-$4,$2+$2-$4-$4-$4-$4-$4-$3*
1,1,$4+$4+$4+$4,$1+$1-$4-$4,0-$2-$2+$4+$4+$4+$4+$4+$3*
1,1,$4+$4+$4+$4,$1+$1-$4-$4-$4-$4-$4-$3,$2+$2-$4-$4*
1,1,$4+$4+$4+$4,0-$1-$1+$4+$4+$4+$4+$4+$3,$2+$2-$4-$4*
1,1,$4+$4+$4+$4,0-$1-$1+$4+$4,$2+$2-$4-$4-$4-$4-$4-$3*
1,1,$4+$4+$4+$4,0-$1-$1+$4+$4,0-$2-$2+$4+$4+$4+$4+$4+$3*
1,1,$4+$4+$4+$4,$1+$1-$4-$4-$4-$4-$4-$3,0-$2-$2+$4+$4*
1,1,$4+$4+$4+$4,0-$1-$1+$4+$4+$4+$4+$4+$3,0-$2-$2+$4+$4*%
%ADD10R,0.039370X0.039370*%
%ADD11C,0.011249*%
%ADD12C,0.010000*%
%ADD13C,0.005906*%
%ADD14C,0.005315*%
%ADD15C,0.059055*%
%ADD16C,0.039370*%
G01*
G04 begin color: clBlack*
%LPD*%

G04 Objects of panelization *
D10*
X-314960Y-364173D03*
X2204724Y2844488D03*
X-314960Y2844488D03*
X2204724Y-364173D03*
D11*
X2047200Y-404500D02*
X2045500Y-409650D01*
X2045500Y-409650D02*
X2042100Y-413050D01*
X2042100Y-413050D02*
X2036950Y-414750D01*
X2036950Y-414750D02*
X2021550Y-414750D01*
X2021550Y-414750D02*
X2016400Y-413050D01*
X2016400Y-413050D02*
X2013000Y-409650D01*
X2013000Y-409650D02*
X2011250Y-404500D01*
X2011250Y-404500D02*
X2011250Y-348000D01*
X2011250Y-348000D02*
X2013000Y-342850D01*
X2013000Y-342850D02*
X2016400Y-339450D01*
X2016400Y-339450D02*
X2021550Y-337750D01*
X2021550Y-337750D02*
X2036950Y-337750D01*
X2036950Y-337750D02*
X2042100Y-339450D01*
X2042100Y-339450D02*
X2045500Y-342850D01*
X2045500Y-342850D02*
X2047200Y-348000D01*
X2047200Y-348000D02*
X2047200Y-404500D01*
X1988750Y-414750D02*
X1988750Y-363400D01*
X1988750Y-363400D02*
X1968200Y-363400D01*
X1968200Y-363400D02*
X1963050Y-365150D01*
X1963050Y-365150D02*
X1959650Y-368550D01*
X1959650Y-368550D02*
X1957950Y-373700D01*
X1957950Y-373700D02*
X1957950Y-414750D01*
X1911450Y-337750D02*
X1935400Y-337750D01*
X1935400Y-337750D02*
X1935400Y-414750D01*
X1935400Y-414750D02*
X1908050Y-414750D01*
X1908050Y-414750D02*
X1902900Y-413050D01*
X1902900Y-413050D02*
X1899450Y-409650D01*
X1899450Y-409650D02*
X1897750Y-404500D01*
X1897750Y-404500D02*
X1897750Y-382250D01*
X1897750Y-382250D02*
X1899450Y-377100D01*
X1899450Y-377100D02*
X1902900Y-373700D01*
X1911450Y-337750D02*
X1906300Y-339450D01*
X1906300Y-339450D02*
X1902900Y-342850D01*
X1902900Y-342850D02*
X1901200Y-348000D01*
X1901200Y-348000D02*
X1901200Y-361700D01*
X1901200Y-361700D02*
X1902900Y-366850D01*
X1902900Y-366850D02*
X1906300Y-370250D01*
X1906300Y-370250D02*
X1911450Y-371950D01*
X1902900Y-373700D02*
X1908050Y-371950D01*
X1908050Y-371950D02*
X1935400Y-371950D01*
X1875250Y-404500D02*
X1873500Y-409650D01*
X1873500Y-409650D02*
X1870100Y-413050D01*
X1870100Y-413050D02*
X1864950Y-414750D01*
X1864950Y-414750D02*
X1854700Y-414750D01*
X1854700Y-414750D02*
X1849550Y-413050D01*
X1849550Y-413050D02*
X1846150Y-409650D01*
X1846150Y-409650D02*
X1844400Y-404500D01*
X1844400Y-404500D02*
X1844400Y-373700D01*
X1844400Y-373700D02*
X1846150Y-368550D01*
X1846150Y-368550D02*
X1849550Y-365150D01*
X1849550Y-365150D02*
X1854700Y-363400D01*
X1854700Y-363400D02*
X1864950Y-363400D01*
X1864950Y-363400D02*
X1870100Y-365150D01*
X1870100Y-365150D02*
X1873500Y-368550D01*
X1873500Y-368550D02*
X1875250Y-373700D01*
X1875250Y-373700D02*
X1875250Y-404500D01*
X1816750Y-337750D02*
X1816750Y-414750D01*
X1821900Y-363400D02*
X1803050Y-363400D01*
X1749750Y-414750D02*
X1770300Y-414750D01*
X1770300Y-414750D02*
X1775400Y-413050D01*
X1775400Y-413050D02*
X1778850Y-409650D01*
X1778850Y-409650D02*
X1780550Y-404500D01*
X1780550Y-404500D02*
X1780550Y-348000D01*
X1780550Y-348000D02*
X1778850Y-342850D01*
X1778850Y-342850D02*
X1775400Y-339450D01*
X1775400Y-339450D02*
X1770300Y-337750D01*
X1770300Y-337750D02*
X1749750Y-337750D01*
X1727200Y-404500D02*
X1725500Y-409650D01*
X1725500Y-409650D02*
X1722100Y-413050D01*
X1722100Y-413050D02*
X1716950Y-414750D01*
X1716950Y-414750D02*
X1706650Y-414750D01*
X1706650Y-414750D02*
X1701550Y-413050D01*
X1701550Y-413050D02*
X1698100Y-409650D01*
X1698100Y-409650D02*
X1696400Y-404500D01*
X1696400Y-404500D02*
X1696400Y-373700D01*
X1696400Y-373700D02*
X1698100Y-368550D01*
X1698100Y-368550D02*
X1701550Y-365150D01*
X1701550Y-365150D02*
X1706650Y-363400D01*
X1706650Y-363400D02*
X1716950Y-363400D01*
X1716950Y-363400D02*
X1722100Y-365150D01*
X1722100Y-365150D02*
X1725500Y-368550D01*
X1725500Y-368550D02*
X1727200Y-373700D01*
X1727200Y-373700D02*
X1727200Y-404500D01*
X1673900Y-433600D02*
X1673900Y-363400D01*
X1673900Y-363400D02*
X1653350Y-363400D01*
X1653350Y-363400D02*
X1648200Y-365150D01*
X1648200Y-365150D02*
X1644800Y-368550D01*
X1644800Y-368550D02*
X1643050Y-373700D01*
X1643050Y-373700D02*
X1643050Y-404500D01*
X1643050Y-404500D02*
X1644800Y-409650D01*
X1644800Y-409650D02*
X1648200Y-413050D01*
X1648200Y-413050D02*
X1653350Y-414750D01*
X1653350Y-414750D02*
X1673900Y-414750D01*
X1620550Y-433600D02*
X1620550Y-363400D01*
X1620550Y-363400D02*
X1600000Y-363400D01*
X1600000Y-363400D02*
X1594850Y-365150D01*
X1594850Y-365150D02*
X1591450Y-368550D01*
X1591450Y-368550D02*
X1589750Y-373700D01*
X1589750Y-373700D02*
X1589750Y-404500D01*
X1589750Y-404500D02*
X1591450Y-409650D01*
X1591450Y-409650D02*
X1594850Y-413050D01*
X1594850Y-413050D02*
X1600000Y-414750D01*
X1600000Y-414750D02*
X1620550Y-414750D01*
X1567200Y-389100D02*
X1536400Y-389100D01*
X1536400Y-389100D02*
X1536400Y-373700D01*
X1536400Y-373700D02*
X1538100Y-368550D01*
X1538100Y-368550D02*
X1541550Y-365150D01*
X1541550Y-365150D02*
X1546650Y-363400D01*
X1546650Y-363400D02*
X1556950Y-363400D01*
X1556950Y-363400D02*
X1562100Y-365150D01*
X1562100Y-365150D02*
X1565500Y-368550D01*
X1565500Y-368550D02*
X1567200Y-373700D01*
X1567200Y-373700D02*
X1567200Y-404500D01*
X1567200Y-404500D02*
X1565500Y-409650D01*
X1565500Y-409650D02*
X1562100Y-413050D01*
X1562100Y-413050D02*
X1556950Y-414750D01*
X1556950Y-414750D02*
X1538100Y-414750D01*
X1513900Y-414750D02*
X1513900Y-363400D01*
X1513900Y-363400D02*
X1495050Y-363400D01*
X1495050Y-363400D02*
X1489900Y-365150D01*
X1489900Y-365150D02*
X1486500Y-368550D01*
X1486500Y-368550D02*
X1484800Y-371950D01*
X1484800Y-371950D02*
X1484800Y-375400D01*
D12*

G04 Step and Repeat for panelization *
%SRX3Y7I0.944882J0.413386*%

G04 ----------------------- Draw board outline (positive)*
D14*
G04 driwing hatch*
X451400Y-184200D02*
X419350Y-184200D01*
X368000Y-184200D02*
X-451450Y-184250D01*
X451400Y-179450D02*
X424100Y-179450D01*
X363250Y-179450D02*
X-451450Y-179550D01*
X451400Y-174700D02*
X428850Y-174700D01*
X358500Y-174700D02*
X-451450Y-174800D01*
X451400Y-170000D02*
X433550Y-170000D01*
X353800Y-170000D02*
X-451450Y-170050D01*
X451400Y-165250D02*
X436300Y-165250D01*
X351050Y-165250D02*
X-451450Y-165350D01*
X451400Y-160500D02*
X436300Y-160500D01*
X351050Y-160500D02*
X-451450Y-160600D01*
X451400Y-155800D02*
X436300Y-155800D01*
X351050Y-155800D02*
X-451450Y-155850D01*
X451400Y-151050D02*
X436300Y-151050D01*
X351050Y-151050D02*
X-451450Y-151150D01*
X451400Y-146300D02*
X436300Y-146300D01*
X351050Y-146300D02*
X-451450Y-146400D01*
X451400Y-141550D02*
X436300Y-141550D01*
X351050Y-141600D02*
X-451450Y-141650D01*
X451400Y-136850D02*
X436300Y-136850D01*
X351050Y-136850D02*
X-451450Y-136950D01*
X451400Y-132100D02*
X436300Y-132100D01*
X351050Y-132100D02*
X-451450Y-132200D01*
X451400Y-127350D02*
X435700Y-127350D01*
X351650Y-127400D02*
X-451450Y-127450D01*
X451400Y-122650D02*
X430950Y-122650D01*
X356400Y-122650D02*
X-451450Y-122700D01*
X451400Y-117900D02*
X426250Y-117900D01*
X361100Y-117900D02*
X-451450Y-118000D01*
X451400Y-113150D02*
X421500Y-113150D01*
X365850Y-113150D02*
X-451450Y-113250D01*
X451400Y-108450D02*
X416750Y-108450D01*
X370600Y-108450D02*
X-451450Y-108500D01*
X-451450Y-103800D02*
X451400Y-103700D01*
X-451450Y-99050D02*
X451400Y-98950D01*
X-451450Y-94300D02*
X451400Y-94250D01*
X-451450Y-89600D02*
X451400Y-89500D01*
X451400Y-84750D02*
X-371400Y-84850D01*
X-415950Y-84850D02*
X-451450Y-84850D01*
X451400Y-80000D02*
X242900Y-80050D01*
X21950Y-80050D02*
X-70450Y-80100D01*
X-317400Y-80100D02*
X-366650Y-80100D01*
X-420700Y-80100D02*
X-451450Y-80100D01*
X451400Y-75300D02*
X249550Y-75300D01*
X15100Y-75350D02*
X-63600Y-75350D01*
X-324100Y-75350D02*
X-361900Y-75350D01*
X-425450Y-75400D02*
X-451450Y-75400D01*
X451400Y-70550D02*
X252750Y-70600D01*
X10350Y-70600D02*
X-58850Y-70600D01*
X-327250Y-70650D02*
X-357200Y-70650D01*
X-430150Y-70650D02*
X-451450Y-70650D01*
X451400Y-65800D02*
X255200Y-65850D01*
X5650Y-65850D02*
X-54150Y-65850D01*
X-329750Y-65900D02*
X-352450Y-65900D01*
X-434900Y-65900D02*
X-451450Y-65900D01*
X451400Y-61100D02*
X256100Y-61100D01*
X-330650Y-61150D02*
X-351050Y-61150D01*
X-436300Y-61200D02*
X-451450Y-61200D01*
X451400Y-56350D02*
X256850Y-56350D01*
X-331450Y-56450D02*
X-351050Y-56450D01*
X-436300Y-56450D02*
X-451450Y-56450D01*
X451400Y-51600D02*
X414150Y-51600D01*
X373200Y-51650D02*
X256850Y-51650D01*
X-331450Y-51700D02*
X-351050Y-51700D01*
X-436300Y-51700D02*
X-451450Y-51700D01*
X451400Y-46900D02*
X418850Y-46900D01*
X368500Y-46900D02*
X256850Y-46900D01*
X-331450Y-46950D02*
X-351050Y-46950D01*
X-436300Y-46950D02*
X-451450Y-46950D01*
X451400Y-42150D02*
X423600Y-42150D01*
X363750Y-42150D02*
X256850Y-42150D01*
X-331450Y-42250D02*
X-351050Y-42250D01*
X-436300Y-42250D02*
X-451450Y-42250D01*
X451400Y-37400D02*
X428350Y-37400D01*
X359000Y-37400D02*
X256850Y-37450D01*
X-331450Y-37500D02*
X-351050Y-37500D01*
X-436300Y-37500D02*
X-451450Y-37500D01*
X451400Y-32700D02*
X433100Y-32700D01*
X354300Y-32700D02*
X256850Y-32700D01*
X-331450Y-32750D02*
X-351050Y-32750D01*
X-436300Y-32750D02*
X-451450Y-32750D01*
X451400Y-27950D02*
X436300Y-27950D01*
X351050Y-27950D02*
X256850Y-27950D01*
X-331450Y-28000D02*
X-351050Y-28050D01*
X-436300Y-28050D02*
X-451450Y-28050D01*
X451400Y-23200D02*
X436300Y-23200D01*
X351050Y-23200D02*
X256850Y-23250D01*
X-331450Y-23300D02*
X-353000Y-23300D01*
X-434350Y-23300D02*
X-451450Y-23300D01*
X451400Y-18500D02*
X436300Y-18500D01*
X351050Y-18500D02*
X256850Y-18500D01*
X-331450Y-18550D02*
X-357700Y-18550D01*
X-429650Y-18550D02*
X-451450Y-18550D01*
X451400Y-13750D02*
X436300Y-13750D01*
X351050Y-13750D02*
X256850Y-13750D01*
X-331450Y-13800D02*
X-362450Y-13800D01*
X-424900Y-13850D02*
X-451450Y-13850D01*
X451400Y-9000D02*
X436300Y-9000D01*
X351050Y-9000D02*
X256850Y-9050D01*
X-331450Y-9100D02*
X-367200Y-9100D01*
X-420150Y-9100D02*
X-451450Y-9100D01*
X451400Y-4250D02*
X436300Y-4300D01*
X351050Y-4300D02*
X256850Y-4300D01*
X-331450Y-4350D02*
X-371900Y-4350D01*
X-415450Y-4350D02*
X-451450Y-4350D01*
X451400Y400D02*
X436300Y400D01*
X351050Y400D02*
X256850Y400D01*
X-331450Y350D02*
X-451450Y300D01*
X451400Y5150D02*
X436300Y5150D01*
X351050Y5150D02*
X256850Y5150D01*
X-331450Y5050D02*
X-451450Y5050D01*
X451400Y9900D02*
X436200Y9900D01*
X351150Y9850D02*
X256250Y9850D01*
X-330850Y9800D02*
X-451450Y9800D01*
X451400Y14600D02*
X431450Y14600D01*
X355900Y14600D02*
X255300Y14600D01*
X-329900Y14550D02*
X-451450Y14500D01*
X451400Y19350D02*
X426750Y19350D01*
X360600Y19350D02*
X253200Y19350D01*
X-327800Y19250D02*
X-451450Y19250D01*
X451400Y24100D02*
X422000Y24100D01*
X365350Y24050D02*
X250050Y24050D01*
X-324650Y24000D02*
X-451450Y24000D01*
X451400Y28800D02*
X417250Y28800D01*
X370100Y28800D02*
X244000Y28800D01*
X-318600Y28750D02*
X-451450Y28750D01*
X-451450Y33450D02*
X451400Y33550D01*
X-451450Y38200D02*
X451400Y38300D01*
X-451450Y42950D02*
X451400Y43000D01*
X-451450Y47650D02*
X451400Y47750D01*
X-451450Y52400D02*
X451400Y52500D01*
X-451450Y57150D02*
X451400Y57200D01*
X-451450Y61850D02*
X451400Y61950D01*
X-451450Y66600D02*
X451400Y66700D01*
X-451450Y71350D02*
X451400Y71450D01*
X-451450Y76050D02*
X451400Y76150D01*
X-451450Y80800D02*
X451400Y80900D01*
X451400Y85650D02*
X-373800Y85550D01*
X-413550Y85550D02*
X-451450Y85550D01*
X451400Y90350D02*
X-369050Y90300D01*
X-418300Y90300D02*
X-451450Y90250D01*
X451400Y95100D02*
X-364300Y95000D01*
X-423050Y95000D02*
X-451450Y95000D01*
X451400Y99850D02*
X-359600Y99750D01*
X-427750Y99750D02*
X-451450Y99750D01*
X451400Y104550D02*
X-354850Y104500D01*
X-432500Y104500D02*
X-451450Y104500D01*
X451400Y109300D02*
X-351050Y109200D01*
X-436300Y109200D02*
X-451450Y109200D01*
X451400Y114050D02*
X-351050Y113950D01*
X-436300Y113950D02*
X-451450Y113950D01*
X451400Y118750D02*
X-351050Y118700D01*
X-436300Y118700D02*
X-451450Y118700D01*
X451400Y123500D02*
X-351050Y123400D01*
X-436300Y123400D02*
X-451450Y123400D01*
X451400Y128250D02*
X-351050Y128150D01*
X-436300Y128150D02*
X-451450Y128150D01*
X451400Y132950D02*
X-351050Y132900D01*
X-436300Y132900D02*
X-451450Y132900D01*
X451400Y137700D02*
X-351050Y137650D01*
X-436300Y137600D02*
X-451450Y137600D01*
X451400Y142450D02*
X-351050Y142350D01*
X-436300Y142350D02*
X-451450Y142350D01*
X451400Y147200D02*
X-351050Y147100D01*
X-436300Y147100D02*
X-451450Y147100D01*
X451400Y151900D02*
X-355300Y151850D01*
X-432050Y151800D02*
X-451450Y151800D01*
X451400Y156650D02*
X-360050Y156550D01*
X-427300Y156550D02*
X-451450Y156550D01*
X451400Y161400D02*
X-364800Y161300D01*
X-422600Y161300D02*
X-451450Y161300D01*
X451400Y166100D02*
X-369500Y166050D01*
X-417850Y166050D02*
X-451450Y166000D01*
X-451450Y170750D02*
X451400Y170850D01*
X-451450Y175500D02*
X451400Y175600D01*
X-451450Y180250D02*
X451400Y180300D01*
X-451450Y184950D02*
X451400Y185050D01*
D13*
X451446Y-185730D02*
X417874Y-185730D01*
X436324Y-167280D01*
X436324Y-127995D01*
X413343Y-105014D01*
X374058Y-105014D01*
X351077Y-127995D01*
X351077Y-167280D01*
X369527Y-185730D01*
X-451478Y-185730D01*
X-451478Y185694D01*
X451446Y185694D01*
X451446Y-185730D01*
X230786Y32962D02*
X-305348Y32962D01*
X-315337Y30975D01*
X-323805Y25316D01*
X-329464Y16848D01*
X-331450Y6859D01*
X-331450Y-57407D01*
X-329464Y-67396D01*
X-323805Y-75865D01*
X-315337Y-81523D01*
X-305348Y-83510D01*
X-82587Y-83510D01*
X-72598Y-81523D01*
X-64130Y-75865D01*
X-53507Y-65241D01*
X5013Y-65241D01*
X15637Y-75865D01*
X24105Y-81523D01*
X34094Y-83510D01*
X230786Y-83510D01*
X240775Y-81523D01*
X245852Y-78131D01*
X249244Y-75865D01*
X252635Y-70788D01*
X254902Y-67396D01*
X256889Y-57407D01*
X256889Y-57407D01*
X256889Y6859D01*
X256889Y6859D01*
X254902Y16848D01*
X251510Y21925D01*
X249244Y25316D01*
X244167Y28708D01*
X240775Y30975D01*
X230786Y32962D01*
X-351077Y-25252D02*
X-374058Y-2271D01*
X-413343Y-2271D01*
X-436324Y-25252D01*
X-436324Y-64537D01*
X-413343Y-87518D01*
X-374058Y-87518D01*
X-351077Y-64537D01*
X-351077Y-25252D01*
X436324Y9800D02*
X413343Y32781D01*
X374058Y32781D01*
X351077Y9800D01*
X351077Y-29485D01*
X374058Y-52466D01*
X413343Y-52466D01*
X436324Y-29485D01*
X436324Y9800D01*
X-436324Y108310D02*
X-413343Y85329D01*
X-374058Y85329D01*
X-351077Y108310D01*
X-351077Y147595D01*
X-374058Y170576D01*
X-413343Y170576D01*
X-436324Y147595D01*
X-436324Y108310D01*
D14*
G04 driwing hatch*
X230750Y-56650D02*
X33350Y-56650D01*
X-81850Y-56700D02*
X-305300Y-56700D01*
X230750Y-51900D02*
X28600Y-51950D01*
X-77100Y-51950D02*
X-305300Y-51950D01*
X230750Y-47200D02*
X23900Y-47200D01*
X-72400Y-47200D02*
X-305300Y-47250D01*
X230750Y-42450D02*
X19150Y-42450D01*
X-67650Y-42450D02*
X-305300Y-42500D01*
X-305300Y-37750D02*
X230750Y-37700D01*
X-305300Y-33050D02*
X230750Y-32950D01*
X-305300Y-28300D02*
X230750Y-28250D01*
X-305300Y-23550D02*
X230750Y-23500D01*
X-305300Y-18800D02*
X230750Y-18750D01*
X-305300Y-14100D02*
X230750Y-14050D01*
X-305300Y-9350D02*
X230750Y-9300D01*
X-305300Y-4600D02*
X230750Y-4550D01*
X-305300Y50D02*
X230750Y100D01*
X-305300Y4800D02*
X230750Y4850D01*
D13*
X230786Y-57407D02*
X34094Y-57407D01*
X15825Y-39139D01*
X-64318Y-39139D01*
X-82587Y-57407D01*
X-305348Y-57407D01*
X-305348Y6859D01*
X230786Y6859D01*
X230786Y-57407D01*

G04 -------------- Draw Parts, Pads, Traces, Vias and Text (positive)*
D15*
X-393700Y-44894D03*
X393700Y-147637D03*
X393700Y-9842D03*
D16*
X-22986Y-99028D03*
X-42671Y-69501D03*
X-3301Y-69501D03*
X-3301Y-128556D03*
X-42671Y-128556D03*
D15*
X-393700Y127952D03*

G04 Draw traces*
D16*
X-310697Y-157099D03*
X202485Y-35052D03*
X-131220Y-32888D03*
X-95821Y-32888D03*
X-275590Y-36165D03*

G04 Draw Text*
D12*

G04 EOF Step and Repeat for panelization *
%SR*%
M02*
