;Holesize 1 =   39.0 MILS
;Holesize 2 =   19.0 MILS
;Holesize 3 =   78.0 MILS
M48
INCH,00.0000
T01C0.039
T02C0.019
T03C0.078
%
G05
G90
T01
X-003937Y-000448
X003937Y-001476
X003937Y-000098
X-003937Y001279
X-003937Y003684
X003937Y002657
X003937Y004035
X-003937Y005413
X-003937Y007818
X003937Y006791
X003937Y008169
X-003937Y009547
X-003937Y011952
X003937Y010925
X003937Y012303
X-003937Y013681
X-003937Y016086
X003937Y015059
X003937Y016437
X-003937Y017814
X-003937Y020220
X003937Y019192
X003937Y020570
X-003937Y021948
X-003937Y024354
X003937Y023326
X003937Y024704
X-003937Y026082
X005511Y-000448
X013385Y-001476
X013385Y-000098
X005511Y001279
X005511Y003684
X013385Y002657
X013385Y004035
X005511Y005413
X005511Y007818
X013385Y006791
X013385Y008169
X005511Y009547
X005511Y011952
X013385Y010925
X013385Y012303
X005511Y013681
X005511Y016086
X013385Y015059
X013385Y016437
X005511Y017814
X005511Y020220
X013385Y019192
X013385Y020570
X005511Y021948
X005511Y024354
X013385Y023326
X013385Y024704
X005511Y026082
X014960Y-000448
X022834Y-001476
X022834Y-000098
X014960Y001279
X014960Y003684
X022834Y002657
X022834Y004035
X014960Y005413
X014960Y007818
X022834Y006791
X022834Y008169
X014960Y009547
X014960Y011952
X022834Y010925
X022834Y012303
X014960Y013681
X014960Y016086
X022834Y015059
X022834Y016437
X014960Y017814
X014960Y020220
X022834Y019192
X022834Y020570
X014960Y021948
X014960Y024354
X022834Y023326
X022834Y024704
X014960Y026082
T02
X-000229Y-000990
X-000426Y-000695
X-000033Y-000695
X-000033Y-001285
X-000426Y-001285
X-003106Y-001570
X002024Y-000350
X-001312Y-000328
X-000958Y-000328
X-002755Y-000361
X-000229Y003143
X-000426Y003438
X-000033Y003438
X-000033Y002848
X-000426Y002848
X-003106Y002562
X002024Y003783
X-001312Y003804
X-000958Y003804
X-002755Y003772
X-000229Y007277
X-000426Y007572
X-000033Y007572
X-000033Y006982
X-000426Y006982
X-003106Y006696
X002024Y007917
X-001312Y007938
X-000958Y007938
X-002755Y007906
X-000229Y011411
X-000426Y011706
X-000033Y011706
X-000033Y011116
X-000426Y011116
X-003106Y010830
X002024Y012051
X-001312Y012072
X-000958Y012072
X-002755Y012039
X-000229Y015545
X-000426Y015840
X-000033Y015840
X-000033Y015249
X-000426Y015249
X-003106Y014964
X002024Y016184
X-001312Y016206
X-000958Y016206
X-002755Y016173
X-000229Y019679
X-000426Y019974
X-000033Y019974
X-000033Y019383
X-000426Y019383
X-003106Y019098
X002024Y020318
X-001312Y020340
X-000958Y020340
X-002755Y020307
X-000229Y023812
X-000426Y024108
X-000033Y024108
X-000033Y023517
X-000426Y023517
X-003106Y023232
X002024Y024452
X-001312Y024474
X-000958Y024474
X-002755Y024441
X009218Y-000990
X009022Y-000695
X009415Y-000695
X009415Y-001285
X009022Y-001285
X006341Y-001570
X011473Y-000350
X008136Y-000328
X008490Y-000328
X006692Y-000361
X009218Y003143
X009022Y003438
X009415Y003438
X009415Y002848
X009022Y002848
X006341Y002562
X011473Y003783
X008136Y003804
X008490Y003804
X006692Y003772
X009218Y007277
X009022Y007572
X009415Y007572
X009415Y006982
X009022Y006982
X006341Y006696
X011473Y007917
X008136Y007938
X008490Y007938
X006692Y007906
X009218Y011411
X009022Y011706
X009415Y011706
X009415Y011116
X009022Y011116
X006341Y010830
X011473Y012051
X008136Y012072
X008490Y012072
X006692Y012039
X009218Y015545
X009022Y015840
X009415Y015840
X009415Y015249
X009022Y015249
X006341Y014964
X011473Y016184
X008136Y016206
X008490Y016206
X006692Y016173
X009218Y019679
X009022Y019974
X009415Y019974
X009415Y019383
X009022Y019383
X006341Y019098
X011473Y020318
X008136Y020340
X008490Y020340
X006692Y020307
X009218Y023812
X009022Y024108
X009415Y024108
X009415Y023517
X009022Y023517
X006341Y023232
X011473Y024452
X008136Y024474
X008490Y024474
X006692Y024441
X018667Y-000990
X018470Y-000695
X018864Y-000695
X018864Y-001285
X018470Y-001285
X015790Y-001570
X020922Y-000350
X017585Y-000328
X017939Y-000328
X016141Y-000361
X018667Y003143
X018470Y003438
X018864Y003438
X018864Y002848
X018470Y002848
X015790Y002562
X020922Y003783
X017585Y003804
X017939Y003804
X016141Y003772
X018667Y007277
X018470Y007572
X018864Y007572
X018864Y006982
X018470Y006982
X015790Y006696
X020922Y007917
X017585Y007938
X017939Y007938
X016141Y007906
X018667Y011411
X018470Y011706
X018864Y011706
X018864Y011116
X018470Y011116
X015790Y010830
X020922Y012051
X017585Y012072
X017939Y012072
X016141Y012039
X018667Y015545
X018470Y015840
X018864Y015840
X018864Y015249
X018470Y015249
X015790Y014964
X020922Y016184
X017585Y016206
X017939Y016206
X016141Y016173
X018667Y019679
X018470Y019974
X018864Y019974
X018864Y019383
X018470Y019383
X015790Y019098
X020922Y020318
X017585Y020340
X017939Y020340
X016141Y020307
X018667Y023812
X018470Y024108
X018864Y024108
X018864Y023517
X018470Y023517
X015790Y023232
X020922Y024452
X017585Y024474
X017939Y024474
X016141Y024441
T03
X-006299Y-003641
X-006299Y028444
X025196Y-003641
X025196Y028444
M30
