G04 FreePCB MFC Application*
G04 Version: ѕлат‘орм 2.427*
G04 Author: niconson.com *
G04 WebSite: https://niconson.com/freepcb2 *
G04 Repositories: https://github.com/niconson *
G04 D:\Works\ѕлат‘орм на русском\Projects\Led\version-01\(wERRORS)CAM(Driver-01)(9-14-2025)\Driver-01.BOT.gbr*

G04 Objects of panelization *
G04 медь низ layer *
G04 Scale: 100 percent, Rotated: No, Reflected: No *
%FSLAX26Y26*%
%MOIN*%
G04 медь низ *
G04 Rounded Rectangle Macro, params: W/2, H/2, R *
%AMRNDREC*
21,1,$1+$1,$2+$2-$3-$3,0,0,0*
21,1,$1+$1-$3-$3,$2+$2,0,0,0*
1,1,$3+$3,$1-$3,$2-$3*
1,1,$3+$3,$3-$1,$2-$3*
1,1,$3+$3,$1-$3,$3-$2*
1,1,$3+$3,$3-$1,$3-$2*%
G04 Rectangular Thermal Macro, params: W/4, H/4, TW/4, TC/4 *
%AMRECTHERM*
21,1,$1+$1-$3-$3-$4-$4,$2+$2-$3-$3-$4-$4-$4-$4,0-$1-$3-$4,0-$2-$3,0*
21,1,$1+$1-$3-$3-$4-$4-$4-$4,$2+$2-$3-$3-$4-$4,0-$1-$3,0-$2-$3-$4,0*
1,1,$4+$4+$4+$4,0-$1-$1+$4+$4,0-$2-$2+$4+$4*
1,1,$4+$4+$4+$4,0-$1-$1+$4+$4,0-$3-$3-$4-$4*
1,1,$4+$4+$4+$4,0-$3-$3-$4-$4,0-$2-$2+$4+$4*
21,1,$1+$1-$3-$3-$4-$4,$2+$2-$3-$3-$4-$4-$4-$4,0-$1-$3-$4,$2+$3,0*
21,1,$1+$1-$3-$3-$4-$4-$4-$4,$2+$2-$3-$3-$4-$4,0-$1-$3,$2+$3+$4,0*
1,1,$4+$4+$4+$4,0-$1-$1+$4+$4,$2+$2-$4-$4*
1,1,$4+$4+$4+$4,0-$1-$1+$4+$4,$3+$3+$4+$4*
1,1,$4+$4+$4+$4,0-$3-$3-$4-$4,$2+$2-$4-$4*
21,1,$1+$1-$3-$3-$4-$4,$2+$2-$3-$3-$4-$4-$4-$4,$1+$3+$4,0-$2-$3,0*
21,1,$1+$1-$3-$3-$4-$4-$4-$4,$2+$2-$3-$3-$4-$4,$1+$3,0-$2-$3-$4,0*
1,1,$4+$4+$4+$4,$1+$1-$4-$4,0-$2-$2+$4+$4*
1,1,$4+$4+$4+$4,$1+$1-$4-$4,0-$3-$3-$4-$4*
1,1,$4+$4+$4+$4,$3+$3+$4+$4,0-$2-$2+$4+$4*
21,1,$1+$1-$3-$3-$4-$4,$2+$2-$3-$3-$4-$4-$4-$4,$1+$3+$4,$2+$3,0*
21,1,$1+$1-$3-$3-$4-$4-$4-$4,$2+$2-$3-$3-$4-$4,$1+$3,$2+$3+$4,0*
1,1,$4+$4+$4+$4,$1+$1-$4-$4,$2+$2-$4-$4*
1,1,$4+$4+$4+$4,$1+$1-$4-$4,$3+$3+$4+$4*
1,1,$4+$4+$4+$4,$3+$3+$4+$4,$2+$2-$4-$4*%
%AMRECTHERM_45*
21,1,$1+$1+$1+$1,$2+$2+$2+$2-$4-$4-$4-$4-$4-$4-$4-$4-$4-$4-$3-$3,0,0,0*
21,1,$1+$1+$1+$1-$4-$4-$4-$4-$4-$4-$4-$4-$4-$4-$3-$3,$2+$2+$2+$2,0,0,0*
1,1,$4+$4+$4+$4,$1+$1-$4-$4,$2+$2-$4-$4-$4-$4-$4-$3*
1,1,$4+$4+$4+$4,$1+$1-$4-$4,0-$2-$2+$4+$4+$4+$4+$4+$3*
1,1,$4+$4+$4+$4,$1+$1-$4-$4-$4-$4-$4-$3,$2+$2-$4-$4*
1,1,$4+$4+$4+$4,0-$1-$1+$4+$4+$4+$4+$4+$3,$2+$2-$4-$4*
1,1,$4+$4+$4+$4,0-$1-$1+$4+$4,$2+$2-$4-$4-$4-$4-$4-$3*
1,1,$4+$4+$4+$4,0-$1-$1+$4+$4,0-$2-$2+$4+$4+$4+$4+$4+$3*
1,1,$4+$4+$4+$4,$1+$1-$4-$4-$4-$4-$4-$3,0-$2-$2+$4+$4*
1,1,$4+$4+$4+$4,0-$1-$1+$4+$4+$4+$4+$4+$3,0-$2-$2+$4+$4*%
%ADD10R,0.039370X0.039370*%
%ADD11C,0.028121*%
%ADD12C,0.010000*%
%ADD13C,0.011811*%
%ADD14C,0.010630*%
%ADD15C,0.035433*%
%ADD16C,0.039370*%
G01*
G04 begin color: clBlack*
%LPD*%

G04 Objects of panelization *
D10*
X-590551Y-846456D03*
X5275590Y5846456D03*
X-590551Y5846456D03*
X5275590Y-846456D03*
D11*
X4881850Y-947300D02*
X4877600Y-960150D01*
X4877600Y-960150D02*
X4869050Y-968700D01*
X4869050Y-968700D02*
X4856200Y-973000D01*
X4856200Y-973000D02*
X4817650Y-973000D01*
X4817650Y-973000D02*
X4804850Y-968700D01*
X4804850Y-968700D02*
X4796300Y-960150D01*
X4796300Y-960150D02*
X4792000Y-947300D01*
X4792000Y-947300D02*
X4792000Y-806100D01*
X4792000Y-806100D02*
X4796300Y-793250D01*
X4796300Y-793250D02*
X4804850Y-784700D01*
X4804850Y-784700D02*
X4817650Y-780400D01*
X4817650Y-780400D02*
X4856200Y-780400D01*
X4856200Y-780400D02*
X4869050Y-784700D01*
X4869050Y-784700D02*
X4877600Y-793250D01*
X4877600Y-793250D02*
X4881850Y-806100D01*
X4881850Y-806100D02*
X4881850Y-947300D01*
X4735700Y-973000D02*
X4735700Y-844600D01*
X4735700Y-844600D02*
X4684350Y-844600D01*
X4684350Y-844600D02*
X4671500Y-848900D01*
X4671500Y-848900D02*
X4662950Y-857450D01*
X4662950Y-857450D02*
X4658650Y-870250D01*
X4658650Y-870250D02*
X4658650Y-973000D01*
X4542450Y-780400D02*
X4602350Y-780400D01*
X4602350Y-780400D02*
X4602350Y-973000D01*
X4602350Y-973000D02*
X4533900Y-973000D01*
X4533900Y-973000D02*
X4521050Y-968700D01*
X4521050Y-968700D02*
X4512500Y-960150D01*
X4512500Y-960150D02*
X4508200Y-947300D01*
X4508200Y-947300D02*
X4508200Y-891650D01*
X4508200Y-891650D02*
X4512500Y-878850D01*
X4512500Y-878850D02*
X4521050Y-870250D01*
X4542450Y-780400D02*
X4529600Y-784700D01*
X4529600Y-784700D02*
X4521050Y-793250D01*
X4521050Y-793250D02*
X4516750Y-806100D01*
X4516750Y-806100D02*
X4516750Y-840300D01*
X4516750Y-840300D02*
X4521050Y-853150D01*
X4521050Y-853150D02*
X4529600Y-861700D01*
X4529600Y-861700D02*
X4542450Y-866000D01*
X4521050Y-870250D02*
X4533900Y-866000D01*
X4533900Y-866000D02*
X4602350Y-866000D01*
X4451900Y-947300D02*
X4447600Y-960150D01*
X4447600Y-960150D02*
X4439050Y-968700D01*
X4439050Y-968700D02*
X4426250Y-973000D01*
X4426250Y-973000D02*
X4400550Y-973000D01*
X4400550Y-973000D02*
X4387700Y-968700D01*
X4387700Y-968700D02*
X4379150Y-960150D01*
X4379150Y-960150D02*
X4374900Y-947300D01*
X4374900Y-947300D02*
X4374900Y-870250D01*
X4374900Y-870250D02*
X4379150Y-857450D01*
X4379150Y-857450D02*
X4387700Y-848900D01*
X4387700Y-848900D02*
X4400550Y-844600D01*
X4400550Y-844600D02*
X4426250Y-844600D01*
X4426250Y-844600D02*
X4439050Y-848900D01*
X4439050Y-848900D02*
X4447600Y-857450D01*
X4447600Y-857450D02*
X4451900Y-870250D01*
X4451900Y-870250D02*
X4451900Y-947300D01*
X4305750Y-780400D02*
X4305750Y-973000D01*
X4318550Y-844600D02*
X4271500Y-844600D01*
X4138150Y-973000D02*
X4189500Y-973000D01*
X4189500Y-973000D02*
X4202350Y-968700D01*
X4202350Y-968700D02*
X4210900Y-960150D01*
X4210900Y-960150D02*
X4215200Y-947300D01*
X4215200Y-947300D02*
X4215200Y-806100D01*
X4215200Y-806100D02*
X4210900Y-793250D01*
X4210900Y-793250D02*
X4202350Y-784700D01*
X4202350Y-784700D02*
X4189500Y-780400D01*
X4189500Y-780400D02*
X4138150Y-780400D01*
X4081850Y-947300D02*
X4077550Y-960150D01*
X4077550Y-960150D02*
X4069000Y-968700D01*
X4069000Y-968700D02*
X4056200Y-973000D01*
X4056200Y-973000D02*
X4030500Y-973000D01*
X4030500Y-973000D02*
X4017650Y-968700D01*
X4017650Y-968700D02*
X4009100Y-960150D01*
X4009100Y-960150D02*
X4004800Y-947300D01*
X4004800Y-947300D02*
X4004800Y-870250D01*
X4004800Y-870250D02*
X4009100Y-857450D01*
X4009100Y-857450D02*
X4017650Y-848900D01*
X4017650Y-848900D02*
X4030500Y-844600D01*
X4030500Y-844600D02*
X4056200Y-844600D01*
X4056200Y-844600D02*
X4069000Y-848900D01*
X4069000Y-848900D02*
X4077550Y-857450D01*
X4077550Y-857450D02*
X4081850Y-870250D01*
X4081850Y-870250D02*
X4081850Y-947300D01*
X3948500Y-1020050D02*
X3948500Y-844600D01*
X3948500Y-844600D02*
X3897150Y-844600D01*
X3897150Y-844600D02*
X3884350Y-848900D01*
X3884350Y-848900D02*
X3875750Y-857450D01*
X3875750Y-857450D02*
X3871500Y-870250D01*
X3871500Y-870250D02*
X3871500Y-947300D01*
X3871500Y-947300D02*
X3875750Y-960150D01*
X3875750Y-960150D02*
X3884350Y-968700D01*
X3884350Y-968700D02*
X3897150Y-973000D01*
X3897150Y-973000D02*
X3948500Y-973000D01*
X3815200Y-1020050D02*
X3815200Y-844600D01*
X3815200Y-844600D02*
X3763850Y-844600D01*
X3763850Y-844600D02*
X3751000Y-848900D01*
X3751000Y-848900D02*
X3742450Y-857450D01*
X3742450Y-857450D02*
X3738150Y-870250D01*
X3738150Y-870250D02*
X3738150Y-947300D01*
X3738150Y-947300D02*
X3742450Y-960150D01*
X3742450Y-960150D02*
X3751000Y-968700D01*
X3751000Y-968700D02*
X3763850Y-973000D01*
X3763850Y-973000D02*
X3815200Y-973000D01*
X3681850Y-908800D02*
X3604800Y-908800D01*
X3604800Y-908800D02*
X3604800Y-870250D01*
X3604800Y-870250D02*
X3609100Y-857450D01*
X3609100Y-857450D02*
X3617650Y-848900D01*
X3617650Y-848900D02*
X3630500Y-844600D01*
X3630500Y-844600D02*
X3656150Y-844600D01*
X3656150Y-844600D02*
X3669000Y-848900D01*
X3669000Y-848900D02*
X3677550Y-857450D01*
X3677550Y-857450D02*
X3681850Y-870250D01*
X3681850Y-870250D02*
X3681850Y-947300D01*
X3681850Y-947300D02*
X3677550Y-960150D01*
X3677550Y-960150D02*
X3669000Y-968700D01*
X3669000Y-968700D02*
X3656150Y-973000D01*
X3656150Y-973000D02*
X3609100Y-973000D01*
X3548500Y-973000D02*
X3548500Y-844600D01*
X3548500Y-844600D02*
X3501450Y-844600D01*
X3501450Y-844600D02*
X3488600Y-848900D01*
X3488600Y-848900D02*
X3480050Y-857450D01*
X3480050Y-857450D02*
X3475750Y-866000D01*
X3475750Y-866000D02*
X3475750Y-874550D01*
D12*

G04 Step and Repeat for panelization *
%SRX6Y10I1.141732J0.610236*%

G04 ----------------------- Draw board outline (positive)*
D14*
G04 driwing hatch*
X-967100Y-434700D02*
X-56500Y-434650D01*
X-967100Y-425250D02*
X-56500Y-425150D01*
X-967100Y-415800D02*
X-56500Y-415700D01*
X-967100Y-406350D02*
X-56500Y-406250D01*
X-967100Y-396900D02*
X-56500Y-396800D01*
X-967100Y-387400D02*
X-56500Y-387350D01*
X-967100Y-377950D02*
X-56500Y-377850D01*
X-967100Y-368500D02*
X-56500Y-368400D01*
X-967100Y-359050D02*
X-56500Y-358950D01*
X-967100Y-349600D02*
X-56500Y-349500D01*
X-967100Y-340150D02*
X-56500Y-340050D01*
X-56500Y-330600D02*
X-264900Y-330600D01*
X-833100Y-330650D02*
X-967100Y-330650D01*
X-56500Y-321100D02*
X-254950Y-321150D01*
X-843150Y-321200D02*
X-967100Y-321200D01*
X-56500Y-311650D02*
X-250500Y-311700D01*
X-847600Y-311750D02*
X-967100Y-311750D01*
X-56500Y-302200D02*
X-248850Y-302200D01*
X-849250Y-302300D02*
X-967100Y-302300D01*
X-56500Y-292750D02*
X-248850Y-292750D01*
X-849250Y-292800D02*
X-967100Y-292850D01*
X-56500Y-283300D02*
X-248850Y-283300D01*
X-849250Y-283350D02*
X-967100Y-283400D01*
X-56500Y-273850D02*
X-248850Y-273850D01*
X-849250Y-273900D02*
X-967100Y-273900D01*
X-56500Y-264350D02*
X-248850Y-264400D01*
X-849250Y-264450D02*
X-967100Y-264450D01*
X-56500Y-254900D02*
X-248850Y-254950D01*
X-849250Y-255000D02*
X-967100Y-255000D01*
X-56500Y-245450D02*
X-248850Y-245450D01*
X-849250Y-245550D02*
X-967100Y-245550D01*
X-56500Y-236000D02*
X-249500Y-236000D01*
X-848650Y-236050D02*
X-967100Y-236100D01*
X-56500Y-226550D02*
X-251550Y-226550D01*
X-846650Y-226600D02*
X-967100Y-226600D01*
X-56500Y-217050D02*
X-257850Y-217100D01*
X-840300Y-217150D02*
X-967100Y-217150D01*
X-56500Y-207600D02*
X-278050Y-207650D01*
X-820350Y-207700D02*
X-967100Y-207700D01*
X-967100Y-198250D02*
X-56500Y-198150D01*
X-967100Y-188800D02*
X-56500Y-188700D01*
X-967100Y-179350D02*
X-56500Y-179250D01*
X-967100Y-169850D02*
X-56500Y-169800D01*
X-967100Y-160400D02*
X-56500Y-160300D01*
X-967100Y-150950D02*
X-56500Y-150850D01*
X-967100Y-141500D02*
X-56500Y-141400D01*
X-967100Y-132050D02*
X-56500Y-131950D01*
X-967100Y-122600D02*
X-56500Y-122500D01*
X-967100Y-113100D02*
X-56500Y-113050D01*
X-967100Y-103650D02*
X-56500Y-103550D01*
X-967100Y-94200D02*
X-56500Y-94100D01*
X-967100Y-84750D02*
X-56500Y-84650D01*
X-967100Y-75300D02*
X-56500Y-75200D01*
X-967100Y-65800D02*
X-56500Y-65750D01*
D13*
X-56549Y-435608D02*
X-967104Y-435608D01*
X-967104Y-56553D01*
X-56549Y-56553D01*
X-56549Y-435608D01*
X-281024Y-207077D02*
X-817159Y-207077D01*
X-829453Y-209522D01*
X-839876Y-216486D01*
X-846840Y-226909D01*
X-849285Y-239203D01*
X-849285Y-303470D01*
X-846840Y-315764D01*
X-839876Y-326187D01*
X-829453Y-333151D01*
X-817159Y-335596D01*
X-281024Y-335596D01*
X-268729Y-333151D01*
X-264555Y-330362D01*
X-258307Y-326187D01*
X-251343Y-315764D01*
X-248898Y-303470D01*
X-248898Y-303470D01*
X-248898Y-239203D01*
X-248898Y-239203D01*
X-250937Y-228948D01*
X-251343Y-226909D01*
X-254132Y-222734D01*
X-258307Y-216486D01*
X-268730Y-209522D01*
X-281024Y-207077D01*
D14*
G04 driwing hatch*
X-817150Y-302400D02*
X-281000Y-302350D01*
X-817150Y-292950D02*
X-281000Y-292900D01*
X-817150Y-283500D02*
X-281000Y-283450D01*
X-817150Y-274050D02*
X-281000Y-274000D01*
X-817150Y-264600D02*
X-281000Y-264550D01*
X-817150Y-255100D02*
X-281000Y-255050D01*
X-817150Y-245650D02*
X-281000Y-245600D01*
D13*
X-281024Y-303470D02*
X-817159Y-303470D01*
X-817159Y-239203D01*
X-281024Y-239203D01*
X-281024Y-303470D01*

G04 -------------- Draw Parts, Pads, Traces, Vias and Text (positive)*
D15*
X-534797Y-345091D03*
X-515112Y-376587D03*
X-554482Y-376587D03*

G04 Draw traces*
D16*
X-822508Y-403162D03*
X-309325Y-281115D03*
X-643031Y-278951D03*
X-607632Y-278951D03*
X-787401Y-282228D03*

G04 Draw Text*
D12*
M02*
