G04 FreePCB MFC Application*
G04 Version: ѕлат‘орм 2.427*
G04 Author: niconson.com *
G04 WebSite: https://niconson.com/freepcb2 *
G04 Repositories: https://github.com/niconson *
G04 D:\Works\ѕлат‘орм на русском\Projects\Led\version-01\(wERRORS)CAM(Driver-01)(9-14-2025)\Driver-01.BSL.gbr*

G04 Objects of panelization *
G04 шЄлк низ layer *
G04 Scale: 100 percent, Rotated: No, Reflected: No *
%FSLAX26Y26*%
%MOIN*%
G04 шЄлк низ *
G04 Rounded Rectangle Macro, params: W/2, H/2, R *
%AMRNDREC*
21,1,$1+$1,$2+$2-$3-$3,0,0,0*
21,1,$1+$1-$3-$3,$2+$2,0,0,0*
1,1,$3+$3,$1-$3,$2-$3*
1,1,$3+$3,$3-$1,$2-$3*
1,1,$3+$3,$1-$3,$3-$2*
1,1,$3+$3,$3-$1,$3-$2*%
G04 Rectangular Thermal Macro, params: W/4, H/4, TW/4, TC/4 *
%AMRECTHERM*
21,1,$1+$1-$3-$3-$4-$4,$2+$2-$3-$3-$4-$4-$4-$4,0-$1-$3-$4,0-$2-$3,0*
21,1,$1+$1-$3-$3-$4-$4-$4-$4,$2+$2-$3-$3-$4-$4,0-$1-$3,0-$2-$3-$4,0*
1,1,$4+$4+$4+$4,0-$1-$1+$4+$4,0-$2-$2+$4+$4*
1,1,$4+$4+$4+$4,0-$1-$1+$4+$4,0-$3-$3-$4-$4*
1,1,$4+$4+$4+$4,0-$3-$3-$4-$4,0-$2-$2+$4+$4*
21,1,$1+$1-$3-$3-$4-$4,$2+$2-$3-$3-$4-$4-$4-$4,0-$1-$3-$4,$2+$3,0*
21,1,$1+$1-$3-$3-$4-$4-$4-$4,$2+$2-$3-$3-$4-$4,0-$1-$3,$2+$3+$4,0*
1,1,$4+$4+$4+$4,0-$1-$1+$4+$4,$2+$2-$4-$4*
1,1,$4+$4+$4+$4,0-$1-$1+$4+$4,$3+$3+$4+$4*
1,1,$4+$4+$4+$4,0-$3-$3-$4-$4,$2+$2-$4-$4*
21,1,$1+$1-$3-$3-$4-$4,$2+$2-$3-$3-$4-$4-$4-$4,$1+$3+$4,0-$2-$3,0*
21,1,$1+$1-$3-$3-$4-$4-$4-$4,$2+$2-$3-$3-$4-$4,$1+$3,0-$2-$3-$4,0*
1,1,$4+$4+$4+$4,$1+$1-$4-$4,0-$2-$2+$4+$4*
1,1,$4+$4+$4+$4,$1+$1-$4-$4,0-$3-$3-$4-$4*
1,1,$4+$4+$4+$4,$3+$3+$4+$4,0-$2-$2+$4+$4*
21,1,$1+$1-$3-$3-$4-$4,$2+$2-$3-$3-$4-$4-$4-$4,$1+$3+$4,$2+$3,0*
21,1,$1+$1-$3-$3-$4-$4-$4-$4,$2+$2-$3-$3-$4-$4,$1+$3,$2+$3+$4,0*
1,1,$4+$4+$4+$4,$1+$1-$4-$4,$2+$2-$4-$4*
1,1,$4+$4+$4+$4,$1+$1-$4-$4,$3+$3+$4+$4*
1,1,$4+$4+$4+$4,$3+$3+$4+$4,$2+$2-$4-$4*%
%AMRECTHERM_45*
21,1,$1+$1+$1+$1,$2+$2+$2+$2-$4-$4-$4-$4-$4-$4-$4-$4-$4-$4-$3-$3,0,0,0*
21,1,$1+$1+$1+$1-$4-$4-$4-$4-$4-$4-$4-$4-$4-$4-$3-$3,$2+$2+$2+$2,0,0,0*
1,1,$4+$4+$4+$4,$1+$1-$4-$4,$2+$2-$4-$4-$4-$4-$4-$3*
1,1,$4+$4+$4+$4,$1+$1-$4-$4,0-$2-$2+$4+$4+$4+$4+$4+$3*
1,1,$4+$4+$4+$4,$1+$1-$4-$4-$4-$4-$4-$3,$2+$2-$4-$4*
1,1,$4+$4+$4+$4,0-$1-$1+$4+$4+$4+$4+$4+$3,$2+$2-$4-$4*
1,1,$4+$4+$4+$4,0-$1-$1+$4+$4,$2+$2-$4-$4-$4-$4-$4-$3*
1,1,$4+$4+$4+$4,0-$1-$1+$4+$4,0-$2-$2+$4+$4+$4+$4+$4+$3*
1,1,$4+$4+$4+$4,$1+$1-$4-$4-$4-$4-$4-$3,0-$2-$2+$4+$4*
1,1,$4+$4+$4+$4,0-$1-$1+$4+$4+$4+$4+$4+$3,0-$2-$2+$4+$4*%
%ADD10C,0.028121*%
%ADD11C,0.010000*%
%ADD12C,0.015748*%
G01*
G04 begin color: clBlack*
%LPD*%

G04 Objects of panelization *
D10*
X4881850Y5801800D02*
X4877600Y5788950D01*
X4877600Y5788950D02*
X4869050Y5780400D01*
X4869050Y5780400D02*
X4856200Y5776150D01*
X4856200Y5776150D02*
X4817650Y5776150D01*
X4817650Y5776150D02*
X4804850Y5780400D01*
X4804850Y5780400D02*
X4796300Y5788950D01*
X4796300Y5788950D02*
X4792000Y5801800D01*
X4792000Y5801800D02*
X4792000Y5943000D01*
X4792000Y5943000D02*
X4796300Y5955850D01*
X4796300Y5955850D02*
X4804850Y5964400D01*
X4804850Y5964400D02*
X4817650Y5968700D01*
X4817650Y5968700D02*
X4856200Y5968700D01*
X4856200Y5968700D02*
X4869050Y5964400D01*
X4869050Y5964400D02*
X4877600Y5955850D01*
X4877600Y5955850D02*
X4881850Y5943000D01*
X4881850Y5943000D02*
X4881850Y5801800D01*
X4735700Y5776150D02*
X4735700Y5904500D01*
X4735700Y5904500D02*
X4684350Y5904500D01*
X4684350Y5904500D02*
X4671500Y5900250D01*
X4671500Y5900250D02*
X4662950Y5891650D01*
X4662950Y5891650D02*
X4658650Y5878850D01*
X4658650Y5878850D02*
X4658650Y5776150D01*
X4542450Y5968700D02*
X4602350Y5968700D01*
X4602350Y5968700D02*
X4602350Y5776150D01*
X4602350Y5776150D02*
X4533900Y5776150D01*
X4533900Y5776150D02*
X4521050Y5780400D01*
X4521050Y5780400D02*
X4512500Y5788950D01*
X4512500Y5788950D02*
X4508200Y5801800D01*
X4508200Y5801800D02*
X4508200Y5857450D01*
X4508200Y5857450D02*
X4512500Y5870250D01*
X4512500Y5870250D02*
X4521050Y5878850D01*
X4542450Y5968700D02*
X4529600Y5964400D01*
X4529600Y5964400D02*
X4521050Y5955850D01*
X4521050Y5955850D02*
X4516750Y5943000D01*
X4516750Y5943000D02*
X4516750Y5908800D01*
X4516750Y5908800D02*
X4521050Y5895950D01*
X4521050Y5895950D02*
X4529600Y5887400D01*
X4529600Y5887400D02*
X4542450Y5883100D01*
X4521050Y5878850D02*
X4533900Y5883100D01*
X4533900Y5883100D02*
X4602350Y5883100D01*
X4451900Y5801800D02*
X4447600Y5788950D01*
X4447600Y5788950D02*
X4439050Y5780400D01*
X4439050Y5780400D02*
X4426250Y5776150D01*
X4426250Y5776150D02*
X4400550Y5776150D01*
X4400550Y5776150D02*
X4387700Y5780400D01*
X4387700Y5780400D02*
X4379150Y5788950D01*
X4379150Y5788950D02*
X4374900Y5801800D01*
X4374900Y5801800D02*
X4374900Y5878850D01*
X4374900Y5878850D02*
X4379150Y5891650D01*
X4379150Y5891650D02*
X4387700Y5900250D01*
X4387700Y5900250D02*
X4400550Y5904500D01*
X4400550Y5904500D02*
X4426250Y5904500D01*
X4426250Y5904500D02*
X4439050Y5900250D01*
X4439050Y5900250D02*
X4447600Y5891650D01*
X4447600Y5891650D02*
X4451900Y5878850D01*
X4451900Y5878850D02*
X4451900Y5801800D01*
X4305750Y5968700D02*
X4305750Y5776150D01*
X4318550Y5904500D02*
X4271500Y5904500D01*
X4129600Y5955850D02*
X4138150Y5964400D01*
X4138150Y5964400D02*
X4155300Y5968700D01*
X4155300Y5968700D02*
X4189500Y5968700D01*
X4189500Y5968700D02*
X4202350Y5964400D01*
X4202350Y5964400D02*
X4210900Y5955850D01*
X4210900Y5955850D02*
X4215200Y5943000D01*
X4215200Y5943000D02*
X4215200Y5930200D01*
X4215200Y5930200D02*
X4210900Y5917350D01*
X4210900Y5917350D02*
X4133900Y5831750D01*
X4133900Y5831750D02*
X4129600Y5818900D01*
X4129600Y5818900D02*
X4129600Y5801800D01*
X4129600Y5801800D02*
X4133900Y5788950D01*
X4133900Y5788950D02*
X4142450Y5780400D01*
X4142450Y5780400D02*
X4155300Y5776150D01*
X4155300Y5776150D02*
X4189500Y5776150D01*
X4189500Y5776150D02*
X4206650Y5780400D01*
X4206650Y5780400D02*
X4215200Y5788950D01*
X4069000Y5904500D02*
X4069000Y5776150D01*
X4069000Y5960150D02*
X4073300Y5955850D01*
X4073300Y5955850D02*
X4069000Y5951600D01*
X4069000Y5951600D02*
X4064750Y5955850D01*
X4064750Y5955850D02*
X4069000Y5960150D01*
X4008450Y5968700D02*
X4008450Y5801800D01*
X4008450Y5801800D02*
X4004150Y5788950D01*
X4004150Y5788950D02*
X3995600Y5780400D01*
X3995600Y5780400D02*
X3982750Y5776150D01*
X3982750Y5776150D02*
X3969900Y5776150D01*
X3913600Y5968700D02*
X3913600Y5776150D01*
X3913600Y5831750D02*
X3836600Y5904500D01*
X3892200Y5848900D02*
X3836600Y5776150D01*
D11*

G04 Step and Repeat for panelization *
%SRX6Y10I1.141732J0.610236*%

G04 ----------------------- Draw board outline (positive)*

G04 -------------- Draw Parts, Pads, Traces, Vias and Text (positive)*

G04 Draw traces*

G04 Draw Text*
D12*
X-94450Y-165350D02*
X-94450Y-88300D01*
X-94450Y-88300D02*
X-118450Y-88300D01*
X-118450Y-88300D02*
X-123550Y-90000D01*
X-123550Y-90000D02*
X-127000Y-93450D01*
X-127000Y-93450D02*
X-128700Y-98550D01*
X-128700Y-98550D02*
X-128700Y-155050D01*
X-128700Y-155050D02*
X-127000Y-160200D01*
X-127000Y-160200D02*
X-123550Y-163600D01*
X-123550Y-163600D02*
X-118450Y-165350D01*
X-118450Y-165350D02*
X-94450Y-165350D01*
X-155700Y-165350D02*
X-155700Y-114000D01*
X-155700Y-114000D02*
X-174550Y-114000D01*
X-174550Y-114000D02*
X-179700Y-115700D01*
X-179700Y-115700D02*
X-183100Y-119100D01*
X-183100Y-119100D02*
X-184800Y-122550D01*
X-184800Y-122550D02*
X-184800Y-125950D01*
X-213550Y-114000D02*
X-213550Y-165350D01*
X-213550Y-91700D02*
X-211850Y-93450D01*
X-211850Y-93450D02*
X-213550Y-95150D01*
X-213550Y-95150D02*
X-215250Y-93450D01*
X-215250Y-93450D02*
X-213550Y-91700D01*
X-242300Y-114000D02*
X-257700Y-165350D01*
X-257700Y-165350D02*
X-273100Y-114000D01*
X-300100Y-139650D02*
X-330950Y-139650D01*
X-330950Y-139650D02*
X-330950Y-124250D01*
X-330950Y-124250D02*
X-329200Y-119100D01*
X-329200Y-119100D02*
X-325800Y-115700D01*
X-325800Y-115700D02*
X-320650Y-114000D01*
X-320650Y-114000D02*
X-310400Y-114000D01*
X-310400Y-114000D02*
X-305250Y-115700D01*
X-305250Y-115700D02*
X-301850Y-119100D01*
X-301850Y-119100D02*
X-300100Y-124250D01*
X-300100Y-124250D02*
X-300100Y-155050D01*
X-300100Y-155050D02*
X-301850Y-160200D01*
X-301850Y-160200D02*
X-305250Y-163600D01*
X-305250Y-163600D02*
X-310400Y-165350D01*
X-310400Y-165350D02*
X-329200Y-165350D01*
X-357950Y-165350D02*
X-357950Y-114000D01*
X-357950Y-114000D02*
X-376800Y-114000D01*
X-376800Y-114000D02*
X-381900Y-115700D01*
X-381900Y-115700D02*
X-385350Y-119100D01*
X-385350Y-119100D02*
X-387050Y-122550D01*
X-387050Y-122550D02*
X-387050Y-125950D01*
X-414100Y-131100D02*
X-444900Y-131100D01*
X-489050Y-88300D02*
X-482200Y-88300D01*
X-482200Y-88300D02*
X-477050Y-90000D01*
X-477050Y-90000D02*
X-473600Y-93450D01*
X-473600Y-93450D02*
X-471900Y-98550D01*
X-471900Y-98550D02*
X-471900Y-155050D01*
X-471900Y-155050D02*
X-473600Y-160200D01*
X-473600Y-160200D02*
X-477050Y-163600D01*
X-477050Y-163600D02*
X-482200Y-165350D01*
X-482200Y-165350D02*
X-495850Y-165350D01*
X-495850Y-165350D02*
X-501000Y-163600D01*
X-501000Y-163600D02*
X-504450Y-160200D01*
X-504450Y-160200D02*
X-506150Y-155050D01*
X-506150Y-155050D02*
X-506150Y-98550D01*
X-506150Y-98550D02*
X-504450Y-93450D01*
X-504450Y-93450D02*
X-501000Y-90000D01*
X-501000Y-90000D02*
X-495850Y-88300D01*
X-495850Y-88300D02*
X-489050Y-88300D01*
X-533150Y-105400D02*
X-550300Y-88300D01*
X-550300Y-88300D02*
X-550300Y-165350D01*
D11*
M02*
