;Holesize 1 =   19.0 MILS
;Holesize 2 =  118.0 MILS
M48
INCH,00.0000
T01C0.019
T02C0.118
%
G05
G90
T01
X-005347Y-003450
X-005151Y-003765
X-005544Y-003765
X-008225Y-004031
X-003093Y-002811
X-006430Y-002789
X-006076Y-002789
X-007874Y-002822
X-005347Y002651
X-005151Y002336
X-005544Y002336
X-008225Y002070
X-003093Y003291
X-006430Y003312
X-006076Y003312
X-007874Y003280
X-005347Y008753
X-005151Y008438
X-005544Y008438
X-008225Y008173
X-003093Y009393
X-006430Y009415
X-006076Y009415
X-007874Y009382
X-005347Y014856
X-005151Y014541
X-005544Y014541
X-008225Y014275
X-003093Y015495
X-006430Y015517
X-006076Y015517
X-007874Y015484
X-005347Y020958
X-005151Y020643
X-005544Y020643
X-008225Y020377
X-003093Y021598
X-006430Y021619
X-006076Y021619
X-007874Y021587
X-005347Y027060
X-005151Y026745
X-005544Y026745
X-008225Y026480
X-003093Y027700
X-006430Y027722
X-006076Y027722
X-007874Y027689
X-005347Y033163
X-005151Y032848
X-005544Y032848
X-008225Y032582
X-003093Y033803
X-006430Y033824
X-006076Y033824
X-007874Y033791
X-005347Y039265
X-005151Y038950
X-005544Y038950
X-008225Y038684
X-003093Y039905
X-006430Y039927
X-006076Y039927
X-007874Y039894
X-005347Y045367
X-005151Y045053
X-005544Y045053
X-008225Y044787
X-003093Y046007
X-006430Y046029
X-006076Y046029
X-007874Y045996
X-005347Y051470
X-005151Y051155
X-005544Y051155
X-008225Y050889
X-003093Y052110
X-006430Y052131
X-006076Y052131
X-007874Y052098
X006069Y-003450
X006266Y-003765
X005872Y-003765
X003192Y-004031
X008324Y-002811
X004987Y-002789
X005341Y-002789
X003543Y-002822
X006069Y002651
X006266Y002336
X005872Y002336
X003192Y002070
X008324Y003291
X004987Y003312
X005341Y003312
X003543Y003280
X006069Y008753
X006266Y008438
X005872Y008438
X003192Y008173
X008324Y009393
X004987Y009415
X005341Y009415
X003543Y009382
X006069Y014856
X006266Y014541
X005872Y014541
X003192Y014275
X008324Y015495
X004987Y015517
X005341Y015517
X003543Y015484
X006069Y020958
X006266Y020643
X005872Y020643
X003192Y020377
X008324Y021598
X004987Y021619
X005341Y021619
X003543Y021587
X006069Y027060
X006266Y026745
X005872Y026745
X003192Y026480
X008324Y027700
X004987Y027722
X005341Y027722
X003543Y027689
X006069Y033163
X006266Y032848
X005872Y032848
X003192Y032582
X008324Y033803
X004987Y033824
X005341Y033824
X003543Y033791
X006069Y039265
X006266Y038950
X005872Y038950
X003192Y038684
X008324Y039905
X004987Y039927
X005341Y039927
X003543Y039894
X006069Y045367
X006266Y045053
X005872Y045053
X003192Y044787
X008324Y046007
X004987Y046029
X005341Y046029
X003543Y045996
X006069Y051470
X006266Y051155
X005872Y051155
X003192Y050889
X008324Y052110
X004987Y052131
X005341Y052131
X003543Y052098
X017486Y-003450
X017683Y-003765
X017289Y-003765
X014609Y-004031
X019741Y-002811
X016404Y-002789
X016758Y-002789
X014960Y-002822
X017486Y002651
X017683Y002336
X017289Y002336
X014609Y002070
X019741Y003291
X016404Y003312
X016758Y003312
X014960Y003280
X017486Y008753
X017683Y008438
X017289Y008438
X014609Y008173
X019741Y009393
X016404Y009415
X016758Y009415
X014960Y009382
X017486Y014856
X017683Y014541
X017289Y014541
X014609Y014275
X019741Y015495
X016404Y015517
X016758Y015517
X014960Y015484
X017486Y020958
X017683Y020643
X017289Y020643
X014609Y020377
X019741Y021598
X016404Y021619
X016758Y021619
X014960Y021587
X017486Y027060
X017683Y026745
X017289Y026745
X014609Y026480
X019741Y027700
X016404Y027722
X016758Y027722
X014960Y027689
X017486Y033163
X017683Y032848
X017289Y032848
X014609Y032582
X019741Y033803
X016404Y033824
X016758Y033824
X014960Y033791
X017486Y039265
X017683Y038950
X017289Y038950
X014609Y038684
X019741Y039905
X016404Y039927
X016758Y039927
X014960Y039894
X017486Y045367
X017683Y045053
X017289Y045053
X014609Y044787
X019741Y046007
X016404Y046029
X016758Y046029
X014960Y045996
X017486Y051470
X017683Y051155
X017289Y051155
X014609Y050889
X019741Y052110
X016404Y052131
X016758Y052131
X014960Y052098
X028903Y-003450
X029100Y-003765
X028707Y-003765
X026026Y-004031
X031158Y-002811
X027821Y-002789
X028175Y-002789
X026377Y-002822
X028903Y002651
X029100Y002336
X028707Y002336
X026026Y002070
X031158Y003291
X027821Y003312
X028175Y003312
X026377Y003280
X028903Y008753
X029100Y008438
X028707Y008438
X026026Y008173
X031158Y009393
X027821Y009415
X028175Y009415
X026377Y009382
X028903Y014856
X029100Y014541
X028707Y014541
X026026Y014275
X031158Y015495
X027821Y015517
X028175Y015517
X026377Y015484
X028903Y020958
X029100Y020643
X028707Y020643
X026026Y020377
X031158Y021598
X027821Y021619
X028175Y021619
X026377Y021587
X028903Y027060
X029100Y026745
X028707Y026745
X026026Y026480
X031158Y027700
X027821Y027722
X028175Y027722
X026377Y027689
X028903Y033163
X029100Y032848
X028707Y032848
X026026Y032582
X031158Y033803
X027821Y033824
X028175Y033824
X026377Y033791
X028903Y039265
X029100Y038950
X028707Y038950
X026026Y038684
X031158Y039905
X027821Y039927
X028175Y039927
X026377Y039894
X028903Y045367
X029100Y045053
X028707Y045053
X026026Y044787
X031158Y046007
X027821Y046029
X028175Y046029
X026377Y045996
X028903Y051470
X029100Y051155
X028707Y051155
X026026Y050889
X031158Y052110
X027821Y052131
X028175Y052131
X026377Y052098
X040321Y-003450
X040518Y-003765
X040124Y-003765
X037444Y-004031
X042576Y-002811
X039238Y-002789
X039592Y-002789
X037795Y-002822
X040321Y002651
X040518Y002336
X040124Y002336
X037444Y002070
X042576Y003291
X039238Y003312
X039592Y003312
X037795Y003280
X040321Y008753
X040518Y008438
X040124Y008438
X037444Y008173
X042576Y009393
X039238Y009415
X039592Y009415
X037795Y009382
X040321Y014856
X040518Y014541
X040124Y014541
X037444Y014275
X042576Y015495
X039238Y015517
X039592Y015517
X037795Y015484
X040321Y020958
X040518Y020643
X040124Y020643
X037444Y020377
X042576Y021598
X039238Y021619
X039592Y021619
X037795Y021587
X040321Y027060
X040518Y026745
X040124Y026745
X037444Y026480
X042576Y027700
X039238Y027722
X039592Y027722
X037795Y027689
X040321Y033163
X040518Y032848
X040124Y032848
X037444Y032582
X042576Y033803
X039238Y033824
X039592Y033824
X037795Y033791
X040321Y039265
X040518Y038950
X040124Y038950
X037444Y038684
X042576Y039905
X039238Y039927
X039592Y039927
X037795Y039894
X040321Y045367
X040518Y045053
X040124Y045053
X037444Y044787
X042576Y046007
X039238Y046029
X039592Y046029
X037795Y045996
X040321Y051470
X040518Y051155
X040124Y051155
X037444Y050889
X042576Y052110
X039238Y052131
X039592Y052131
X037795Y052098
X051738Y-003450
X051935Y-003765
X051541Y-003765
X048861Y-004031
X053993Y-002811
X050656Y-002789
X051010Y-002789
X049212Y-002822
X051738Y002651
X051935Y002336
X051541Y002336
X048861Y002070
X053993Y003291
X050656Y003312
X051010Y003312
X049212Y003280
X051738Y008753
X051935Y008438
X051541Y008438
X048861Y008173
X053993Y009393
X050656Y009415
X051010Y009415
X049212Y009382
X051738Y014856
X051935Y014541
X051541Y014541
X048861Y014275
X053993Y015495
X050656Y015517
X051010Y015517
X049212Y015484
X051738Y020958
X051935Y020643
X051541Y020643
X048861Y020377
X053993Y021598
X050656Y021619
X051010Y021619
X049212Y021587
X051738Y027060
X051935Y026745
X051541Y026745
X048861Y026480
X053993Y027700
X050656Y027722
X051010Y027722
X049212Y027689
X051738Y033163
X051935Y032848
X051541Y032848
X048861Y032582
X053993Y033803
X050656Y033824
X051010Y033824
X049212Y033791
X051738Y039265
X051935Y038950
X051541Y038950
X048861Y038684
X053993Y039905
X050656Y039927
X051010Y039927
X049212Y039894
X051738Y045367
X051935Y045053
X051541Y045053
X048861Y044787
X053993Y046007
X050656Y046029
X051010Y046029
X049212Y045996
X051738Y051470
X051935Y051155
X051541Y051155
X048861Y050889
X053993Y052110
X050656Y052131
X051010Y052131
X049212Y052098
T02
X-013779Y-008464
X-013779Y058464
X060629Y-008464
X060629Y058464
M30
